%
M48
M72
T01C0.0118
T02C0.0394
T03C0.0728
%
T01
X12390Y9476
X13768Y10579
X14831Y13020
X15657Y14673
X17665Y13531
X18691Y12626
X18689Y11957
X18610Y10224
X16445Y11287
X15776Y7744
X18807Y4240
X20776Y4043
X21012Y6445
X21878Y7941
X22311Y8807
X21524Y9240
X20894Y9240
X20697Y8807
X22390Y9791
X23138Y11327
X23728Y11327
X24437Y10421
X24909Y11327
X25697Y11327
X26287Y11327
X28295Y10106
X28846Y12311
X31169Y14594
X28650Y16051
X26878Y17429
X26091Y17429
X24909Y17429
X23925Y17429
X24161Y18492
X22547Y17232
X22350Y15657
X22350Y14870
X22350Y13295
X22350Y12705
X21248Y11799
X21130Y11366
X20776Y12154
X17469Y16642
X16484Y16878
X13689Y20421
X18453Y23768
X15697Y26130
X20028Y26917
X21327Y31248
X20146Y33886
X19358Y35972
X21524Y38059
X23768Y36366
X23413Y34122
X25106Y23886
X23138Y22547
X25815Y20500
X28374Y20972
X11248Y14752
T02
X20224Y7906
X19825Y4906
X20624Y4906
X21484Y37272
T03
X19161Y25185
X19161Y15185
M30
