G75*
%MOIN*%
%OFA0B0*%
%FSLAX25Y25*%
%IPPOS*%
%LPD*%
%AMOC8*
5,1,8,0,0,1.08239X$1,22.5*
%
%ADD10C,0.10335*%
%ADD11R,0.02362X0.04331*%
%ADD12C,0.01181*%
%ADD13R,0.03937X0.03150*%
%ADD14R,0.03150X0.03937*%
%ADD15R,0.03740X0.01181*%
%ADD16R,0.01969X0.01181*%
%ADD17R,0.01181X0.03740*%
%ADD18R,0.01181X0.01969*%
%ADD19R,0.03543X0.03937*%
%ADD20C,0.03150*%
%ADD21C,0.04724*%
%ADD22R,0.05512X0.04724*%
%ADD23C,0.55118*%
%ADD24R,0.07874X0.07874*%
D10*
X0236348Y0163415D02*
X0275226Y0163415D01*
X0275226Y0124537D01*
X0236348Y0124537D01*
X0236348Y0163415D01*
X0236348Y0134871D02*
X0275226Y0134871D01*
X0275226Y0145205D02*
X0236348Y0145205D01*
X0236348Y0155539D02*
X0275226Y0155539D01*
D11*
X0210315Y0141811D03*
X0206575Y0141811D03*
X0206575Y0131181D03*
X0210315Y0131181D03*
X0202835Y0131181D03*
D12*
X0203426Y0140236D02*
X0202244Y0140236D01*
X0202244Y0143386D01*
X0203426Y0143386D01*
X0203426Y0140236D01*
X0203426Y0141416D02*
X0202244Y0141416D01*
X0202244Y0142596D02*
X0203426Y0142596D01*
D13*
X0217992Y0135000D03*
X0217992Y0128543D03*
X0182165Y0109016D03*
X0175866Y0109016D03*
X0175866Y0102559D03*
X0182165Y0102559D03*
D14*
X0166496Y0103425D03*
X0160039Y0103425D03*
X0151929Y0116417D03*
X0145472Y0116417D03*
X0186811Y0134921D03*
X0186811Y0141220D03*
X0193268Y0141220D03*
X0193268Y0134921D03*
X0217520Y0142008D03*
X0223976Y0142008D03*
X0223976Y0122717D03*
X0223976Y0116811D03*
X0217520Y0116811D03*
X0217520Y0122717D03*
X0292717Y0080197D03*
X0299173Y0080197D03*
D15*
X0207264Y0100276D03*
X0207264Y0102244D03*
X0207264Y0104213D03*
X0207264Y0106181D03*
X0207264Y0108150D03*
X0190925Y0108150D03*
X0190925Y0106181D03*
X0190925Y0104213D03*
X0190925Y0102244D03*
X0190925Y0100276D03*
D16*
X0190925Y0098307D03*
X0190925Y0110118D03*
X0207264Y0110118D03*
X0207264Y0098307D03*
D17*
X0203031Y0096043D03*
X0201063Y0096043D03*
X0199094Y0096043D03*
X0197126Y0096043D03*
X0195157Y0096043D03*
X0195157Y0112382D03*
X0197126Y0112382D03*
X0199094Y0112382D03*
X0201063Y0112382D03*
X0203031Y0112382D03*
D18*
X0205000Y0112382D03*
X0193189Y0112382D03*
X0193189Y0096043D03*
X0205000Y0096043D03*
D19*
X0292598Y0086102D03*
X0300079Y0086102D03*
X0296339Y0095551D03*
D20*
X0204744Y0074055D03*
X0204744Y0069055D03*
X0204744Y0064055D03*
X0204744Y0059055D03*
X0204744Y0054055D03*
X0199744Y0054055D03*
X0199744Y0059055D03*
X0199744Y0064055D03*
X0199744Y0069055D03*
X0199744Y0074055D03*
D21*
X0144764Y0109921D02*
X0143976Y0109921D01*
D22*
X0144370Y0103228D03*
X0153031Y0103228D03*
X0153031Y0109921D03*
D23*
X0191614Y0201850D03*
D24*
X0236496Y0106969D03*
X0267205Y0106969D03*
X0267205Y0076260D03*
X0236496Y0076260D03*
M02*
