G75*
%MOIN*%
%OFA0B0*%
%FSLAX25Y25*%
%IPPOS*%
%LPD*%
%AMOC8*
5,1,8,0,0,1.08239X$1,22.5*
%
%ADD10C,0.04737*%
%ADD11R,0.03162X0.05131*%
%ADD12C,0.01581*%
%ADD13R,0.04737X0.03950*%
%ADD14R,0.03950X0.04737*%
%ADD15R,0.04540X0.01981*%
%ADD16R,0.02769X0.01981*%
%ADD17C,0.00394*%
%ADD18R,0.01981X0.04540*%
%ADD19R,0.01981X0.02769*%
%ADD20R,0.04343X0.04737*%
%ADD21C,0.03950*%
%ADD22C,0.05524*%
%ADD23R,0.06312X0.05524*%
%ADD24C,0.11725*%
%ADD25C,0.55918*%
%ADD26R,0.08674X0.08674*%
%ADD27R,0.08661X0.08661*%
D10*
X0198248Y0049055D03*
X0206240Y0049055D03*
X0202244Y0079055D03*
X0214843Y0372717D03*
D11*
X0210315Y0141811D03*
X0206575Y0141811D03*
X0206575Y0131181D03*
X0210315Y0131181D03*
X0202835Y0131181D03*
D12*
X0203626Y0140036D02*
X0202044Y0140036D01*
X0202044Y0143586D01*
X0203626Y0143586D01*
X0203626Y0140036D01*
X0203626Y0141616D02*
X0202044Y0141616D01*
X0202044Y0143196D02*
X0203626Y0143196D01*
D13*
X0217992Y0135000D03*
X0217992Y0128543D03*
X0182165Y0109016D03*
X0175866Y0109016D03*
X0175866Y0102559D03*
X0182165Y0102559D03*
D14*
X0166496Y0103425D03*
X0160039Y0103425D03*
X0151929Y0116417D03*
X0145472Y0116417D03*
X0186811Y0134921D03*
X0186811Y0141220D03*
X0193268Y0141220D03*
X0193268Y0134921D03*
X0217520Y0142008D03*
X0223976Y0142008D03*
X0223976Y0122717D03*
X0223976Y0116811D03*
X0217520Y0116811D03*
X0217520Y0122717D03*
X0292717Y0080197D03*
X0299173Y0080197D03*
D15*
X0207264Y0100276D03*
X0207264Y0102244D03*
X0207264Y0104213D03*
X0207264Y0106181D03*
X0207264Y0108150D03*
X0190925Y0108150D03*
X0190925Y0106181D03*
X0190925Y0104213D03*
X0190925Y0102244D03*
X0190925Y0100276D03*
D16*
X0190925Y0098307D03*
X0190925Y0110118D03*
X0207264Y0110118D03*
X0207264Y0098307D03*
D17*
X0205787Y0097717D02*
X0209331Y0097717D01*
X0209331Y0098898D01*
X0205197Y0098898D01*
X0205197Y0098307D01*
X0205787Y0097717D01*
X0205591Y0097520D02*
X0205000Y0098110D01*
X0204409Y0098110D01*
X0204409Y0093976D01*
X0205591Y0093976D01*
X0205591Y0097520D01*
X0205548Y0097562D02*
X0204409Y0097562D01*
X0204409Y0097170D02*
X0205591Y0097170D01*
X0205591Y0096778D02*
X0204409Y0096778D01*
X0204409Y0096385D02*
X0205591Y0096385D01*
X0205591Y0095993D02*
X0204409Y0095993D01*
X0204409Y0095601D02*
X0205591Y0095601D01*
X0205591Y0095209D02*
X0204409Y0095209D01*
X0204409Y0094817D02*
X0205591Y0094817D01*
X0205591Y0094424D02*
X0204409Y0094424D01*
X0204409Y0094032D02*
X0205591Y0094032D01*
X0205550Y0097954D02*
X0209331Y0097954D01*
X0209331Y0098346D02*
X0205197Y0098346D01*
X0205197Y0098739D02*
X0209331Y0098739D01*
X0205156Y0097954D02*
X0204409Y0097954D01*
X0193780Y0097954D02*
X0193033Y0097954D01*
X0193189Y0098110D02*
X0192598Y0097520D01*
X0192598Y0093976D01*
X0193780Y0093976D01*
X0193780Y0098110D01*
X0193189Y0098110D01*
X0192992Y0098307D02*
X0192992Y0098898D01*
X0188858Y0098898D01*
X0188858Y0097717D01*
X0192402Y0097717D01*
X0192992Y0098307D01*
X0192992Y0098346D02*
X0188858Y0098346D01*
X0188858Y0097954D02*
X0192639Y0097954D01*
X0192641Y0097562D02*
X0193780Y0097562D01*
X0193780Y0097170D02*
X0192598Y0097170D01*
X0192598Y0096778D02*
X0193780Y0096778D01*
X0193780Y0096385D02*
X0192598Y0096385D01*
X0192598Y0095993D02*
X0193780Y0095993D01*
X0193780Y0095601D02*
X0192598Y0095601D01*
X0192598Y0095209D02*
X0193780Y0095209D01*
X0193780Y0094817D02*
X0192598Y0094817D01*
X0192598Y0094424D02*
X0193780Y0094424D01*
X0193780Y0094032D02*
X0192598Y0094032D01*
X0192992Y0098739D02*
X0188858Y0098739D01*
X0188858Y0109528D02*
X0188858Y0110709D01*
X0192402Y0110709D01*
X0192992Y0110118D01*
X0192992Y0109528D01*
X0188858Y0109528D01*
X0188858Y0109721D02*
X0192992Y0109721D01*
X0192992Y0110113D02*
X0188858Y0110113D01*
X0188858Y0110505D02*
X0192605Y0110505D01*
X0192607Y0110897D02*
X0193780Y0110897D01*
X0193780Y0110505D02*
X0192999Y0110505D01*
X0193189Y0110315D02*
X0193780Y0110315D01*
X0193780Y0114449D01*
X0192598Y0114449D01*
X0192598Y0110906D01*
X0193189Y0110315D01*
X0192598Y0111289D02*
X0193780Y0111289D01*
X0193780Y0111682D02*
X0192598Y0111682D01*
X0192598Y0112074D02*
X0193780Y0112074D01*
X0193780Y0112466D02*
X0192598Y0112466D01*
X0192598Y0112858D02*
X0193780Y0112858D01*
X0193780Y0113251D02*
X0192598Y0113251D01*
X0192598Y0113643D02*
X0193780Y0113643D01*
X0193780Y0114035D02*
X0192598Y0114035D01*
X0192598Y0114427D02*
X0193780Y0114427D01*
X0204409Y0114427D02*
X0205591Y0114427D01*
X0205591Y0114449D02*
X0204409Y0114449D01*
X0204409Y0110315D01*
X0205000Y0110315D01*
X0205591Y0110906D01*
X0205591Y0114449D01*
X0205591Y0114035D02*
X0204409Y0114035D01*
X0204409Y0113643D02*
X0205591Y0113643D01*
X0205591Y0113251D02*
X0204409Y0113251D01*
X0204409Y0112858D02*
X0205591Y0112858D01*
X0205591Y0112466D02*
X0204409Y0112466D01*
X0204409Y0112074D02*
X0205591Y0112074D01*
X0205591Y0111682D02*
X0204409Y0111682D01*
X0204409Y0111289D02*
X0205591Y0111289D01*
X0205582Y0110897D02*
X0204409Y0110897D01*
X0204409Y0110505D02*
X0205190Y0110505D01*
X0205197Y0110118D02*
X0205197Y0109528D01*
X0209331Y0109528D01*
X0209331Y0110709D01*
X0205787Y0110709D01*
X0205197Y0110118D01*
X0205197Y0110113D02*
X0209331Y0110113D01*
X0209331Y0110505D02*
X0205584Y0110505D01*
X0205197Y0109721D02*
X0209331Y0109721D01*
D18*
X0203031Y0112382D03*
X0201063Y0112382D03*
X0199094Y0112382D03*
X0197126Y0112382D03*
X0195157Y0112382D03*
X0195157Y0096043D03*
X0197126Y0096043D03*
X0199094Y0096043D03*
X0201063Y0096043D03*
X0203031Y0096043D03*
D19*
X0205000Y0096043D03*
X0193189Y0096043D03*
X0193189Y0112382D03*
X0205000Y0112382D03*
D20*
X0292598Y0086102D03*
X0300079Y0086102D03*
X0296339Y0095551D03*
D21*
X0204744Y0074055D03*
X0204744Y0069055D03*
X0204744Y0064055D03*
X0204744Y0059055D03*
X0204744Y0054055D03*
X0199744Y0054055D03*
X0199744Y0059055D03*
X0199744Y0064055D03*
X0199744Y0069055D03*
X0199744Y0074055D03*
D22*
X0144764Y0109921D02*
X0143976Y0109921D01*
D23*
X0144370Y0103228D03*
X0153031Y0103228D03*
X0153031Y0109921D03*
D24*
X0191614Y0151850D03*
X0191614Y0251850D03*
D25*
X0191614Y0201850D03*
D26*
X0236496Y0106969D03*
X0267205Y0106969D03*
D27*
X0267205Y0076260D03*
X0236496Y0076260D03*
M02*
