G75*
%MOIN*%
%OFA0B0*%
%FSLAX25Y25*%
%IPPOS*%
%LPD*%
%AMOC8*
5,1,8,0,0,1.08239X$1,22.5*
%
%ADD10C,0.00300*%
%ADD11C,0.00787*%
%ADD12C,0.00984*%
%ADD13C,0.00500*%
%ADD14C,0.00200*%
%ADD15R,0.00584X0.00031*%
%ADD16R,0.00031X0.00031*%
%ADD17R,0.00031X0.00031*%
%ADD18R,0.00954X0.00031*%
%ADD19R,0.00031X0.00031*%
%ADD20R,0.01200X0.00031*%
%ADD21R,0.01415X0.00031*%
%ADD22R,0.00031X0.00031*%
%ADD23R,0.01599X0.00031*%
%ADD24R,0.01754X0.00031*%
%ADD25R,0.01876X0.00031*%
%ADD26R,0.02061X0.00031*%
%ADD27R,0.01815X0.00031*%
%ADD28R,0.00307X0.00031*%
%ADD29R,0.00246X0.00031*%
%ADD30R,0.01692X0.00031*%
%ADD31R,0.00246X0.00031*%
%ADD32R,0.00215X0.00031*%
%ADD33R,0.00431X0.00031*%
%ADD34R,0.02030X0.00031*%
%ADD35R,0.02614X0.00031*%
%ADD36R,0.02676X0.00031*%
%ADD37R,0.00031X0.00031*%
%ADD38R,0.02584X0.00031*%
%ADD39R,0.00154X0.00031*%
%ADD40R,0.02891X0.00031*%
%ADD41R,0.02645X0.00031*%
%ADD42R,0.00061X0.00031*%
%ADD43R,0.00185X0.00031*%
%ADD44R,0.00185X0.00031*%
%ADD45R,0.02830X0.00031*%
%ADD46R,0.00123X0.00031*%
%ADD47R,0.02861X0.00031*%
%ADD48R,0.00215X0.00031*%
%ADD49R,0.02922X0.00031*%
%ADD50R,0.02553X0.00031*%
%ADD51R,0.03322X0.00031*%
%ADD52R,0.03414X0.00031*%
%ADD53R,0.00093X0.00031*%
%ADD54R,0.03322X0.00031*%
%ADD55R,0.00031X0.00031*%
%ADD56R,0.00123X0.00031*%
%ADD57R,0.03353X0.00031*%
%ADD58R,0.03599X0.00031*%
%ADD59R,0.03230X0.00031*%
%ADD60R,0.03752X0.00031*%
%ADD61R,0.00154X0.00031*%
%ADD62R,0.03630X0.00031*%
%ADD63R,0.03844X0.00031*%
%ADD64R,0.03906X0.00031*%
%ADD65R,0.03814X0.00031*%
%ADD66R,0.03814X0.00031*%
%ADD67R,0.04060X0.00031*%
%ADD68R,0.03783X0.00031*%
%ADD69R,0.00092X0.00031*%
%ADD70R,0.00061X0.00031*%
%ADD71R,0.03783X0.00031*%
%ADD72R,0.00092X0.00031*%
%ADD73R,0.03875X0.00031*%
%ADD74R,0.04275X0.00031*%
%ADD75R,0.04275X0.00031*%
%ADD76R,0.04214X0.00031*%
%ADD77R,0.04368X0.00031*%
%ADD78R,0.04429X0.00031*%
%ADD79R,0.04306X0.00031*%
%ADD80R,0.00185X0.00031*%
%ADD81R,0.04367X0.00031*%
%ADD82R,0.04583X0.00031*%
%ADD83R,0.04614X0.00031*%
%ADD84R,0.04675X0.00031*%
%ADD85R,0.04706X0.00031*%
%ADD86R,0.00093X0.00031*%
%ADD87R,0.04583X0.00031*%
%ADD88R,0.00093X0.00031*%
%ADD89R,0.04491X0.00031*%
%ADD90R,0.00123X0.00031*%
%ADD91R,0.04829X0.00031*%
%ADD92R,0.04860X0.00031*%
%ADD93R,0.04891X0.00031*%
%ADD94R,0.04891X0.00031*%
%ADD95R,0.04952X0.00031*%
%ADD96R,0.04983X0.00031*%
%ADD97R,0.04983X0.00031*%
%ADD98R,0.05044X0.00031*%
%ADD99R,0.04890X0.00031*%
%ADD100R,0.05075X0.00031*%
%ADD101R,0.05106X0.00031*%
%ADD102R,0.05137X0.00031*%
%ADD103R,0.05013X0.00031*%
%ADD104R,0.05167X0.00031*%
%ADD105R,0.05198X0.00031*%
%ADD106R,0.05198X0.00031*%
%ADD107R,0.05259X0.00031*%
%ADD108R,0.02276X0.00031*%
%ADD109R,0.00123X0.00031*%
%ADD110R,0.00061X0.00031*%
%ADD111R,0.02061X0.00031*%
%ADD112R,0.00646X0.00031*%
%ADD113R,0.02245X0.00031*%
%ADD114R,0.02153X0.00031*%
%ADD115R,0.03076X0.00031*%
%ADD116R,0.00769X0.00031*%
%ADD117R,0.02307X0.00031*%
%ADD118R,0.02399X0.00031*%
%ADD119R,0.02583X0.00031*%
%ADD120R,0.02307X0.00031*%
%ADD121R,0.02491X0.00031*%
%ADD122R,0.02246X0.00031*%
%ADD123R,0.02399X0.00031*%
%ADD124R,0.02184X0.00031*%
%ADD125R,0.02337X0.00031*%
%ADD126R,0.01722X0.00031*%
%ADD127R,0.00154X0.00031*%
%ADD128R,0.00339X0.00031*%
%ADD129R,0.01876X0.00031*%
%ADD130R,0.02092X0.00031*%
%ADD131R,0.00277X0.00031*%
%ADD132R,0.01753X0.00031*%
%ADD133R,0.02030X0.00031*%
%ADD134R,0.00184X0.00031*%
%ADD135R,0.01969X0.00031*%
%ADD136R,0.02000X0.00031*%
%ADD137R,0.00184X0.00031*%
%ADD138R,0.01938X0.00031*%
%ADD139R,0.01969X0.00031*%
%ADD140R,0.00092X0.00031*%
%ADD141R,0.01846X0.00031*%
%ADD142R,0.02122X0.00031*%
%ADD143R,0.01938X0.00031*%
%ADD144R,0.01907X0.00031*%
%ADD145R,0.01876X0.00031*%
%ADD146R,0.02061X0.00031*%
%ADD147R,0.00215X0.00031*%
%ADD148R,0.01691X0.00031*%
%ADD149R,0.01846X0.00031*%
%ADD150R,0.00277X0.00031*%
%ADD151R,0.01722X0.00031*%
%ADD152R,0.01846X0.00031*%
%ADD153R,0.01815X0.00031*%
%ADD154R,0.02030X0.00031*%
%ADD155R,0.01692X0.00031*%
%ADD156R,0.01815X0.00031*%
%ADD157R,0.01784X0.00031*%
%ADD158R,0.01969X0.00031*%
%ADD159R,0.01661X0.00031*%
%ADD160R,0.01754X0.00031*%
%ADD161R,0.01784X0.00031*%
%ADD162R,0.01630X0.00031*%
%ADD163R,0.01630X0.00031*%
%ADD164R,0.01938X0.00031*%
%ADD165R,0.01907X0.00031*%
%ADD166R,0.01630X0.00031*%
%ADD167R,0.01907X0.00031*%
%ADD168R,0.01907X0.00031*%
%ADD169R,0.01754X0.00031*%
%ADD170R,0.01876X0.00031*%
%ADD171R,0.01876X0.00031*%
%ADD172R,0.01691X0.00031*%
%ADD173R,0.01753X0.00031*%
%ADD174R,0.01722X0.00031*%
%ADD175R,0.01753X0.00031*%
%ADD176R,0.01692X0.00031*%
%ADD177R,0.01876X0.00031*%
%ADD178R,0.01569X0.00031*%
%ADD179R,0.01538X0.00031*%
%ADD180R,0.01476X0.00031*%
%ADD181R,0.01538X0.00031*%
%ADD182R,0.01661X0.00031*%
%ADD183R,0.01538X0.00031*%
%ADD184R,0.00615X0.00031*%
%ADD185R,0.01015X0.00031*%
%ADD186R,0.01415X0.00031*%
%ADD187R,0.00615X0.00031*%
%ADD188R,0.01107X0.00031*%
%ADD189R,0.01599X0.00031*%
%ADD190R,0.01907X0.00031*%
%ADD191R,0.00338X0.00031*%
%ADD192R,0.00707X0.00031*%
%ADD193R,0.01046X0.00031*%
%ADD194R,0.02492X0.00031*%
%ADD195R,0.01784X0.00031*%
%ADD196R,0.02799X0.00031*%
%ADD197R,0.02799X0.00031*%
%ADD198R,0.02215X0.00031*%
%ADD199R,0.02522X0.00031*%
%ADD200R,0.02860X0.00031*%
%ADD201R,0.01815X0.00031*%
%ADD202R,0.00154X0.00031*%
%ADD203R,0.02707X0.00031*%
%ADD204R,0.01815X0.00031*%
%ADD205R,0.02891X0.00031*%
%ADD206R,0.01661X0.00031*%
%ADD207R,0.02922X0.00031*%
%ADD208R,0.00123X0.00031*%
%ADD209R,0.02799X0.00031*%
%ADD210R,0.01845X0.00031*%
%ADD211R,0.02030X0.00031*%
%ADD212R,0.02768X0.00031*%
%ADD213R,0.01845X0.00031*%
%ADD214R,0.02061X0.00031*%
%ADD215R,0.02953X0.00031*%
%ADD216R,0.01538X0.00031*%
%ADD217R,0.02061X0.00031*%
%ADD218R,0.02768X0.00031*%
%ADD219R,0.02768X0.00031*%
%ADD220R,0.02983X0.00031*%
%ADD221R,0.01630X0.00031*%
%ADD222R,0.00123X0.00031*%
%ADD223R,0.01999X0.00031*%
%ADD224R,0.03014X0.00031*%
%ADD225R,0.02030X0.00031*%
%ADD226R,0.02215X0.00031*%
%ADD227R,0.03014X0.00031*%
%ADD228R,0.02091X0.00031*%
%ADD229R,0.03045X0.00031*%
%ADD230R,0.02122X0.00031*%
%ADD231R,0.02153X0.00031*%
%ADD232R,0.03045X0.00031*%
%ADD233R,0.02369X0.00031*%
%ADD234R,0.03045X0.00031*%
%ADD235R,0.02307X0.00031*%
%ADD236R,0.03045X0.00031*%
%ADD237R,0.00062X0.00031*%
%ADD238R,0.03045X0.00031*%
%ADD239R,0.00738X0.00031*%
%ADD240R,0.03045X0.00031*%
%ADD241R,0.05259X0.00031*%
%ADD242R,0.03076X0.00031*%
%ADD243R,0.03076X0.00031*%
%ADD244R,0.05259X0.00031*%
%ADD245R,0.05290X0.00031*%
%ADD246R,0.02953X0.00031*%
%ADD247R,0.05321X0.00031*%
%ADD248R,0.05167X0.00031*%
%ADD249R,0.03107X0.00031*%
%ADD250R,0.05013X0.00031*%
%ADD251R,0.02983X0.00031*%
%ADD252R,0.03107X0.00031*%
%ADD253R,0.03107X0.00031*%
%ADD254R,0.05260X0.00031*%
%ADD255R,0.05383X0.00031*%
%ADD256R,0.05413X0.00031*%
%ADD257R,0.03168X0.00031*%
%ADD258R,0.03168X0.00031*%
%ADD259R,0.05444X0.00031*%
%ADD260R,0.03168X0.00031*%
%ADD261R,0.05444X0.00031*%
%ADD262R,0.05475X0.00031*%
%ADD263R,0.05444X0.00031*%
%ADD264R,0.05475X0.00031*%
%ADD265R,0.05506X0.00031*%
%ADD266R,0.05506X0.00031*%
%ADD267R,0.05506X0.00031*%
%ADD268R,0.00923X0.00031*%
%ADD269R,0.05352X0.00031*%
%ADD270R,0.01476X0.00031*%
%ADD271R,0.01107X0.00031*%
%ADD272R,0.00369X0.00031*%
%ADD273R,0.05536X0.00031*%
%ADD274R,0.00892X0.00031*%
%ADD275R,0.01600X0.00031*%
%ADD276R,0.00707X0.00031*%
%ADD277R,0.05506X0.00031*%
%ADD278R,0.00738X0.00031*%
%ADD279R,0.05537X0.00031*%
%ADD280R,0.00492X0.00031*%
%ADD281R,0.05537X0.00031*%
%ADD282R,0.05352X0.00031*%
%ADD283R,0.01261X0.00031*%
%ADD284R,0.01261X0.00031*%
%ADD285R,0.01354X0.00031*%
%ADD286R,0.01292X0.00031*%
%ADD287R,0.01292X0.00031*%
%ADD288R,0.01292X0.00031*%
%ADD289R,0.01138X0.00031*%
%ADD290R,0.01261X0.00031*%
%ADD291R,0.02184X0.00031*%
%ADD292R,0.01230X0.00031*%
%ADD293R,0.03015X0.00031*%
%ADD294R,0.01230X0.00031*%
%ADD295R,0.02215X0.00031*%
%ADD296R,0.03230X0.00031*%
%ADD297R,0.02645X0.00031*%
%ADD298R,0.01230X0.00031*%
%ADD299R,0.02337X0.00031*%
%ADD300R,0.02737X0.00031*%
%ADD301R,0.02676X0.00031*%
%ADD302R,0.01200X0.00031*%
%ADD303R,0.02830X0.00031*%
%ADD304R,0.01076X0.00031*%
%ADD305R,0.02737X0.00031*%
%ADD306R,0.01046X0.00031*%
%ADD307R,0.02307X0.00031*%
%ADD308R,0.00184X0.00031*%
%ADD309R,0.01015X0.00031*%
%ADD310R,0.02338X0.00031*%
%ADD311R,0.00769X0.00031*%
%ADD312R,0.02338X0.00031*%
%ADD313R,0.00154X0.00031*%
%ADD314R,0.00984X0.00031*%
%ADD315R,0.02153X0.00031*%
%ADD316R,0.01138X0.00031*%
%ADD317R,0.01015X0.00031*%
%ADD318R,0.00954X0.00031*%
%ADD319R,0.02153X0.00031*%
%ADD320R,0.00984X0.00031*%
%ADD321R,0.02153X0.00031*%
%ADD322R,0.00154X0.00031*%
%ADD323R,0.00369X0.00031*%
%ADD324R,0.01107X0.00031*%
%ADD325R,0.00431X0.00031*%
%ADD326R,0.00585X0.00031*%
%ADD327R,0.00400X0.00031*%
%ADD328R,0.02122X0.00031*%
%ADD329R,0.01292X0.00031*%
%ADD330R,0.01107X0.00031*%
%ADD331R,0.02153X0.00031*%
%ADD332R,0.00769X0.00031*%
%ADD333R,0.02307X0.00031*%
%ADD334R,0.02122X0.00031*%
%ADD335R,0.00062X0.00031*%
%ADD336R,0.01107X0.00031*%
%ADD337R,0.01076X0.00031*%
%ADD338R,0.02276X0.00031*%
%ADD339R,0.02276X0.00031*%
%ADD340R,0.01107X0.00031*%
%ADD341R,0.01907X0.00031*%
%ADD342R,0.00338X0.00031*%
%ADD343R,0.01076X0.00031*%
%ADD344R,0.02276X0.00031*%
%ADD345R,0.02091X0.00031*%
%ADD346R,0.02091X0.00031*%
%ADD347R,0.02092X0.00031*%
%ADD348R,0.01077X0.00031*%
%ADD349R,0.02245X0.00031*%
%ADD350R,0.02245X0.00031*%
%ADD351R,0.01077X0.00031*%
%ADD352R,0.00953X0.00031*%
%ADD353R,0.00831X0.00031*%
%ADD354R,0.02246X0.00031*%
%ADD355R,0.00461X0.00031*%
%ADD356R,0.00339X0.00031*%
%ADD357R,0.01630X0.00031*%
%ADD358R,0.02061X0.00031*%
%ADD359R,0.00246X0.00031*%
%ADD360R,0.04429X0.00031*%
%ADD361R,0.01077X0.00031*%
%ADD362R,0.04337X0.00031*%
%ADD363R,0.04583X0.00031*%
%ADD364R,0.04398X0.00031*%
%ADD365R,0.00922X0.00031*%
%ADD366R,0.00922X0.00031*%
%ADD367R,0.04429X0.00031*%
%ADD368R,0.04552X0.00031*%
%ADD369R,0.04552X0.00031*%
%ADD370R,0.04306X0.00031*%
%ADD371R,0.04337X0.00031*%
%ADD372R,0.04521X0.00031*%
%ADD373R,0.04521X0.00031*%
%ADD374R,0.04491X0.00031*%
%ADD375R,0.04460X0.00031*%
%ADD376R,0.04460X0.00031*%
%ADD377R,0.04460X0.00031*%
%ADD378R,0.04214X0.00031*%
%ADD379R,0.04368X0.00031*%
%ADD380R,0.04152X0.00031*%
%ADD381R,0.00492X0.00031*%
%ADD382R,0.04306X0.00031*%
%ADD383R,0.00923X0.00031*%
%ADD384R,0.04275X0.00031*%
%ADD385R,0.01169X0.00031*%
%ADD386R,0.04244X0.00031*%
%ADD387R,0.00554X0.00031*%
%ADD388R,0.00800X0.00031*%
%ADD389R,0.00400X0.00031*%
%ADD390R,0.00554X0.00031*%
%ADD391R,0.00369X0.00031*%
%ADD392R,0.00492X0.00031*%
%ADD393R,0.01046X0.00031*%
%ADD394R,0.04060X0.00031*%
%ADD395R,0.00307X0.00031*%
%ADD396R,0.00430X0.00031*%
%ADD397R,0.04183X0.00031*%
%ADD398R,0.03968X0.00031*%
%ADD399R,0.00830X0.00031*%
%ADD400R,0.04091X0.00031*%
%ADD401R,0.02430X0.00031*%
%ADD402R,0.03937X0.00031*%
%ADD403R,0.02553X0.00031*%
%ADD404R,0.04060X0.00031*%
%ADD405R,0.02369X0.00031*%
%ADD406R,0.04029X0.00031*%
%ADD407R,0.02430X0.00031*%
%ADD408R,0.03998X0.00031*%
%ADD409R,0.02307X0.00031*%
%ADD410R,0.00277X0.00031*%
%ADD411R,0.03998X0.00031*%
%ADD412R,0.01507X0.00031*%
%ADD413R,0.00400X0.00031*%
%ADD414R,0.01353X0.00031*%
%ADD415R,0.03076X0.00031*%
%ADD416R,0.01507X0.00031*%
%ADD417R,0.01384X0.00031*%
%ADD418R,0.01046X0.00031*%
%ADD419R,0.01415X0.00031*%
%ADD420R,0.03322X0.00031*%
%ADD421R,0.01384X0.00031*%
%ADD422R,0.03199X0.00031*%
%ADD423R,0.01046X0.00031*%
%ADD424R,0.01569X0.00031*%
%ADD425R,0.03476X0.00031*%
%ADD426R,0.01476X0.00031*%
%ADD427R,0.01292X0.00031*%
%ADD428R,0.01507X0.00031*%
%ADD429R,0.03598X0.00031*%
%ADD430R,0.03691X0.00031*%
%ADD431R,0.01261X0.00031*%
%ADD432R,0.03537X0.00031*%
%ADD433R,0.03783X0.00031*%
%ADD434R,0.01200X0.00031*%
%ADD435R,0.00215X0.00031*%
%ADD436R,0.03845X0.00031*%
%ADD437R,0.01446X0.00031*%
%ADD438R,0.03722X0.00031*%
%ADD439R,0.01323X0.00031*%
%ADD440R,0.03783X0.00031*%
%ADD441R,0.01354X0.00031*%
%ADD442R,0.01323X0.00031*%
%ADD443R,0.01415X0.00031*%
%ADD444R,0.04122X0.00031*%
%ADD445R,0.01415X0.00031*%
%ADD446R,0.04183X0.00031*%
%ADD447R,0.00892X0.00031*%
%ADD448R,0.01169X0.00031*%
%ADD449R,0.00922X0.00031*%
%ADD450R,0.01169X0.00031*%
%ADD451R,0.01384X0.00031*%
%ADD452R,0.04244X0.00031*%
%ADD453R,0.04060X0.00031*%
%ADD454R,0.01384X0.00031*%
%ADD455R,0.04121X0.00031*%
%ADD456R,0.00923X0.00031*%
%ADD457R,0.04398X0.00031*%
%ADD458R,0.01046X0.00031*%
%ADD459R,0.01138X0.00031*%
%ADD460R,0.04522X0.00031*%
%ADD461R,0.01384X0.00031*%
%ADD462R,0.01354X0.00031*%
%ADD463R,0.04398X0.00031*%
%ADD464R,0.04644X0.00031*%
%ADD465R,0.01015X0.00031*%
%ADD466R,0.04706X0.00031*%
%ADD467R,0.04737X0.00031*%
%ADD468R,0.01138X0.00031*%
%ADD469R,0.04798X0.00031*%
%ADD470R,0.04829X0.00031*%
%ADD471R,0.04644X0.00031*%
%ADD472R,0.01384X0.00031*%
%ADD473R,0.04737X0.00031*%
%ADD474R,0.01999X0.00031*%
%ADD475R,0.01015X0.00031*%
%ADD476R,0.00554X0.00031*%
%ADD477R,0.01415X0.00031*%
%ADD478R,0.01138X0.00031*%
%ADD479R,0.02368X0.00031*%
%ADD480R,0.01322X0.00031*%
%ADD481R,0.01446X0.00031*%
%ADD482R,0.01322X0.00031*%
%ADD483R,0.01353X0.00031*%
%ADD484R,0.01015X0.00031*%
%ADD485R,0.01169X0.00031*%
%ADD486R,0.01845X0.00031*%
%ADD487R,0.01569X0.00031*%
%ADD488R,0.01784X0.00031*%
%ADD489R,0.01599X0.00031*%
%ADD490R,0.01569X0.00031*%
%ADD491R,0.01630X0.00031*%
%ADD492R,0.01691X0.00031*%
%ADD493R,0.01353X0.00031*%
%ADD494R,0.00769X0.00031*%
%ADD495R,0.03629X0.00031*%
%ADD496R,0.03752X0.00031*%
%ADD497R,0.03568X0.00031*%
%ADD498R,0.03660X0.00031*%
%ADD499R,0.03629X0.00031*%
%ADD500R,0.03598X0.00031*%
%ADD501R,0.03568X0.00031*%
%ADD502R,0.00892X0.00031*%
%ADD503R,0.03537X0.00031*%
%ADD504R,0.03383X0.00031*%
%ADD505R,0.01600X0.00031*%
%ADD506R,0.00892X0.00031*%
%ADD507R,0.01600X0.00031*%
%ADD508R,0.00861X0.00031*%
%ADD509R,0.03445X0.00031*%
%ADD510R,0.03414X0.00031*%
%ADD511R,0.01569X0.00031*%
%ADD512R,0.01569X0.00031*%
%ADD513R,0.03291X0.00031*%
%ADD514R,0.00830X0.00031*%
%ADD515R,0.02860X0.00031*%
%ADD516R,0.03137X0.00031*%
%ADD517R,0.02861X0.00031*%
%ADD518R,0.02830X0.00031*%
%ADD519R,0.00277X0.00031*%
%ADD520R,0.02522X0.00031*%
%ADD521R,0.02461X0.00031*%
%ADD522R,0.02337X0.00031*%
%ADD523R,0.01815X0.00031*%
%ADD524R,0.00861X0.00031*%
%ADD525R,0.00861X0.00031*%
%ADD526R,0.00308X0.00031*%
%ADD527R,0.00308X0.00031*%
%ADD528R,0.01538X0.00031*%
%ADD529R,0.00984X0.00031*%
%ADD530R,0.00830X0.00031*%
%ADD531R,0.00646X0.00031*%
%ADD532R,0.01937X0.00031*%
%ADD533R,0.00523X0.00031*%
%ADD534R,0.01937X0.00031*%
%ADD535R,0.00677X0.00031*%
%ADD536R,0.00461X0.00031*%
%ADD537R,0.01999X0.00031*%
%ADD538R,0.00861X0.00031*%
%ADD539R,0.01446X0.00031*%
%ADD540R,0.00892X0.00031*%
%ADD541R,0.04829X0.00031*%
%ADD542R,0.04798X0.00031*%
%ADD543R,0.04767X0.00031*%
%ADD544R,0.04767X0.00031*%
%ADD545R,0.04337X0.00031*%
%ADD546R,0.04460X0.00031*%
%ADD547R,0.04029X0.00031*%
%ADD548R,0.00861X0.00031*%
%ADD549R,0.04122X0.00031*%
%ADD550R,0.04245X0.00031*%
%ADD551R,0.04183X0.00031*%
%ADD552R,0.04152X0.00031*%
%ADD553R,0.04091X0.00031*%
%ADD554R,0.03660X0.00031*%
%ADD555R,0.03630X0.00031*%
%ADD556R,0.03691X0.00031*%
%ADD557R,0.03261X0.00031*%
%ADD558R,0.00339X0.00031*%
%ADD559R,0.03168X0.00031*%
%ADD560R,0.03106X0.00031*%
%ADD561R,0.00954X0.00031*%
%ADD562R,0.02399X0.00031*%
%ADD563R,0.02583X0.00031*%
%ADD564R,0.02522X0.00031*%
%ADD565R,0.02461X0.00031*%
%ADD566R,0.02399X0.00031*%
%ADD567R,0.00953X0.00031*%
%ADD568R,0.00400X0.00031*%
%ADD569R,0.00461X0.00031*%
%ADD570R,0.00800X0.00031*%
%ADD571R,0.01661X0.00031*%
%ADD572R,0.01661X0.00031*%
%ADD573R,0.00831X0.00031*%
%ADD574R,0.01661X0.00031*%
%ADD575R,0.00953X0.00031*%
%ADD576R,0.01507X0.00031*%
%ADD577R,0.00615X0.00031*%
%ADD578R,0.00676X0.00031*%
%ADD579R,0.00277X0.00031*%
%ADD580R,0.00800X0.00031*%
%ADD581R,0.00461X0.00031*%
%ADD582R,0.00585X0.00031*%
%ADD583R,0.00523X0.00031*%
%ADD584R,0.00523X0.00031*%
%ADD585R,0.00892X0.00031*%
%ADD586R,0.01138X0.00031*%
%ADD587R,0.01199X0.00031*%
%ADD588R,0.00861X0.00031*%
%ADD589R,0.00677X0.00031*%
%ADD590R,0.00831X0.00031*%
%ADD591R,0.00646X0.00031*%
%ADD592R,0.00676X0.00031*%
%ADD593R,0.00677X0.00031*%
%ADD594R,0.00400X0.00031*%
%ADD595R,0.00338X0.00031*%
%ADD596R,0.02491X0.00031*%
%ADD597R,0.02092X0.00031*%
%ADD598R,0.00400X0.00031*%
%ADD599R,0.01445X0.00031*%
%ADD600R,0.01445X0.00031*%
%ADD601R,0.02799X0.00031*%
%ADD602R,0.01445X0.00031*%
%ADD603R,0.02830X0.00031*%
%ADD604R,0.02922X0.00031*%
%ADD605R,0.02461X0.00031*%
%ADD606R,0.02553X0.00031*%
%ADD607R,0.00430X0.00031*%
%ADD608R,0.03015X0.00031*%
%ADD609R,0.00646X0.00031*%
%ADD610R,0.02369X0.00031*%
%ADD611R,0.00369X0.00031*%
%ADD612R,0.02614X0.00031*%
%ADD613R,0.02615X0.00031*%
%ADD614R,0.02707X0.00031*%
%ADD615R,0.02737X0.00031*%
%ADD616R,0.00308X0.00031*%
%ADD617R,0.03076X0.00031*%
%ADD618R,0.01322X0.00031*%
%ADD619R,0.03106X0.00031*%
%ADD620R,0.00307X0.00031*%
%ADD621R,0.03137X0.00031*%
%ADD622R,0.03137X0.00031*%
%ADD623R,0.03137X0.00031*%
%ADD624R,0.00369X0.00031*%
%ADD625R,0.02615X0.00031*%
%ADD626R,0.02368X0.00031*%
%ADD627R,0.03230X0.00031*%
%ADD628R,0.02799X0.00031*%
%ADD629R,0.02891X0.00031*%
%ADD630R,0.02769X0.00031*%
%ADD631R,0.03230X0.00031*%
%ADD632R,0.02707X0.00031*%
%ADD633R,0.03260X0.00031*%
%ADD634R,0.02614X0.00031*%
%ADD635R,0.00615X0.00031*%
%ADD636R,0.03291X0.00031*%
%ADD637R,0.03322X0.00031*%
%ADD638R,0.02553X0.00031*%
%ADD639R,0.05044X0.00031*%
%ADD640R,0.04952X0.00031*%
%ADD641R,0.04860X0.00031*%
%ADD642R,0.04337X0.00031*%
%ADD643R,0.04091X0.00031*%
%ADD644R,0.03260X0.00031*%
%ADD645R,0.03353X0.00031*%
%ADD646R,0.03476X0.00031*%
%ADD647R,0.03506X0.00031*%
%ADD648R,0.03414X0.00031*%
%ADD649R,0.02830X0.00031*%
%ADD650R,0.02645X0.00031*%
%ADD651R,0.02522X0.00031*%
%ADD652R,0.02368X0.00031*%
%ADD653R,0.00585X0.00031*%
%ADD654R,0.01292X0.00031*%
%ADD655R,0.00430X0.00031*%
D10*
X0142363Y0096882D02*
X0144002Y0096882D01*
X0143182Y0096882D02*
X0143182Y0099340D01*
X0144002Y0098521D01*
X0144901Y0099340D02*
X0146539Y0096882D01*
X0144901Y0096882D02*
X0146539Y0099340D01*
X0163666Y0106741D02*
X0164076Y0106331D01*
X0164895Y0106331D01*
X0165305Y0106741D01*
X0165305Y0107560D02*
X0164485Y0107970D01*
X0164076Y0107970D01*
X0163666Y0107560D01*
X0163666Y0106741D01*
X0165305Y0107560D02*
X0165305Y0108789D01*
X0163666Y0108789D01*
X0166203Y0108379D02*
X0166203Y0107560D01*
X0166613Y0107150D01*
X0167842Y0107150D01*
X0167842Y0106331D02*
X0167842Y0108789D01*
X0166613Y0108789D01*
X0166203Y0108379D01*
X0167023Y0107150D02*
X0166203Y0106331D01*
X0174835Y0099090D02*
X0174835Y0097451D01*
X0174835Y0098271D02*
X0177293Y0098271D01*
X0176474Y0097451D01*
X0176883Y0096552D02*
X0177293Y0096143D01*
X0177293Y0095323D01*
X0176883Y0094914D01*
X0175245Y0094914D01*
X0174835Y0095323D01*
X0174835Y0096143D01*
X0175245Y0096552D01*
X0181544Y0113024D02*
X0181134Y0113434D01*
X0181134Y0114253D01*
X0181544Y0114663D01*
X0181134Y0115562D02*
X0182773Y0117200D01*
X0183183Y0117200D01*
X0183592Y0116791D01*
X0183592Y0115971D01*
X0183183Y0115562D01*
X0183183Y0114663D02*
X0183592Y0114253D01*
X0183592Y0113434D01*
X0183183Y0113024D01*
X0181544Y0113024D01*
X0181134Y0115562D02*
X0181134Y0117200D01*
X0186851Y0127985D02*
X0188490Y0127985D01*
X0186851Y0129623D01*
X0186851Y0130033D01*
X0187261Y0130443D01*
X0188080Y0130443D01*
X0188490Y0130033D01*
X0189389Y0130033D02*
X0189389Y0129214D01*
X0189799Y0128804D01*
X0191028Y0128804D01*
X0191028Y0127985D02*
X0191028Y0130443D01*
X0189799Y0130443D01*
X0189389Y0130033D01*
X0190208Y0128804D02*
X0189389Y0127985D01*
X0196882Y0135524D02*
X0196882Y0136343D01*
X0197292Y0136753D01*
X0199340Y0136753D01*
X0198931Y0137652D02*
X0199340Y0138061D01*
X0199340Y0138881D01*
X0198931Y0139290D01*
X0198521Y0139290D01*
X0196882Y0137652D01*
X0196882Y0139290D01*
X0196882Y0135524D02*
X0197292Y0135114D01*
X0199340Y0135114D01*
X0210883Y0123750D02*
X0210473Y0123340D01*
X0210473Y0122930D01*
X0210883Y0122521D01*
X0210473Y0122111D01*
X0210473Y0121701D01*
X0210883Y0121292D01*
X0211702Y0121292D01*
X0212112Y0121701D01*
X0213011Y0121701D02*
X0213421Y0121292D01*
X0214240Y0121292D01*
X0214650Y0121701D01*
X0214650Y0123340D01*
X0214240Y0123750D01*
X0213421Y0123750D01*
X0213011Y0123340D01*
X0212112Y0123340D02*
X0211702Y0123750D01*
X0210883Y0123750D01*
X0210883Y0122521D02*
X0211293Y0122521D01*
X0217970Y0113120D02*
X0219199Y0111891D01*
X0217560Y0111891D01*
X0217970Y0110662D02*
X0217970Y0113120D01*
X0220098Y0112710D02*
X0220507Y0113120D01*
X0221327Y0113120D01*
X0221736Y0112710D01*
X0221736Y0111071D01*
X0221327Y0110662D01*
X0220507Y0110662D01*
X0220098Y0111071D01*
X0228000Y0093599D02*
X0228000Y0091130D01*
X0228000Y0092365D02*
X0231704Y0092365D01*
X0230469Y0091130D01*
X0231086Y0089916D02*
X0231704Y0089299D01*
X0231704Y0088065D01*
X0231086Y0087447D01*
X0230469Y0087447D01*
X0229852Y0088065D01*
X0229852Y0089299D01*
X0229235Y0089916D01*
X0228618Y0089916D01*
X0228000Y0089299D01*
X0228000Y0088065D01*
X0228618Y0087447D01*
X0228000Y0086233D02*
X0228000Y0083764D01*
X0231704Y0083764D01*
X0196343Y0089221D02*
X0195933Y0088811D01*
X0195114Y0088811D01*
X0194704Y0089221D01*
X0194704Y0091269D01*
X0193805Y0090450D02*
X0192986Y0091269D01*
X0192986Y0088811D01*
X0193805Y0088811D02*
X0192166Y0088811D01*
X0196343Y0089221D02*
X0196343Y0091269D01*
X0191073Y0075085D02*
X0188615Y0075085D01*
X0188615Y0074266D02*
X0188615Y0075905D01*
X0190253Y0074266D02*
X0191073Y0075085D01*
X0191073Y0073367D02*
X0188615Y0073367D01*
X0191073Y0071728D01*
X0188615Y0071728D01*
X0189024Y0070829D02*
X0190663Y0070829D01*
X0191073Y0070420D01*
X0191073Y0069600D01*
X0190663Y0069191D01*
X0189024Y0069191D01*
X0188615Y0069600D01*
X0188615Y0070420D01*
X0189024Y0070829D01*
X0189024Y0068292D02*
X0188615Y0067882D01*
X0188615Y0067063D01*
X0189024Y0066653D01*
X0190663Y0066653D01*
X0191073Y0067063D01*
X0191073Y0067882D01*
X0190663Y0068292D01*
X0151291Y0120111D02*
X0150471Y0120111D01*
X0150062Y0120520D01*
X0149163Y0120520D02*
X0148753Y0120111D01*
X0147934Y0120111D01*
X0147524Y0120520D01*
X0147524Y0120930D01*
X0147934Y0121340D01*
X0149163Y0121340D01*
X0149163Y0120520D01*
X0149163Y0121340D02*
X0148343Y0122159D01*
X0147524Y0122569D01*
X0150062Y0122159D02*
X0150471Y0122569D01*
X0151291Y0122569D01*
X0151700Y0122159D01*
X0151700Y0120520D01*
X0151291Y0120111D01*
X0178626Y0140189D02*
X0180265Y0140189D01*
X0179446Y0140189D02*
X0179446Y0142647D01*
X0180265Y0141828D01*
X0181164Y0141418D02*
X0181574Y0141009D01*
X0182803Y0141009D01*
X0181983Y0141009D02*
X0181164Y0140189D01*
X0181164Y0141418D02*
X0181164Y0142238D01*
X0181574Y0142647D01*
X0182803Y0142647D01*
X0182803Y0140189D01*
X0214847Y0146898D02*
X0215257Y0146489D01*
X0216076Y0146489D01*
X0216486Y0146898D01*
X0217385Y0146489D02*
X0218204Y0147308D01*
X0217794Y0147308D02*
X0219023Y0147308D01*
X0219023Y0146489D02*
X0219023Y0148947D01*
X0217794Y0148947D01*
X0217385Y0148537D01*
X0217385Y0147718D01*
X0217794Y0147308D01*
X0216486Y0148537D02*
X0216076Y0148947D01*
X0215257Y0148947D01*
X0214847Y0148537D01*
X0214847Y0148127D01*
X0215257Y0147718D01*
X0214847Y0147308D01*
X0214847Y0146898D01*
X0215257Y0147718D02*
X0215666Y0147718D01*
X0222284Y0137136D02*
X0223923Y0137136D01*
X0223923Y0135907D01*
X0223104Y0136316D01*
X0222694Y0136316D01*
X0222284Y0135907D01*
X0222284Y0135087D01*
X0222694Y0134678D01*
X0223513Y0134678D01*
X0223923Y0135087D01*
X0224822Y0135087D02*
X0225232Y0134678D01*
X0226051Y0134678D01*
X0226461Y0135087D01*
X0226461Y0136726D01*
X0226051Y0137136D01*
X0225232Y0137136D01*
X0224822Y0136726D01*
X0270008Y0172079D02*
X0271647Y0172079D01*
X0270827Y0172079D02*
X0270827Y0174537D01*
X0271647Y0173718D01*
X0272546Y0174127D02*
X0272955Y0174537D01*
X0274184Y0174537D01*
X0274184Y0172079D01*
X0272955Y0172079D01*
X0272546Y0172489D01*
X0272546Y0174127D01*
X0275083Y0173718D02*
X0275083Y0172079D01*
X0275083Y0173308D02*
X0276722Y0173308D01*
X0276722Y0173718D02*
X0275903Y0174537D01*
X0275083Y0173718D01*
X0276722Y0173718D02*
X0276722Y0172079D01*
X0277621Y0173308D02*
X0278030Y0172898D01*
X0279259Y0172898D01*
X0279259Y0172079D02*
X0279259Y0174537D01*
X0278030Y0174537D01*
X0277621Y0174127D01*
X0277621Y0173308D01*
X0305150Y0089641D02*
X0305150Y0088003D01*
X0305150Y0088822D02*
X0307608Y0088822D01*
X0306789Y0088003D01*
X0307198Y0087104D02*
X0305560Y0087104D01*
X0305150Y0086694D01*
X0305150Y0085875D01*
X0305560Y0085465D01*
X0307198Y0085465D01*
X0307608Y0085875D01*
X0307608Y0086694D01*
X0307198Y0087104D01*
X0305969Y0086284D02*
X0305150Y0087104D01*
X0296146Y0075718D02*
X0294917Y0075718D01*
X0294507Y0075309D01*
X0294507Y0074489D01*
X0294917Y0074080D01*
X0296146Y0074080D01*
X0295326Y0074080D02*
X0294507Y0073260D01*
X0293608Y0074489D02*
X0291969Y0074489D01*
X0292379Y0073260D02*
X0292379Y0075718D01*
X0293608Y0074489D01*
X0296146Y0073260D02*
X0296146Y0075718D01*
X0183984Y0252788D02*
X0182755Y0252788D01*
X0182345Y0253197D01*
X0182345Y0253607D01*
X0182755Y0254017D01*
X0183984Y0254017D01*
X0183984Y0255246D02*
X0182755Y0255246D01*
X0182345Y0254836D01*
X0182345Y0254426D01*
X0182755Y0254017D01*
X0181446Y0254017D02*
X0179808Y0254017D01*
X0179808Y0254426D02*
X0179808Y0252788D01*
X0181446Y0252788D02*
X0181446Y0254426D01*
X0180627Y0255246D01*
X0179808Y0254426D01*
X0178909Y0255246D02*
X0177270Y0255246D01*
X0178089Y0255246D02*
X0178089Y0252788D01*
X0176371Y0252788D02*
X0174732Y0252788D01*
X0175552Y0252788D02*
X0175552Y0255246D01*
X0176371Y0254426D01*
X0183984Y0255246D02*
X0183984Y0252788D01*
D11*
X0202278Y0137677D02*
X0202280Y0137724D01*
X0202286Y0137770D01*
X0202295Y0137816D01*
X0202309Y0137860D01*
X0202326Y0137904D01*
X0202347Y0137945D01*
X0202371Y0137985D01*
X0202398Y0138023D01*
X0202429Y0138058D01*
X0202462Y0138091D01*
X0202498Y0138121D01*
X0202537Y0138147D01*
X0202577Y0138171D01*
X0202619Y0138190D01*
X0202663Y0138207D01*
X0202708Y0138219D01*
X0202754Y0138228D01*
X0202800Y0138233D01*
X0202847Y0138234D01*
X0202893Y0138231D01*
X0202939Y0138224D01*
X0202985Y0138213D01*
X0203029Y0138199D01*
X0203072Y0138181D01*
X0203113Y0138159D01*
X0203153Y0138134D01*
X0203190Y0138106D01*
X0203225Y0138075D01*
X0203257Y0138041D01*
X0203286Y0138004D01*
X0203311Y0137966D01*
X0203334Y0137925D01*
X0203353Y0137882D01*
X0203368Y0137838D01*
X0203380Y0137793D01*
X0203388Y0137747D01*
X0203392Y0137700D01*
X0203392Y0137654D01*
X0203388Y0137607D01*
X0203380Y0137561D01*
X0203368Y0137516D01*
X0203353Y0137472D01*
X0203334Y0137429D01*
X0203311Y0137388D01*
X0203286Y0137350D01*
X0203257Y0137313D01*
X0203225Y0137279D01*
X0203190Y0137248D01*
X0203153Y0137220D01*
X0203114Y0137195D01*
X0203072Y0137173D01*
X0203029Y0137155D01*
X0202985Y0137141D01*
X0202939Y0137130D01*
X0202893Y0137123D01*
X0202847Y0137120D01*
X0202800Y0137121D01*
X0202754Y0137126D01*
X0202708Y0137135D01*
X0202663Y0137147D01*
X0202619Y0137164D01*
X0202577Y0137183D01*
X0202537Y0137207D01*
X0202498Y0137233D01*
X0202462Y0137263D01*
X0202429Y0137296D01*
X0202398Y0137331D01*
X0202371Y0137369D01*
X0202347Y0137409D01*
X0202326Y0137450D01*
X0202309Y0137494D01*
X0202295Y0137538D01*
X0202286Y0137584D01*
X0202280Y0137630D01*
X0202278Y0137677D01*
D12*
X0194685Y0100276D02*
X0194687Y0100319D01*
X0194693Y0100361D01*
X0194703Y0100403D01*
X0194716Y0100444D01*
X0194733Y0100484D01*
X0194754Y0100521D01*
X0194778Y0100557D01*
X0194805Y0100590D01*
X0194835Y0100621D01*
X0194868Y0100649D01*
X0194903Y0100674D01*
X0194940Y0100695D01*
X0194979Y0100713D01*
X0195019Y0100727D01*
X0195061Y0100738D01*
X0195103Y0100745D01*
X0195146Y0100748D01*
X0195189Y0100747D01*
X0195232Y0100742D01*
X0195274Y0100733D01*
X0195315Y0100721D01*
X0195355Y0100705D01*
X0195393Y0100685D01*
X0195429Y0100662D01*
X0195463Y0100635D01*
X0195495Y0100606D01*
X0195523Y0100574D01*
X0195549Y0100539D01*
X0195571Y0100503D01*
X0195590Y0100464D01*
X0195605Y0100424D01*
X0195617Y0100383D01*
X0195625Y0100340D01*
X0195629Y0100297D01*
X0195629Y0100255D01*
X0195625Y0100212D01*
X0195617Y0100169D01*
X0195605Y0100128D01*
X0195590Y0100088D01*
X0195571Y0100049D01*
X0195549Y0100013D01*
X0195523Y0099978D01*
X0195495Y0099946D01*
X0195463Y0099917D01*
X0195429Y0099890D01*
X0195393Y0099867D01*
X0195355Y0099847D01*
X0195315Y0099831D01*
X0195274Y0099819D01*
X0195232Y0099810D01*
X0195189Y0099805D01*
X0195146Y0099804D01*
X0195103Y0099807D01*
X0195061Y0099814D01*
X0195019Y0099825D01*
X0194979Y0099839D01*
X0194940Y0099857D01*
X0194903Y0099878D01*
X0194868Y0099903D01*
X0194835Y0099931D01*
X0194805Y0099962D01*
X0194778Y0099995D01*
X0194754Y0100031D01*
X0194733Y0100068D01*
X0194716Y0100108D01*
X0194703Y0100149D01*
X0194693Y0100191D01*
X0194687Y0100233D01*
X0194685Y0100276D01*
D13*
X0191614Y0153622D02*
X0171929Y0153622D01*
X0171441Y0153640D01*
X0170955Y0153669D01*
X0170469Y0153711D01*
X0169984Y0153764D01*
X0169500Y0153828D01*
X0169019Y0153905D01*
X0168539Y0153993D01*
X0168062Y0154092D01*
X0167587Y0154204D01*
X0167115Y0154326D01*
X0166646Y0154460D01*
X0166180Y0154605D01*
X0165718Y0154762D01*
X0165260Y0154929D01*
X0164806Y0155108D01*
X0164357Y0155297D01*
X0163912Y0155497D01*
X0163472Y0155708D01*
X0163038Y0155930D01*
X0162609Y0156162D01*
X0162185Y0156404D01*
X0161768Y0156657D01*
X0161357Y0156919D01*
X0160952Y0157191D01*
X0160554Y0157473D01*
X0160163Y0157765D01*
X0159779Y0158066D01*
X0159403Y0158376D01*
X0159034Y0158695D01*
X0158673Y0159023D01*
X0158320Y0159359D01*
X0157975Y0159704D01*
X0157639Y0160057D01*
X0157311Y0160419D01*
X0156992Y0160788D01*
X0156682Y0161164D01*
X0156381Y0161548D01*
X0156090Y0161939D01*
X0155808Y0162337D01*
X0155536Y0162742D01*
X0155274Y0163153D01*
X0155022Y0163571D01*
X0154780Y0163994D01*
X0154548Y0164423D01*
X0154326Y0164858D01*
X0154116Y0165298D01*
X0153916Y0165743D01*
X0153726Y0166192D01*
X0153548Y0166646D01*
X0153381Y0167104D01*
X0153224Y0167566D01*
X0153079Y0168032D01*
X0152946Y0168501D01*
X0152823Y0168973D01*
X0152713Y0169448D01*
X0152613Y0169926D01*
X0152525Y0170405D01*
X0152449Y0170887D01*
X0152385Y0171371D01*
X0152332Y0171855D01*
X0152291Y0172341D01*
X0152261Y0172828D01*
X0152244Y0173316D01*
X0152238Y0173803D01*
X0152244Y0174291D01*
X0158159Y0167112D02*
X0158932Y0166384D01*
X0159720Y0165674D01*
X0160523Y0164981D01*
X0161342Y0164306D01*
X0146885Y0183814D02*
X0146499Y0184802D01*
X0146135Y0185799D01*
X0145793Y0186804D01*
X0145473Y0187815D01*
X0143433Y0199728D02*
X0143398Y0200789D01*
X0143386Y0201850D01*
X0143398Y0202911D01*
X0143433Y0203972D01*
X0152244Y0229410D02*
X0152238Y0229898D01*
X0152244Y0230385D01*
X0152261Y0230873D01*
X0152291Y0231360D01*
X0152332Y0231846D01*
X0152385Y0232330D01*
X0152449Y0232814D01*
X0152525Y0233296D01*
X0152613Y0233775D01*
X0152713Y0234253D01*
X0152823Y0234728D01*
X0152946Y0235200D01*
X0153079Y0235669D01*
X0153224Y0236135D01*
X0153381Y0236597D01*
X0153548Y0237055D01*
X0153726Y0237509D01*
X0153916Y0237958D01*
X0154116Y0238403D01*
X0154326Y0238843D01*
X0154548Y0239278D01*
X0154780Y0239707D01*
X0155022Y0240130D01*
X0155274Y0240548D01*
X0155536Y0240959D01*
X0155808Y0241364D01*
X0156090Y0241762D01*
X0156381Y0242153D01*
X0156682Y0242537D01*
X0156992Y0242913D01*
X0157311Y0243282D01*
X0157639Y0243644D01*
X0157975Y0243997D01*
X0158320Y0244342D01*
X0158673Y0244678D01*
X0159034Y0245006D01*
X0159403Y0245325D01*
X0159779Y0245635D01*
X0160163Y0245936D01*
X0160554Y0246228D01*
X0160952Y0246510D01*
X0161357Y0246782D01*
X0161768Y0247044D01*
X0162185Y0247297D01*
X0162609Y0247539D01*
X0163038Y0247771D01*
X0163472Y0247993D01*
X0163912Y0248204D01*
X0164357Y0248404D01*
X0164806Y0248593D01*
X0165260Y0248772D01*
X0165718Y0248939D01*
X0166180Y0249096D01*
X0166646Y0249241D01*
X0167115Y0249375D01*
X0167587Y0249497D01*
X0168062Y0249609D01*
X0168539Y0249708D01*
X0169019Y0249796D01*
X0169500Y0249873D01*
X0169984Y0249937D01*
X0170469Y0249990D01*
X0170955Y0250032D01*
X0171441Y0250061D01*
X0171929Y0250079D01*
X0191614Y0250079D01*
X0146885Y0219886D02*
X0146499Y0218898D01*
X0146135Y0217901D01*
X0145793Y0216896D01*
X0145473Y0215885D01*
X0158159Y0236588D02*
X0158932Y0237316D01*
X0159720Y0238026D01*
X0160523Y0238719D01*
X0161342Y0239394D01*
X0187375Y0153809D02*
X0188433Y0153727D01*
X0189492Y0153669D01*
X0190553Y0153634D01*
X0191614Y0153622D01*
X0179325Y0248486D02*
X0180354Y0248745D01*
X0181388Y0248981D01*
X0182428Y0249195D01*
X0183472Y0249386D01*
X0179325Y0155214D02*
X0180354Y0154955D01*
X0181388Y0154719D01*
X0182428Y0154505D01*
X0183472Y0154314D01*
X0164504Y0241737D02*
X0165388Y0242324D01*
X0166285Y0242891D01*
X0167194Y0243439D01*
X0168115Y0243966D01*
X0164504Y0161963D02*
X0165388Y0161376D01*
X0166285Y0160809D01*
X0167194Y0160261D01*
X0168115Y0159734D01*
X0155438Y0169956D02*
X0154745Y0170759D01*
X0154070Y0171578D01*
X0153413Y0172411D01*
X0152775Y0173259D01*
X0187375Y0249891D02*
X0188433Y0249973D01*
X0189492Y0250031D01*
X0190553Y0250066D01*
X0191614Y0250078D01*
X0148505Y0180227D02*
X0148991Y0179284D01*
X0149498Y0178351D01*
X0150025Y0177430D01*
X0150573Y0176521D01*
X0171628Y0157958D02*
X0172598Y0157529D01*
X0173578Y0157122D01*
X0174566Y0156736D01*
X0175563Y0156371D01*
X0148505Y0223473D02*
X0148991Y0224416D01*
X0149498Y0225349D01*
X0150025Y0226270D01*
X0150573Y0227179D01*
X0152775Y0230441D02*
X0153413Y0231289D01*
X0154070Y0232122D01*
X0154745Y0232941D01*
X0155438Y0233744D01*
X0171628Y0245742D02*
X0172598Y0246171D01*
X0173578Y0246578D01*
X0174566Y0246964D01*
X0175563Y0247329D01*
X0144483Y0212076D02*
X0144269Y0211036D01*
X0144078Y0209992D01*
X0143911Y0208945D01*
X0143766Y0207893D01*
X0143766Y0195807D02*
X0143911Y0194755D01*
X0144078Y0193708D01*
X0144269Y0192664D01*
X0144483Y0191624D01*
X0191614Y0153621D02*
X0192792Y0153631D01*
X0193969Y0153670D01*
X0195144Y0153737D01*
X0196318Y0153833D01*
X0197489Y0153957D01*
X0198656Y0154110D01*
X0199820Y0154292D01*
X0200978Y0154501D01*
X0202131Y0154739D01*
X0203278Y0155006D01*
X0204418Y0155300D01*
X0205551Y0155621D01*
X0206676Y0155971D01*
X0207791Y0156347D01*
X0208897Y0156751D01*
X0209993Y0157182D01*
X0211078Y0157639D01*
X0212152Y0158123D01*
X0213213Y0158633D01*
X0214262Y0159168D01*
X0215297Y0159729D01*
X0216318Y0160315D01*
X0217325Y0160926D01*
X0218316Y0161561D01*
X0219292Y0162220D01*
X0220251Y0162903D01*
X0221194Y0163609D01*
X0222118Y0164338D01*
X0223025Y0165089D01*
X0223913Y0165862D01*
X0224782Y0166657D01*
X0225631Y0167473D01*
X0226461Y0168309D01*
X0227269Y0169165D01*
X0228056Y0170040D01*
X0228822Y0170935D01*
X0229566Y0171847D01*
X0230287Y0172778D01*
X0230985Y0173726D01*
X0231660Y0174691D01*
X0232311Y0175672D01*
X0232938Y0176669D01*
X0233541Y0177680D01*
X0234118Y0178707D01*
X0234671Y0179746D01*
X0235198Y0180799D01*
X0235698Y0181865D01*
X0236173Y0182943D01*
X0236622Y0184031D01*
X0237043Y0185131D01*
X0237438Y0186240D01*
X0237805Y0187359D01*
X0238145Y0188486D01*
X0238458Y0189621D01*
X0238743Y0190764D01*
X0238999Y0191913D01*
X0239228Y0193068D01*
X0239428Y0194228D01*
X0239600Y0195393D01*
X0239743Y0196562D01*
X0239858Y0197734D01*
X0239944Y0198908D01*
X0240002Y0200084D01*
X0240030Y0201261D01*
X0240030Y0202439D01*
X0240002Y0203616D01*
X0239944Y0204792D01*
X0239858Y0205966D01*
X0239743Y0207138D01*
X0239600Y0208307D01*
X0239428Y0209472D01*
X0239228Y0210632D01*
X0238999Y0211787D01*
X0238743Y0212936D01*
X0238458Y0214079D01*
X0238145Y0215214D01*
X0237805Y0216341D01*
X0237438Y0217460D01*
X0237043Y0218569D01*
X0236622Y0219669D01*
X0236173Y0220757D01*
X0235698Y0221835D01*
X0235198Y0222901D01*
X0234671Y0223954D01*
X0234118Y0224993D01*
X0233541Y0226020D01*
X0232938Y0227031D01*
X0232311Y0228028D01*
X0231660Y0229009D01*
X0230985Y0229974D01*
X0230287Y0230922D01*
X0229566Y0231853D01*
X0228822Y0232765D01*
X0228056Y0233660D01*
X0227269Y0234535D01*
X0226461Y0235391D01*
X0225631Y0236227D01*
X0224782Y0237043D01*
X0223913Y0237838D01*
X0223025Y0238611D01*
X0222118Y0239362D01*
X0221194Y0240091D01*
X0220251Y0240797D01*
X0219292Y0241480D01*
X0218316Y0242139D01*
X0217325Y0242774D01*
X0216318Y0243385D01*
X0215297Y0243971D01*
X0214262Y0244532D01*
X0213213Y0245067D01*
X0212152Y0245577D01*
X0211078Y0246061D01*
X0209993Y0246518D01*
X0208897Y0246949D01*
X0207791Y0247353D01*
X0206676Y0247729D01*
X0205551Y0248079D01*
X0204418Y0248400D01*
X0203278Y0248694D01*
X0202131Y0248961D01*
X0200978Y0249199D01*
X0199820Y0249408D01*
X0198656Y0249590D01*
X0197489Y0249743D01*
X0196318Y0249867D01*
X0195144Y0249963D01*
X0193969Y0250030D01*
X0192792Y0250069D01*
X0191614Y0250079D01*
D14*
X0161988Y0214200D02*
X0161622Y0214200D01*
X0160888Y0213466D01*
X0159787Y0213466D01*
X0160888Y0213466D02*
X0161622Y0212733D01*
X0161988Y0212733D01*
X0161622Y0211991D02*
X0160888Y0211991D01*
X0160521Y0211624D01*
X0160521Y0210523D01*
X0160521Y0211257D02*
X0159787Y0211991D01*
X0159787Y0210523D02*
X0161988Y0210523D01*
X0161988Y0211624D01*
X0161622Y0211991D01*
X0161988Y0209781D02*
X0161988Y0208313D01*
X0159787Y0208313D01*
X0159787Y0209781D01*
X0160888Y0209047D02*
X0160888Y0208313D01*
X0161988Y0207571D02*
X0161988Y0206103D01*
X0161988Y0206837D02*
X0159787Y0206837D01*
X0159787Y0204627D02*
X0161988Y0204627D01*
X0161988Y0203893D02*
X0161988Y0205361D01*
X0161255Y0203151D02*
X0159787Y0203151D01*
X0160888Y0203151D02*
X0160888Y0201683D01*
X0161255Y0201683D02*
X0161988Y0202417D01*
X0161255Y0203151D01*
X0161255Y0201683D02*
X0159787Y0201683D01*
X0160154Y0200941D02*
X0159787Y0200574D01*
X0159787Y0199473D01*
X0161988Y0199473D01*
X0161988Y0200574D01*
X0161622Y0200941D01*
X0161255Y0200941D01*
X0160888Y0200574D01*
X0160888Y0199473D01*
X0160888Y0200574D02*
X0160521Y0200941D01*
X0160154Y0200941D01*
X0161988Y0196521D02*
X0161988Y0195053D01*
X0161988Y0195787D02*
X0159787Y0195787D01*
X0159787Y0194312D02*
X0160521Y0193578D01*
X0160521Y0193945D02*
X0160521Y0192844D01*
X0159787Y0192844D02*
X0161988Y0192844D01*
X0161988Y0193945D01*
X0161622Y0194312D01*
X0160888Y0194312D01*
X0160521Y0193945D01*
X0159787Y0192102D02*
X0159787Y0190634D01*
X0161988Y0190634D01*
X0161988Y0192102D01*
X0160888Y0191368D02*
X0160888Y0190634D01*
X0160521Y0189892D02*
X0160154Y0189892D01*
X0159787Y0189525D01*
X0159787Y0188791D01*
X0160154Y0188424D01*
X0160888Y0188791D02*
X0160888Y0189525D01*
X0160521Y0189892D01*
X0161622Y0189892D02*
X0161988Y0189525D01*
X0161988Y0188791D01*
X0161622Y0188424D01*
X0161255Y0188424D01*
X0160888Y0188791D01*
X0159787Y0187682D02*
X0161988Y0187682D01*
X0161988Y0186214D02*
X0159787Y0187682D01*
X0159787Y0186214D02*
X0161988Y0186214D01*
X0161988Y0185475D02*
X0161988Y0184741D01*
X0161988Y0185108D02*
X0159787Y0185108D01*
X0159787Y0184741D02*
X0159787Y0185475D01*
D15*
X0205326Y0268823D03*
X0203511Y0293121D03*
D16*
X0203634Y0293183D03*
X0203665Y0293183D03*
X0203819Y0293121D03*
X0203850Y0293121D03*
X0204004Y0293060D03*
X0204034Y0293060D03*
X0204219Y0292998D03*
X0204250Y0292998D03*
X0204465Y0292937D03*
X0204619Y0292875D03*
X0204649Y0292875D03*
X0204803Y0292814D03*
X0204834Y0292814D03*
X0205019Y0292752D03*
X0205049Y0292752D03*
X0205080Y0292629D03*
X0205234Y0292691D03*
X0205265Y0292691D03*
X0205449Y0292629D03*
X0205633Y0292568D03*
X0205818Y0292506D03*
X0205849Y0292506D03*
X0206003Y0292445D03*
X0206033Y0292445D03*
X0206218Y0292383D03*
X0206249Y0292383D03*
X0206433Y0292322D03*
X0206618Y0292260D03*
X0206833Y0292199D03*
X0206864Y0292199D03*
X0207018Y0292137D03*
X0207048Y0292137D03*
X0207233Y0292076D03*
X0207264Y0292076D03*
X0207418Y0292014D03*
X0207448Y0292014D03*
X0207664Y0291952D03*
X0207817Y0291891D03*
X0207848Y0291891D03*
X0208033Y0291829D03*
X0208063Y0291829D03*
X0208217Y0291768D03*
X0208248Y0291768D03*
X0208279Y0291645D03*
X0208433Y0291706D03*
X0208463Y0291706D03*
X0208648Y0291645D03*
X0208832Y0291583D03*
X0209017Y0291522D03*
X0209048Y0291522D03*
X0209202Y0291460D03*
X0209232Y0291460D03*
X0209417Y0291399D03*
X0209448Y0291399D03*
X0209632Y0291337D03*
X0209663Y0291337D03*
X0209694Y0291214D03*
X0209817Y0291276D03*
X0210032Y0291214D03*
X0210063Y0291214D03*
X0210217Y0291153D03*
X0210247Y0291153D03*
X0210401Y0291091D03*
X0210432Y0291091D03*
X0210617Y0291030D03*
X0210647Y0291030D03*
X0210863Y0290968D03*
X0211016Y0290907D03*
X0211047Y0290907D03*
X0211201Y0290845D03*
X0211231Y0290845D03*
X0211416Y0290784D03*
X0211447Y0290784D03*
X0211478Y0290661D03*
X0211631Y0290722D03*
X0211662Y0290722D03*
X0211847Y0290661D03*
X0212031Y0290599D03*
X0212216Y0290538D03*
X0212246Y0290538D03*
X0212431Y0290476D03*
X0212462Y0290476D03*
X0212616Y0290415D03*
X0212646Y0290415D03*
X0212831Y0290353D03*
X0212862Y0290353D03*
X0212893Y0290230D03*
X0213015Y0290292D03*
X0213231Y0290230D03*
X0213261Y0290230D03*
X0213415Y0290169D03*
X0213446Y0290169D03*
X0213600Y0290107D03*
X0213631Y0290107D03*
X0213815Y0290046D03*
X0213846Y0290046D03*
X0214061Y0289984D03*
X0214215Y0289922D03*
X0214246Y0289922D03*
X0214430Y0289861D03*
X0214461Y0289861D03*
X0214584Y0289799D03*
X0214615Y0289799D03*
X0214738Y0289738D03*
X0214861Y0289676D03*
X0214892Y0289676D03*
X0214984Y0289615D03*
X0215076Y0289553D03*
X0215107Y0289553D03*
X0215199Y0289492D03*
X0215230Y0289492D03*
X0215292Y0289430D03*
X0215322Y0289430D03*
X0215353Y0289369D03*
X0215384Y0289369D03*
X0215445Y0289307D03*
X0215476Y0289307D03*
X0215538Y0289246D03*
X0215569Y0289246D03*
X0215599Y0289184D03*
X0215630Y0289184D03*
X0215691Y0289123D03*
X0215722Y0289123D03*
X0215784Y0289061D03*
X0215815Y0289000D03*
X0215845Y0289000D03*
X0215876Y0288938D03*
X0215907Y0288938D03*
X0215937Y0288877D03*
X0215968Y0288877D03*
X0216030Y0288815D03*
X0216061Y0288754D03*
X0216091Y0288754D03*
X0216122Y0288692D03*
X0216153Y0288631D03*
X0216183Y0288631D03*
X0216214Y0288569D03*
X0216276Y0288508D03*
X0216307Y0288446D03*
X0216337Y0288446D03*
X0216368Y0288385D03*
X0216399Y0288323D03*
X0216430Y0288323D03*
X0216460Y0288262D03*
X0216522Y0288139D03*
X0216553Y0288139D03*
X0216583Y0288077D03*
X0216614Y0288015D03*
X0216645Y0287954D03*
X0216676Y0287892D03*
X0216706Y0287831D03*
X0216768Y0287708D03*
X0216799Y0287646D03*
X0216830Y0287523D03*
X0216860Y0287462D03*
X0216891Y0287400D03*
X0216922Y0287277D03*
X0216952Y0287216D03*
X0217014Y0287031D03*
X0217045Y0286970D03*
X0217076Y0286847D03*
X0217106Y0286785D03*
X0217137Y0286724D03*
X0217168Y0286601D03*
X0217198Y0286539D03*
X0217260Y0286355D03*
X0217291Y0286293D03*
X0217322Y0286170D03*
X0217352Y0286109D03*
X0217383Y0286047D03*
X0217414Y0285924D03*
X0217444Y0285862D03*
X0217506Y0285678D03*
X0217537Y0285616D03*
X0217568Y0285493D03*
X0217598Y0285432D03*
X0217629Y0285370D03*
X0217660Y0285247D03*
X0217691Y0285186D03*
X0217752Y0285001D03*
X0217783Y0284940D03*
X0217814Y0284878D03*
X0217844Y0284755D03*
X0217875Y0284694D03*
X0217906Y0284571D03*
X0217937Y0284509D03*
X0217998Y0284325D03*
X0218029Y0284263D03*
X0218060Y0284202D03*
X0218091Y0284078D03*
X0218121Y0284017D03*
X0218152Y0283955D03*
X0218183Y0283832D03*
X0218244Y0283648D03*
X0218275Y0283586D03*
X0218306Y0283525D03*
X0218337Y0283402D03*
X0218367Y0283340D03*
X0218398Y0283279D03*
X0218429Y0283156D03*
X0218491Y0282971D03*
X0218521Y0282910D03*
X0218552Y0282848D03*
X0218583Y0282725D03*
X0218613Y0282664D03*
X0218644Y0282602D03*
X0218675Y0282479D03*
X0218737Y0282356D03*
X0218767Y0282233D03*
X0218798Y0282172D03*
X0218829Y0282048D03*
X0218859Y0281987D03*
X0218890Y0281925D03*
X0218921Y0281802D03*
X0218983Y0281679D03*
X0219013Y0281556D03*
X0219044Y0281495D03*
X0219075Y0281372D03*
X0219106Y0281310D03*
X0219136Y0281249D03*
X0219167Y0281126D03*
X0219229Y0281003D03*
X0219259Y0280880D03*
X0219290Y0280818D03*
X0219321Y0280695D03*
X0219352Y0280634D03*
X0219382Y0280572D03*
X0219413Y0280449D03*
X0219475Y0280326D03*
X0219506Y0280203D03*
X0219536Y0280141D03*
X0219567Y0280080D03*
X0219598Y0279957D03*
X0219628Y0279895D03*
X0219659Y0279834D03*
X0219721Y0279649D03*
X0219752Y0279526D03*
X0219782Y0279465D03*
X0219813Y0279403D03*
X0219844Y0279280D03*
X0219874Y0279219D03*
X0219905Y0279157D03*
X0219967Y0278973D03*
X0219998Y0278850D03*
X0220028Y0278788D03*
X0220059Y0278727D03*
X0220090Y0278604D03*
X0220120Y0278542D03*
X0220151Y0278481D03*
X0220213Y0278296D03*
X0220244Y0278234D03*
X0220151Y0278173D03*
X0220274Y0278111D03*
X0220305Y0278050D03*
X0220336Y0277927D03*
X0220367Y0277865D03*
X0220397Y0277804D03*
X0220459Y0277619D03*
X0220490Y0277558D03*
X0220520Y0277435D03*
X0220551Y0277373D03*
X0220582Y0277250D03*
X0220613Y0277189D03*
X0220643Y0277127D03*
X0220705Y0276943D03*
X0220736Y0276881D03*
X0220767Y0276758D03*
X0220797Y0276697D03*
X0220828Y0276635D03*
X0220859Y0276512D03*
X0220889Y0276451D03*
X0220951Y0276266D03*
X0220982Y0276204D03*
X0221013Y0276081D03*
X0221043Y0276020D03*
X0221074Y0275958D03*
X0221105Y0275835D03*
X0221135Y0275774D03*
X0221197Y0275589D03*
X0221228Y0275528D03*
X0221259Y0275405D03*
X0221289Y0275343D03*
X0221320Y0275220D03*
X0221351Y0275159D03*
X0221381Y0275036D03*
X0221197Y0275159D03*
X0221197Y0275220D03*
X0221443Y0274790D03*
X0221474Y0274605D03*
X0221505Y0274297D03*
X0221505Y0273990D03*
X0221474Y0273744D03*
X0221443Y0273621D03*
X0221381Y0273436D03*
X0221351Y0273375D03*
X0221320Y0273313D03*
X0221289Y0273252D03*
X0221259Y0273190D03*
X0221228Y0273129D03*
X0221197Y0273129D03*
X0221135Y0273190D03*
X0221135Y0273067D03*
X0221105Y0273006D03*
X0221074Y0273006D03*
X0221043Y0272944D03*
X0221013Y0272944D03*
X0220951Y0272883D03*
X0220828Y0272821D03*
X0220797Y0272821D03*
X0220643Y0272760D03*
X0220613Y0272760D03*
X0219967Y0272760D03*
X0219352Y0272821D03*
X0219321Y0272821D03*
X0218737Y0272883D03*
X0218244Y0273006D03*
X0218275Y0273129D03*
X0218306Y0273252D03*
X0218337Y0273375D03*
X0218367Y0273559D03*
X0218367Y0273990D03*
X0218337Y0274236D03*
X0218306Y0274421D03*
X0218275Y0274544D03*
X0218552Y0274605D03*
X0218583Y0274605D03*
X0219044Y0274544D03*
X0219075Y0274544D03*
X0219536Y0274482D03*
X0219567Y0274482D03*
X0219752Y0274482D03*
X0219782Y0274482D03*
X0219905Y0274544D03*
X0219998Y0274605D03*
X0220028Y0274605D03*
X0220059Y0274667D03*
X0220090Y0274728D03*
X0220120Y0274790D03*
X0220151Y0274851D03*
X0220151Y0275282D03*
X0220120Y0275466D03*
X0220090Y0275528D03*
X0220059Y0275651D03*
X0220028Y0275712D03*
X0219998Y0275835D03*
X0219967Y0275897D03*
X0219905Y0276081D03*
X0219874Y0276143D03*
X0219844Y0276266D03*
X0219813Y0276327D03*
X0219782Y0276451D03*
X0219752Y0276512D03*
X0219721Y0276635D03*
X0219659Y0276758D03*
X0219628Y0276881D03*
X0219598Y0276943D03*
X0219567Y0277066D03*
X0219536Y0277127D03*
X0219506Y0277250D03*
X0219475Y0277312D03*
X0219413Y0277496D03*
X0219382Y0277558D03*
X0219352Y0277681D03*
X0219321Y0277742D03*
X0219290Y0277865D03*
X0219259Y0277927D03*
X0219229Y0278050D03*
X0219167Y0278173D03*
X0219136Y0278296D03*
X0219106Y0278358D03*
X0219075Y0278481D03*
X0219044Y0278542D03*
X0219013Y0278665D03*
X0218983Y0278727D03*
X0218921Y0278911D03*
X0218890Y0278973D03*
X0218859Y0279096D03*
X0218829Y0279157D03*
X0218798Y0279280D03*
X0218767Y0279342D03*
X0218737Y0279403D03*
X0218675Y0279588D03*
X0218644Y0279711D03*
X0218613Y0279772D03*
X0218583Y0279895D03*
X0218552Y0279957D03*
X0218521Y0280080D03*
X0218491Y0280141D03*
X0218429Y0280326D03*
X0218398Y0280388D03*
X0218367Y0280511D03*
X0218337Y0280572D03*
X0218306Y0280695D03*
X0218275Y0280757D03*
X0218244Y0280818D03*
X0218183Y0281003D03*
X0218152Y0281126D03*
X0218121Y0281187D03*
X0218091Y0281310D03*
X0218060Y0281372D03*
X0218029Y0281495D03*
X0217998Y0281556D03*
X0217937Y0281741D03*
X0217906Y0281802D03*
X0217875Y0281925D03*
X0217844Y0281987D03*
X0217814Y0282110D03*
X0217783Y0282172D03*
X0217752Y0282233D03*
X0217691Y0282418D03*
X0217660Y0282541D03*
X0217629Y0282602D03*
X0217598Y0282725D03*
X0217568Y0282787D03*
X0217537Y0282848D03*
X0217506Y0282971D03*
X0217444Y0283156D03*
X0217414Y0283217D03*
X0217537Y0283217D03*
X0217383Y0283340D03*
X0217352Y0283402D03*
X0217322Y0283525D03*
X0217291Y0283586D03*
X0217260Y0283648D03*
X0217198Y0283832D03*
X0217168Y0283955D03*
X0217137Y0284017D03*
X0217106Y0284140D03*
X0217076Y0284202D03*
X0217045Y0284263D03*
X0217014Y0284386D03*
X0216952Y0284571D03*
X0216922Y0284632D03*
X0216891Y0284755D03*
X0216860Y0284817D03*
X0216830Y0284940D03*
X0216799Y0285001D03*
X0216768Y0285063D03*
X0216706Y0285247D03*
X0216676Y0285370D03*
X0216645Y0285432D03*
X0216614Y0285555D03*
X0216583Y0285616D03*
X0216553Y0285678D03*
X0216522Y0285801D03*
X0216460Y0285985D03*
X0216430Y0286047D03*
X0216399Y0286170D03*
X0216368Y0286232D03*
X0216337Y0286293D03*
X0216307Y0286416D03*
X0216276Y0286478D03*
X0216214Y0286662D03*
X0216183Y0286785D03*
X0216153Y0286847D03*
X0216122Y0286970D03*
X0216091Y0287031D03*
X0216061Y0287093D03*
X0216030Y0287216D03*
X0215968Y0287400D03*
X0215907Y0287585D03*
X0215876Y0287646D03*
X0215845Y0287708D03*
X0215815Y0287831D03*
X0215784Y0287892D03*
X0215722Y0288015D03*
X0215691Y0288077D03*
X0215661Y0288139D03*
X0215630Y0288200D03*
X0215599Y0288200D03*
X0215569Y0288262D03*
X0215538Y0288323D03*
X0215476Y0288385D03*
X0215445Y0288385D03*
X0215415Y0288446D03*
X0215384Y0288446D03*
X0215353Y0288508D03*
X0215322Y0288508D03*
X0215292Y0288569D03*
X0215199Y0288631D03*
X0215169Y0288631D03*
X0215107Y0288692D03*
X0215076Y0288692D03*
X0214984Y0288754D03*
X0214892Y0288815D03*
X0214861Y0288815D03*
X0214676Y0288877D03*
X0214646Y0288877D03*
X0214492Y0288938D03*
X0214461Y0288938D03*
X0214246Y0289000D03*
X0214061Y0289061D03*
X0213846Y0289123D03*
X0213815Y0289123D03*
X0213631Y0289184D03*
X0213600Y0289184D03*
X0213446Y0289246D03*
X0213415Y0289246D03*
X0213231Y0289307D03*
X0213200Y0289307D03*
X0213015Y0289369D03*
X0212985Y0289369D03*
X0212893Y0289553D03*
X0212769Y0289430D03*
X0212616Y0289492D03*
X0212585Y0289492D03*
X0212400Y0289553D03*
X0212370Y0289553D03*
X0212185Y0289615D03*
X0212154Y0289615D03*
X0212000Y0289676D03*
X0211970Y0289676D03*
X0211785Y0289738D03*
X0211754Y0289738D03*
X0211539Y0289799D03*
X0211355Y0289861D03*
X0211139Y0289922D03*
X0211109Y0289922D03*
X0210955Y0289984D03*
X0210924Y0289984D03*
X0210739Y0290046D03*
X0210709Y0290046D03*
X0210524Y0290107D03*
X0210493Y0290107D03*
X0210309Y0290169D03*
X0210278Y0290169D03*
X0210124Y0290230D03*
X0209909Y0290292D03*
X0209878Y0290292D03*
X0209694Y0290353D03*
X0209663Y0290353D03*
X0209478Y0290415D03*
X0209448Y0290415D03*
X0209294Y0290476D03*
X0209263Y0290476D03*
X0209078Y0290538D03*
X0209048Y0290538D03*
X0208832Y0290599D03*
X0208648Y0290661D03*
X0208463Y0290722D03*
X0208433Y0290722D03*
X0208248Y0290784D03*
X0208217Y0290784D03*
X0208033Y0290845D03*
X0208002Y0290845D03*
X0207817Y0290907D03*
X0207787Y0290907D03*
X0207602Y0290968D03*
X0207418Y0291030D03*
X0207202Y0291091D03*
X0207172Y0291091D03*
X0206987Y0291153D03*
X0206956Y0291153D03*
X0206802Y0291214D03*
X0206772Y0291214D03*
X0206587Y0291276D03*
X0206556Y0291276D03*
X0206372Y0291337D03*
X0206341Y0291337D03*
X0206126Y0291399D03*
X0206095Y0291522D03*
X0205972Y0291460D03*
X0205941Y0291460D03*
X0205757Y0291522D03*
X0205726Y0291522D03*
X0205541Y0291583D03*
X0205511Y0291583D03*
X0205326Y0291645D03*
X0205295Y0291645D03*
X0205141Y0291706D03*
X0205111Y0291706D03*
X0204895Y0291768D03*
X0204711Y0291829D03*
X0204496Y0291891D03*
X0204465Y0291891D03*
X0204557Y0292014D03*
X0204311Y0291952D03*
X0204280Y0291952D03*
X0204096Y0292014D03*
X0204065Y0292014D03*
X0203880Y0292076D03*
X0203850Y0292076D03*
X0203665Y0292137D03*
X0203634Y0292137D03*
X0203081Y0292137D03*
X0203050Y0292137D03*
X0202927Y0292076D03*
X0202896Y0292014D03*
X0202865Y0292014D03*
X0202835Y0291952D03*
X0202804Y0291952D03*
X0202773Y0291829D03*
X0202773Y0291337D03*
X0202804Y0291091D03*
X0202835Y0290784D03*
X0202865Y0290476D03*
X0202896Y0290169D03*
X0202927Y0289861D03*
X0202989Y0289307D03*
X0203019Y0289000D03*
X0203050Y0288754D03*
X0203081Y0288446D03*
X0203111Y0288139D03*
X0203142Y0287831D03*
X0203173Y0287585D03*
X0203111Y0287093D03*
X0203050Y0287093D03*
X0202927Y0286970D03*
X0202681Y0287031D03*
X0202435Y0287093D03*
X0202404Y0287093D03*
X0202189Y0287154D03*
X0202158Y0287154D03*
X0201912Y0287216D03*
X0201881Y0287216D03*
X0201666Y0287277D03*
X0201635Y0287585D03*
X0201604Y0288015D03*
X0201574Y0288446D03*
X0201543Y0288877D03*
X0201512Y0289307D03*
X0201450Y0290169D03*
X0201420Y0290661D03*
X0201389Y0291030D03*
X0201358Y0291522D03*
X0201328Y0291952D03*
X0201328Y0292322D03*
X0201358Y0292506D03*
X0201389Y0292568D03*
X0201420Y0292629D03*
X0201450Y0292691D03*
X0201512Y0292814D03*
X0201543Y0292875D03*
X0201574Y0292875D03*
X0201604Y0292937D03*
X0201635Y0292998D03*
X0201666Y0292998D03*
X0201758Y0293060D03*
X0201820Y0293121D03*
X0201850Y0293121D03*
X0201912Y0293183D03*
X0201943Y0293183D03*
X0202066Y0293244D03*
X0202096Y0293244D03*
X0202250Y0293306D03*
X0202281Y0293306D03*
X0203142Y0293306D03*
X0203173Y0293306D03*
X0203419Y0293244D03*
X0201574Y0292629D03*
X0203235Y0286970D03*
X0203235Y0286908D03*
X0202743Y0285309D03*
X0202989Y0285247D03*
X0203019Y0285247D03*
X0203265Y0285186D03*
X0203296Y0285186D03*
X0203481Y0284878D03*
X0203511Y0284571D03*
X0203542Y0284325D03*
X0203573Y0284017D03*
X0203604Y0283709D03*
X0203634Y0283402D03*
X0203665Y0283156D03*
X0203788Y0282848D03*
X0203819Y0282848D03*
X0203880Y0282787D03*
X0203911Y0282787D03*
X0204004Y0282725D03*
X0204034Y0282725D03*
X0204096Y0282664D03*
X0204126Y0282664D03*
X0204219Y0282602D03*
X0204280Y0282541D03*
X0204311Y0282541D03*
X0204342Y0282479D03*
X0204372Y0282479D03*
X0204465Y0282418D03*
X0204496Y0282356D03*
X0204526Y0282356D03*
X0204557Y0282295D03*
X0204588Y0282295D03*
X0204619Y0282233D03*
X0204649Y0282233D03*
X0204711Y0282172D03*
X0204742Y0282110D03*
X0204772Y0282110D03*
X0204803Y0282048D03*
X0204834Y0282048D03*
X0204865Y0281987D03*
X0204895Y0281987D03*
X0204957Y0281925D03*
X0204988Y0281864D03*
X0205019Y0281802D03*
X0205049Y0281802D03*
X0205080Y0281741D03*
X0205111Y0281679D03*
X0205141Y0281679D03*
X0205203Y0281556D03*
X0205234Y0281556D03*
X0205265Y0281495D03*
X0205295Y0281433D03*
X0205326Y0281372D03*
X0205357Y0281310D03*
X0205387Y0281249D03*
X0205449Y0281187D03*
X0205480Y0281126D03*
X0205511Y0281064D03*
X0205541Y0280941D03*
X0205572Y0280880D03*
X0205603Y0280818D03*
X0205633Y0280757D03*
X0205695Y0280572D03*
X0205726Y0280449D03*
X0205757Y0280326D03*
X0205787Y0280141D03*
X0205818Y0279895D03*
X0205818Y0279465D03*
X0205787Y0279219D03*
X0205757Y0279096D03*
X0205726Y0278973D03*
X0205695Y0278911D03*
X0205633Y0278727D03*
X0205603Y0278665D03*
X0205572Y0278604D03*
X0205541Y0278542D03*
X0205511Y0278481D03*
X0205480Y0278419D03*
X0205449Y0278419D03*
X0205387Y0278296D03*
X0205357Y0278296D03*
X0205326Y0278234D03*
X0205295Y0278234D03*
X0205265Y0278173D03*
X0205234Y0278173D03*
X0205203Y0278111D03*
X0205141Y0278050D03*
X0205111Y0278050D03*
X0205080Y0277988D03*
X0205049Y0277988D03*
X0204988Y0277927D03*
X0204957Y0277927D03*
X0204895Y0277865D03*
X0204865Y0277865D03*
X0204772Y0277804D03*
X0204742Y0277804D03*
X0204649Y0277742D03*
X0204619Y0277742D03*
X0204465Y0277681D03*
X0204250Y0277619D03*
X0204219Y0277619D03*
X0203265Y0277619D03*
X0203235Y0277619D03*
X0203019Y0277681D03*
X0202989Y0277681D03*
X0202804Y0277742D03*
X0202773Y0277742D03*
X0202650Y0277804D03*
X0202619Y0277804D03*
X0202496Y0277865D03*
X0202373Y0277927D03*
X0202343Y0277927D03*
X0202250Y0277988D03*
X0202158Y0278050D03*
X0202127Y0278050D03*
X0202066Y0278111D03*
X0202035Y0278111D03*
X0201943Y0278173D03*
X0201881Y0278234D03*
X0201850Y0278234D03*
X0201789Y0278296D03*
X0201758Y0278296D03*
X0201696Y0278358D03*
X0201666Y0278358D03*
X0201635Y0278419D03*
X0201604Y0278419D03*
X0201574Y0278481D03*
X0201543Y0278481D03*
X0201512Y0278542D03*
X0201420Y0278604D03*
X0201389Y0278604D03*
X0201358Y0278665D03*
X0201328Y0278665D03*
X0201297Y0278727D03*
X0201266Y0278727D03*
X0201204Y0278850D03*
X0201174Y0278850D03*
X0201143Y0278911D03*
X0201112Y0278911D03*
X0201081Y0278973D03*
X0201051Y0279034D03*
X0201020Y0279034D03*
X0200958Y0279157D03*
X0200928Y0279157D03*
X0200897Y0279219D03*
X0200866Y0279280D03*
X0200835Y0279280D03*
X0200805Y0279342D03*
X0200774Y0279403D03*
X0200712Y0279526D03*
X0200681Y0279588D03*
X0200651Y0279649D03*
X0200620Y0279711D03*
X0200589Y0279772D03*
X0200559Y0279834D03*
X0200528Y0279895D03*
X0200466Y0280018D03*
X0200435Y0280141D03*
X0200405Y0280203D03*
X0200374Y0280326D03*
X0200343Y0280449D03*
X0200313Y0280572D03*
X0200282Y0280818D03*
X0200282Y0281433D03*
X0200313Y0281618D03*
X0200343Y0281741D03*
X0200374Y0281864D03*
X0200405Y0281987D03*
X0200435Y0282048D03*
X0200466Y0282110D03*
X0200528Y0282233D03*
X0200559Y0282295D03*
X0200589Y0282356D03*
X0200620Y0282356D03*
X0200651Y0282418D03*
X0200681Y0282479D03*
X0200712Y0282541D03*
X0200774Y0282602D03*
X0200805Y0282602D03*
X0200835Y0282664D03*
X0200866Y0282664D03*
X0200897Y0282725D03*
X0200928Y0282725D03*
X0200958Y0282787D03*
X0201051Y0282848D03*
X0201081Y0282848D03*
X0201143Y0282910D03*
X0201174Y0282910D03*
X0201266Y0282971D03*
X0201358Y0283033D03*
X0201389Y0283033D03*
X0201512Y0283094D03*
X0201543Y0283094D03*
X0201696Y0283156D03*
X0201943Y0283832D03*
X0201912Y0284263D03*
X0201881Y0284694D03*
X0201850Y0285124D03*
X0201850Y0285493D03*
X0201881Y0285493D03*
X0201912Y0285493D03*
X0202158Y0285432D03*
X0202189Y0285432D03*
X0202435Y0285370D03*
X0202373Y0285247D03*
X0203634Y0282787D03*
X0203911Y0282541D03*
X0204865Y0281864D03*
X0204865Y0281802D03*
X0205111Y0281433D03*
X0205234Y0281310D03*
X0204280Y0280511D03*
X0204126Y0280449D03*
X0204096Y0280572D03*
X0204065Y0280695D03*
X0204034Y0280757D03*
X0204004Y0280818D03*
X0203973Y0280880D03*
X0203911Y0280941D03*
X0203880Y0281003D03*
X0203850Y0281064D03*
X0203819Y0281064D03*
X0203788Y0281126D03*
X0203757Y0281126D03*
X0203727Y0281187D03*
X0203665Y0281249D03*
X0203634Y0281249D03*
X0203573Y0281310D03*
X0203542Y0281310D03*
X0203481Y0281372D03*
X0203388Y0281433D03*
X0203357Y0281433D03*
X0203235Y0281495D03*
X0203019Y0281556D03*
X0202989Y0281556D03*
X0202681Y0281556D03*
X0202496Y0281495D03*
X0202404Y0281433D03*
X0202373Y0281433D03*
X0202312Y0281372D03*
X0202281Y0281372D03*
X0202250Y0281310D03*
X0202189Y0281249D03*
X0202158Y0281187D03*
X0202127Y0281126D03*
X0202096Y0281003D03*
X0202066Y0280880D03*
X0202066Y0280695D03*
X0202096Y0280511D03*
X0202127Y0280388D03*
X0202158Y0280326D03*
X0202189Y0280265D03*
X0202250Y0280141D03*
X0202281Y0280080D03*
X0202312Y0280080D03*
X0202343Y0280018D03*
X0202373Y0279957D03*
X0202404Y0279957D03*
X0202435Y0279895D03*
X0202496Y0279834D03*
X0202558Y0279772D03*
X0202589Y0279772D03*
X0202619Y0279711D03*
X0202650Y0279711D03*
X0202743Y0279649D03*
X0202804Y0279588D03*
X0202835Y0279588D03*
X0202989Y0279526D03*
X0203142Y0279465D03*
X0203173Y0279465D03*
X0203542Y0279465D03*
X0203573Y0279465D03*
X0203727Y0279526D03*
X0203757Y0279526D03*
X0203819Y0279588D03*
X0203850Y0279588D03*
X0203911Y0279649D03*
X0203973Y0279711D03*
X0204004Y0279772D03*
X0204034Y0279772D03*
X0204065Y0279834D03*
X0204096Y0279895D03*
X0204126Y0280018D03*
X0202589Y0277988D03*
X0201696Y0278542D03*
X0201297Y0278973D03*
X0201051Y0279280D03*
X0201020Y0279280D03*
X0203050Y0275220D03*
X0203081Y0275220D03*
X0203173Y0275282D03*
X0203296Y0275343D03*
X0203327Y0275343D03*
X0203481Y0275405D03*
X0203665Y0275466D03*
X0204065Y0275528D03*
X0204096Y0275528D03*
X0204342Y0275528D03*
X0204372Y0275528D03*
X0204772Y0275466D03*
X0204803Y0275466D03*
X0204988Y0275405D03*
X0205019Y0275405D03*
X0205203Y0275343D03*
X0205326Y0275282D03*
X0205357Y0275282D03*
X0205449Y0275220D03*
X0205480Y0275220D03*
X0205572Y0275159D03*
X0205603Y0275159D03*
X0205695Y0275097D03*
X0205757Y0275036D03*
X0205787Y0275036D03*
X0205849Y0274974D03*
X0205941Y0275036D03*
X0205972Y0275097D03*
X0206003Y0275097D03*
X0206033Y0275159D03*
X0206064Y0275220D03*
X0206095Y0275220D03*
X0206126Y0275282D03*
X0206187Y0275343D03*
X0206218Y0275405D03*
X0206249Y0275405D03*
X0206280Y0275466D03*
X0206310Y0275466D03*
X0206341Y0275528D03*
X0206372Y0275589D03*
X0206433Y0275651D03*
X0206464Y0275651D03*
X0206495Y0275712D03*
X0206526Y0275774D03*
X0206556Y0275774D03*
X0206587Y0275835D03*
X0206618Y0275835D03*
X0206680Y0275958D03*
X0206710Y0275958D03*
X0206741Y0276020D03*
X0206772Y0276020D03*
X0206802Y0276081D03*
X0206833Y0276143D03*
X0206864Y0276143D03*
X0206926Y0276204D03*
X0206956Y0276266D03*
X0206987Y0276327D03*
X0207018Y0276327D03*
X0207048Y0276389D03*
X0207079Y0276389D03*
X0207110Y0276451D03*
X0207172Y0276512D03*
X0207202Y0276574D03*
X0207233Y0276574D03*
X0207264Y0276635D03*
X0207294Y0276697D03*
X0207325Y0276697D03*
X0207356Y0276758D03*
X0207418Y0276820D03*
X0207448Y0276881D03*
X0207479Y0276881D03*
X0207510Y0276943D03*
X0207541Y0276943D03*
X0207571Y0277004D03*
X0207602Y0277066D03*
X0207664Y0277127D03*
X0207694Y0277127D03*
X0207725Y0277189D03*
X0207756Y0277250D03*
X0207787Y0277250D03*
X0207817Y0277312D03*
X0207848Y0277312D03*
X0207910Y0277435D03*
X0207941Y0277435D03*
X0207971Y0277496D03*
X0208002Y0277496D03*
X0208033Y0277558D03*
X0208063Y0277619D03*
X0208094Y0277619D03*
X0208156Y0277681D03*
X0208187Y0277742D03*
X0208217Y0277804D03*
X0208248Y0277804D03*
X0208279Y0277865D03*
X0208309Y0277865D03*
X0208340Y0277927D03*
X0208402Y0277988D03*
X0208433Y0278050D03*
X0208433Y0278111D03*
X0208402Y0278173D03*
X0208340Y0278234D03*
X0208309Y0278296D03*
X0208279Y0278358D03*
X0208248Y0278419D03*
X0208217Y0278481D03*
X0208187Y0278542D03*
X0208156Y0278604D03*
X0208094Y0278788D03*
X0208063Y0278850D03*
X0208033Y0278973D03*
X0208002Y0279034D03*
X0207971Y0279157D03*
X0207941Y0279342D03*
X0207910Y0279526D03*
X0207910Y0280141D03*
X0207941Y0280326D03*
X0207971Y0280449D03*
X0208002Y0280572D03*
X0208033Y0280634D03*
X0208063Y0280695D03*
X0208094Y0280757D03*
X0208187Y0280695D03*
X0208187Y0280880D03*
X0208156Y0280880D03*
X0208217Y0280941D03*
X0208248Y0281003D03*
X0208279Y0281003D03*
X0208309Y0281064D03*
X0208340Y0281064D03*
X0208402Y0281126D03*
X0208463Y0281187D03*
X0208494Y0281187D03*
X0208556Y0281249D03*
X0208586Y0281249D03*
X0208679Y0281310D03*
X0208709Y0281310D03*
X0208832Y0281372D03*
X0209078Y0281433D03*
X0209540Y0281433D03*
X0209570Y0281433D03*
X0209878Y0281372D03*
X0209909Y0281372D03*
X0210063Y0281310D03*
X0210217Y0281249D03*
X0210247Y0281249D03*
X0210370Y0281187D03*
X0210463Y0281126D03*
X0210493Y0281126D03*
X0210617Y0281064D03*
X0210678Y0281003D03*
X0210709Y0281003D03*
X0210770Y0280941D03*
X0210801Y0280941D03*
X0210863Y0280880D03*
X0210893Y0280880D03*
X0210924Y0280818D03*
X0210955Y0280818D03*
X0211016Y0280757D03*
X0211047Y0280757D03*
X0211109Y0280695D03*
X0211170Y0280634D03*
X0211201Y0280634D03*
X0211231Y0280572D03*
X0211262Y0280572D03*
X0211293Y0280511D03*
X0211355Y0280449D03*
X0211385Y0280449D03*
X0211416Y0280388D03*
X0211447Y0280388D03*
X0211478Y0280326D03*
X0211508Y0280265D03*
X0211539Y0280265D03*
X0211601Y0280203D03*
X0211631Y0280141D03*
X0211662Y0280080D03*
X0211693Y0280080D03*
X0211724Y0280018D03*
X0211754Y0279957D03*
X0211785Y0279957D03*
X0211847Y0279834D03*
X0211878Y0279772D03*
X0211908Y0279772D03*
X0211939Y0279711D03*
X0211970Y0279649D03*
X0212000Y0279588D03*
X0212031Y0279526D03*
X0212093Y0279403D03*
X0212124Y0279342D03*
X0212154Y0279280D03*
X0212185Y0279219D03*
X0212216Y0279157D03*
X0212246Y0279034D03*
X0212277Y0278973D03*
X0212339Y0278788D03*
X0212370Y0278665D03*
X0212400Y0278542D03*
X0212431Y0278358D03*
X0212431Y0277681D03*
X0212400Y0277496D03*
X0212370Y0277373D03*
X0212339Y0277312D03*
X0212277Y0277189D03*
X0212246Y0277127D03*
X0212216Y0277066D03*
X0212185Y0277004D03*
X0212154Y0276943D03*
X0212124Y0276943D03*
X0212093Y0276881D03*
X0212031Y0276820D03*
X0212000Y0276758D03*
X0211970Y0276758D03*
X0211939Y0276697D03*
X0211908Y0276697D03*
X0211847Y0276635D03*
X0211754Y0276574D03*
X0211724Y0276574D03*
X0211631Y0276512D03*
X0211601Y0276512D03*
X0211447Y0276451D03*
X0211416Y0276451D03*
X0210555Y0276451D03*
X0210524Y0276451D03*
X0210309Y0276512D03*
X0210186Y0276574D03*
X0210155Y0276574D03*
X0210155Y0276697D03*
X0210186Y0276697D03*
X0210032Y0276758D03*
X0210032Y0276635D03*
X0210001Y0276635D03*
X0209909Y0276697D03*
X0209878Y0276697D03*
X0209786Y0276758D03*
X0209755Y0276758D03*
X0209632Y0276758D03*
X0209570Y0276697D03*
X0209540Y0276635D03*
X0209509Y0276574D03*
X0209478Y0276574D03*
X0209448Y0276512D03*
X0209417Y0276451D03*
X0209386Y0276451D03*
X0209324Y0276327D03*
X0209294Y0276327D03*
X0209263Y0276266D03*
X0209232Y0276204D03*
X0209202Y0276204D03*
X0209171Y0276143D03*
X0209140Y0276081D03*
X0209078Y0276020D03*
X0209048Y0275958D03*
X0209017Y0275958D03*
X0208986Y0275897D03*
X0208956Y0275835D03*
X0208925Y0275835D03*
X0208894Y0275774D03*
X0208832Y0275712D03*
X0208802Y0275651D03*
X0208771Y0275651D03*
X0208740Y0275589D03*
X0208709Y0275528D03*
X0208679Y0275528D03*
X0208648Y0275466D03*
X0208586Y0275405D03*
X0208556Y0275343D03*
X0208525Y0275282D03*
X0208494Y0275282D03*
X0208463Y0275220D03*
X0208433Y0275159D03*
X0208402Y0275159D03*
X0208340Y0275036D03*
X0208309Y0275036D03*
X0208279Y0274974D03*
X0208248Y0274913D03*
X0208217Y0274913D03*
X0208187Y0274851D03*
X0208156Y0274790D03*
X0208094Y0274728D03*
X0208063Y0274728D03*
X0208033Y0274667D03*
X0208002Y0274605D03*
X0207971Y0274605D03*
X0207941Y0274544D03*
X0207910Y0274482D03*
X0207848Y0274421D03*
X0207817Y0274359D03*
X0207787Y0274359D03*
X0207756Y0274297D03*
X0207725Y0274236D03*
X0207694Y0274236D03*
X0207664Y0274174D03*
X0207602Y0274113D03*
X0207571Y0274051D03*
X0207541Y0273990D03*
X0207510Y0273990D03*
X0207479Y0273928D03*
X0207448Y0273867D03*
X0207418Y0273867D03*
X0207356Y0273744D03*
X0207325Y0273744D03*
X0207294Y0273682D03*
X0207264Y0273682D03*
X0207233Y0273621D03*
X0207202Y0273559D03*
X0207172Y0273559D03*
X0207172Y0273498D03*
X0207202Y0273436D03*
X0207233Y0273375D03*
X0207264Y0273313D03*
X0207294Y0273252D03*
X0207325Y0273129D03*
X0207356Y0273067D03*
X0207418Y0272944D03*
X0207448Y0272821D03*
X0207479Y0272760D03*
X0207510Y0272637D03*
X0207541Y0272514D03*
X0207571Y0272390D03*
X0207602Y0272206D03*
X0207664Y0271591D03*
X0207664Y0271529D03*
X0207602Y0270853D03*
X0207571Y0270730D03*
X0207541Y0270607D03*
X0207510Y0270484D03*
X0207479Y0270360D03*
X0207448Y0270299D03*
X0207418Y0270237D03*
X0207356Y0270114D03*
X0207325Y0270053D03*
X0207294Y0269991D03*
X0207264Y0269930D03*
X0207233Y0269868D03*
X0207202Y0269807D03*
X0207172Y0269807D03*
X0207079Y0269868D03*
X0207110Y0269930D03*
X0207110Y0269684D03*
X0207079Y0269622D03*
X0207048Y0269622D03*
X0207018Y0269561D03*
X0206987Y0269561D03*
X0206956Y0269499D03*
X0206926Y0269499D03*
X0206864Y0269438D03*
X0206833Y0269376D03*
X0206802Y0269376D03*
X0206772Y0269315D03*
X0206741Y0269315D03*
X0206710Y0269253D03*
X0206680Y0269253D03*
X0206618Y0269192D03*
X0206587Y0269192D03*
X0206526Y0269130D03*
X0206495Y0269130D03*
X0206372Y0269069D03*
X0206280Y0269007D03*
X0206249Y0269007D03*
X0206126Y0268946D03*
X0205972Y0268884D03*
X0205941Y0268884D03*
X0205633Y0268823D03*
X0205019Y0268823D03*
X0204988Y0268823D03*
X0204711Y0268884D03*
X0204496Y0268946D03*
X0204465Y0268946D03*
X0204342Y0269007D03*
X0204311Y0269007D03*
X0204157Y0269069D03*
X0204065Y0269130D03*
X0204034Y0269130D03*
X0203911Y0269192D03*
X0203850Y0269253D03*
X0203819Y0269253D03*
X0203757Y0269315D03*
X0203727Y0269315D03*
X0203665Y0269376D03*
X0203634Y0269376D03*
X0203573Y0269438D03*
X0203542Y0269438D03*
X0203481Y0269499D03*
X0203419Y0269561D03*
X0203388Y0269561D03*
X0203357Y0269622D03*
X0203327Y0269622D03*
X0203265Y0269684D03*
X0203235Y0269684D03*
X0203173Y0269745D03*
X0203142Y0269807D03*
X0203111Y0269807D03*
X0203081Y0269868D03*
X0203050Y0269868D03*
X0203019Y0269930D03*
X0202989Y0269991D03*
X0202927Y0270053D03*
X0202896Y0270053D03*
X0202865Y0270114D03*
X0202835Y0270176D03*
X0202804Y0270176D03*
X0202773Y0270237D03*
X0202743Y0270237D03*
X0202681Y0270360D03*
X0202650Y0270422D03*
X0202619Y0270422D03*
X0202589Y0270484D03*
X0202558Y0270545D03*
X0202527Y0270607D03*
X0202496Y0270607D03*
X0202435Y0270730D03*
X0202404Y0270791D03*
X0202373Y0270853D03*
X0202343Y0270914D03*
X0202312Y0270976D03*
X0202281Y0271037D03*
X0202250Y0271099D03*
X0202189Y0271283D03*
X0202158Y0271345D03*
X0202127Y0271406D03*
X0202096Y0271529D03*
X0202066Y0271591D03*
X0202035Y0271714D03*
X0202004Y0271837D03*
X0201943Y0272144D03*
X0201912Y0272329D03*
X0201912Y0273252D03*
X0201943Y0273436D03*
X0202096Y0273559D03*
X0202004Y0273744D03*
X0202035Y0273805D03*
X0202066Y0273928D03*
X0202096Y0273990D03*
X0202127Y0274113D03*
X0202158Y0274174D03*
X0202189Y0274236D03*
X0202250Y0274359D03*
X0202281Y0274421D03*
X0202312Y0274421D03*
X0202343Y0274482D03*
X0202373Y0274544D03*
X0202404Y0274605D03*
X0202435Y0274605D03*
X0202496Y0274728D03*
X0202527Y0274728D03*
X0202558Y0274790D03*
X0202589Y0274790D03*
X0202619Y0274851D03*
X0202650Y0274913D03*
X0202681Y0274913D03*
X0202743Y0274974D03*
X0202773Y0274974D03*
X0202804Y0275036D03*
X0202835Y0275036D03*
X0202865Y0275097D03*
X0202896Y0275097D03*
X0202989Y0275159D03*
X0202281Y0274051D03*
X0203911Y0273129D03*
X0203880Y0273067D03*
X0203850Y0273006D03*
X0203819Y0272883D03*
X0203788Y0272760D03*
X0203788Y0272329D03*
X0203819Y0272144D03*
X0203850Y0272083D03*
X0203880Y0271960D03*
X0203911Y0271898D03*
X0203973Y0271775D03*
X0204004Y0271714D03*
X0204034Y0271652D03*
X0204065Y0271652D03*
X0204096Y0271591D03*
X0204126Y0271529D03*
X0204157Y0271529D03*
X0204219Y0271468D03*
X0204250Y0271406D03*
X0204280Y0271406D03*
X0204311Y0271345D03*
X0204342Y0271345D03*
X0204403Y0271283D03*
X0204496Y0271222D03*
X0204526Y0271222D03*
X0204588Y0271160D03*
X0204619Y0271160D03*
X0204772Y0271099D03*
X0204803Y0271099D03*
X0205295Y0271099D03*
X0205326Y0271099D03*
X0205326Y0270976D03*
X0205449Y0271160D03*
X0205511Y0271222D03*
X0205541Y0271222D03*
X0205603Y0271283D03*
X0205633Y0271283D03*
X0205695Y0271345D03*
X0205726Y0271406D03*
X0205757Y0271468D03*
X0205787Y0271529D03*
X0205818Y0271591D03*
X0205849Y0271652D03*
X0205880Y0271775D03*
X0205880Y0272329D03*
X0205849Y0272452D03*
X0205818Y0272575D03*
X0205787Y0272637D03*
X0205757Y0272698D03*
X0205726Y0272760D03*
X0205695Y0272821D03*
X0205633Y0272944D03*
X0205603Y0273006D03*
X0205572Y0273006D03*
X0205541Y0273067D03*
X0205511Y0273129D03*
X0205480Y0273129D03*
X0205449Y0273190D03*
X0205387Y0273252D03*
X0205357Y0273252D03*
X0205295Y0273313D03*
X0205265Y0273313D03*
X0205203Y0273375D03*
X0205111Y0273436D03*
X0205080Y0273436D03*
X0205080Y0273559D03*
X0204957Y0273498D03*
X0204957Y0273621D03*
X0205449Y0273313D03*
X0204372Y0273498D03*
X0204342Y0273498D03*
X0204280Y0273621D03*
X0204219Y0273436D03*
X0204157Y0273375D03*
X0204126Y0273375D03*
X0204065Y0273313D03*
X0204034Y0273313D03*
X0204004Y0273252D03*
X0203973Y0273190D03*
X0204126Y0271222D03*
X0202835Y0270360D03*
X0203327Y0269807D03*
X0202312Y0271406D03*
X0206587Y0269376D03*
X0206618Y0269376D03*
X0206802Y0269561D03*
X0206833Y0269622D03*
X0208156Y0275036D03*
X0206680Y0275651D03*
X0207694Y0276881D03*
X0207725Y0277004D03*
X0207910Y0277127D03*
X0209540Y0278358D03*
X0209694Y0278481D03*
X0209724Y0278481D03*
X0209755Y0278419D03*
X0209786Y0278419D03*
X0209817Y0278358D03*
X0209909Y0278296D03*
X0209940Y0278296D03*
X0210001Y0278234D03*
X0210032Y0278234D03*
X0210124Y0278173D03*
X0210247Y0278111D03*
X0210278Y0278111D03*
X0210709Y0278111D03*
X0210739Y0278111D03*
X0210863Y0278173D03*
X0210893Y0278234D03*
X0210924Y0278234D03*
X0210955Y0278296D03*
X0210985Y0278358D03*
X0211016Y0278419D03*
X0211047Y0278604D03*
X0211047Y0278727D03*
X0211016Y0278911D03*
X0210985Y0279034D03*
X0210955Y0279096D03*
X0210924Y0279157D03*
X0210893Y0279219D03*
X0210863Y0279280D03*
X0210801Y0279342D03*
X0210770Y0279403D03*
X0210739Y0279465D03*
X0210709Y0279465D03*
X0210678Y0279526D03*
X0210647Y0279588D03*
X0210617Y0279588D03*
X0210555Y0279649D03*
X0210524Y0279649D03*
X0210493Y0279711D03*
X0210463Y0279711D03*
X0210401Y0279772D03*
X0210370Y0279772D03*
X0210309Y0279834D03*
X0210278Y0279834D03*
X0210155Y0279895D03*
X0210124Y0279895D03*
X0209694Y0279895D03*
X0209663Y0279895D03*
X0209570Y0279834D03*
X0209540Y0279834D03*
X0209509Y0279772D03*
X0209478Y0279772D03*
X0209448Y0279711D03*
X0209417Y0279649D03*
X0209386Y0279588D03*
X0209540Y0279957D03*
X0209386Y0279096D03*
X0209417Y0278973D03*
X0209448Y0278911D03*
X0209478Y0278850D03*
X0209509Y0278788D03*
X0209540Y0278727D03*
X0209570Y0278665D03*
X0209632Y0278604D03*
X0209663Y0278542D03*
X0210955Y0279403D03*
X0212000Y0279342D03*
X0211016Y0280572D03*
X0210278Y0281064D03*
X0218337Y0281003D03*
X0218552Y0280388D03*
X0218152Y0283463D03*
X0220859Y0276081D03*
X0221105Y0273313D03*
D17*
X0221166Y0273067D03*
X0220920Y0272883D03*
X0221412Y0273498D03*
X0221412Y0274913D03*
X0221166Y0275651D03*
X0220920Y0276327D03*
X0220674Y0277004D03*
X0220428Y0277681D03*
X0220182Y0278358D03*
X0219936Y0279034D03*
X0219690Y0279711D03*
X0219444Y0280388D03*
X0219198Y0281064D03*
X0218952Y0281741D03*
X0218706Y0282418D03*
X0218460Y0283094D03*
X0218214Y0283771D03*
X0217968Y0284448D03*
X0217721Y0285124D03*
X0217475Y0285801D03*
X0217229Y0286478D03*
X0216983Y0287154D03*
X0216737Y0287769D03*
X0216491Y0288200D03*
X0216245Y0288569D03*
X0215999Y0288815D03*
X0215753Y0289061D03*
X0215261Y0289307D03*
X0215015Y0289615D03*
X0214769Y0289738D03*
X0214031Y0289984D03*
X0214031Y0289061D03*
X0214277Y0289000D03*
X0215015Y0288754D03*
X0215261Y0288569D03*
X0215507Y0288508D03*
X0215507Y0288323D03*
X0215753Y0287954D03*
X0215999Y0287277D03*
X0216245Y0286601D03*
X0216491Y0285862D03*
X0216737Y0285186D03*
X0216983Y0284448D03*
X0217229Y0283771D03*
X0217475Y0283033D03*
X0217721Y0282356D03*
X0217968Y0281618D03*
X0218214Y0280941D03*
X0218460Y0280203D03*
X0218706Y0279526D03*
X0218952Y0278788D03*
X0219198Y0278111D03*
X0219444Y0277373D03*
X0219690Y0276697D03*
X0219936Y0275958D03*
X0219936Y0274544D03*
X0219936Y0272760D03*
X0218706Y0272883D03*
X0212308Y0277250D03*
X0212062Y0276820D03*
X0211816Y0276635D03*
X0210340Y0276512D03*
X0209601Y0276697D03*
X0209355Y0276389D03*
X0209109Y0276081D03*
X0208863Y0275774D03*
X0208617Y0275405D03*
X0208371Y0275097D03*
X0208125Y0274790D03*
X0207879Y0274482D03*
X0207633Y0274113D03*
X0207387Y0273805D03*
X0207387Y0273006D03*
X0207633Y0272021D03*
X0207633Y0271037D03*
X0207387Y0270176D03*
X0207141Y0269745D03*
X0206895Y0269438D03*
X0206403Y0269069D03*
X0206156Y0268946D03*
X0205664Y0268823D03*
X0204680Y0268884D03*
X0204188Y0269069D03*
X0203942Y0269192D03*
X0203450Y0269499D03*
X0203204Y0269745D03*
X0203204Y0269868D03*
X0203204Y0269930D03*
X0202958Y0269991D03*
X0202712Y0270299D03*
X0202466Y0270668D03*
X0202219Y0271160D03*
X0201973Y0271960D03*
X0201973Y0273621D03*
X0202219Y0274297D03*
X0202466Y0274667D03*
X0202958Y0275159D03*
X0203204Y0275282D03*
X0203450Y0275405D03*
X0203696Y0275466D03*
X0205172Y0275343D03*
X0205664Y0275097D03*
X0205910Y0274974D03*
X0206156Y0275282D03*
X0206403Y0275589D03*
X0206649Y0275897D03*
X0206895Y0276204D03*
X0207141Y0276512D03*
X0207387Y0276758D03*
X0207633Y0276881D03*
X0207633Y0277066D03*
X0207879Y0277373D03*
X0208125Y0277681D03*
X0208371Y0277988D03*
X0208371Y0278173D03*
X0208125Y0278727D03*
X0209355Y0279280D03*
X0209355Y0279403D03*
X0209601Y0278604D03*
X0209847Y0278358D03*
X0210094Y0278173D03*
X0210832Y0278173D03*
X0210832Y0279342D03*
X0211816Y0279895D03*
X0211570Y0280203D03*
X0211324Y0280511D03*
X0211078Y0280695D03*
X0210586Y0281064D03*
X0210340Y0281187D03*
X0210094Y0281310D03*
X0209109Y0281433D03*
X0208863Y0281372D03*
X0208371Y0281126D03*
X0208125Y0280818D03*
X0205664Y0280634D03*
X0205418Y0281249D03*
X0205172Y0281618D03*
X0204926Y0281925D03*
X0204680Y0282172D03*
X0204434Y0282418D03*
X0204188Y0282602D03*
X0203696Y0282910D03*
X0203204Y0281495D03*
X0203450Y0281372D03*
X0203696Y0281187D03*
X0203942Y0280880D03*
X0203942Y0279649D03*
X0202958Y0279526D03*
X0202712Y0279649D03*
X0202466Y0279834D03*
X0202219Y0279895D03*
X0202219Y0280203D03*
X0202219Y0281310D03*
X0202466Y0281495D03*
X0202712Y0281556D03*
X0201973Y0283217D03*
X0201973Y0283402D03*
X0201727Y0283156D03*
X0201235Y0282971D03*
X0200989Y0282787D03*
X0200743Y0282541D03*
X0200497Y0282172D03*
X0200497Y0279957D03*
X0200743Y0279465D03*
X0200989Y0279096D03*
X0201235Y0278788D03*
X0201481Y0278542D03*
X0201973Y0278173D03*
X0202219Y0277988D03*
X0202466Y0277865D03*
X0204434Y0277681D03*
X0205172Y0278111D03*
X0205172Y0278296D03*
X0205418Y0278358D03*
X0205664Y0278788D03*
X0204926Y0273498D03*
X0205172Y0273375D03*
X0205418Y0273190D03*
X0205664Y0272883D03*
X0205910Y0272083D03*
X0205910Y0272021D03*
X0205664Y0271345D03*
X0205418Y0271160D03*
X0205418Y0271037D03*
X0204434Y0271283D03*
X0204188Y0271283D03*
X0204188Y0271222D03*
X0204188Y0271468D03*
X0203942Y0271837D03*
X0203942Y0273190D03*
X0204188Y0273436D03*
X0212062Y0279465D03*
X0212308Y0278911D03*
X0212800Y0289430D03*
X0213046Y0290292D03*
X0212062Y0290599D03*
X0211816Y0290661D03*
X0211570Y0289799D03*
X0211324Y0289861D03*
X0210832Y0290968D03*
X0209847Y0291276D03*
X0208863Y0291583D03*
X0208617Y0291645D03*
X0208617Y0290661D03*
X0208863Y0290599D03*
X0207633Y0290968D03*
X0207387Y0291030D03*
X0207633Y0291952D03*
X0206649Y0292260D03*
X0206403Y0292322D03*
X0205664Y0292568D03*
X0205418Y0292629D03*
X0204926Y0291768D03*
X0204680Y0291829D03*
X0204434Y0292937D03*
X0203450Y0293244D03*
X0202958Y0292076D03*
X0201727Y0293060D03*
X0201481Y0292752D03*
X0201481Y0289738D03*
X0202958Y0289615D03*
X0203204Y0287277D03*
X0203204Y0286908D03*
X0202958Y0286970D03*
X0202712Y0287031D03*
X0202466Y0285370D03*
X0202712Y0285309D03*
X0203450Y0285124D03*
X0206156Y0291399D03*
X0210094Y0290230D03*
D18*
X0217383Y0284724D03*
X0217414Y0284601D03*
X0217506Y0284355D03*
X0217629Y0283986D03*
X0217691Y0283863D03*
X0220367Y0276112D03*
X0205326Y0268853D03*
D19*
X0205818Y0268853D03*
X0205849Y0268853D03*
X0206187Y0268976D03*
X0206218Y0268976D03*
X0206433Y0269099D03*
X0206464Y0269099D03*
X0206618Y0269222D03*
X0206772Y0269345D03*
X0206802Y0269345D03*
X0206926Y0269469D03*
X0207018Y0269592D03*
X0207048Y0269592D03*
X0207110Y0269715D03*
X0207202Y0269838D03*
X0207294Y0269961D03*
X0207356Y0270084D03*
X0207418Y0270207D03*
X0207448Y0270330D03*
X0207541Y0270576D03*
X0207571Y0270699D03*
X0207664Y0271560D03*
X0207418Y0272913D03*
X0207325Y0273159D03*
X0207264Y0273282D03*
X0207202Y0273406D03*
X0207172Y0273529D03*
X0207264Y0273652D03*
X0207356Y0273775D03*
X0207448Y0273898D03*
X0207541Y0274021D03*
X0207725Y0274267D03*
X0207756Y0274267D03*
X0207817Y0274390D03*
X0207848Y0274390D03*
X0207910Y0274513D03*
X0207941Y0274513D03*
X0208002Y0274636D03*
X0208033Y0274636D03*
X0208094Y0274759D03*
X0208187Y0274882D03*
X0208217Y0274882D03*
X0208279Y0275005D03*
X0208309Y0275005D03*
X0208402Y0275128D03*
X0208463Y0275251D03*
X0208494Y0275251D03*
X0208586Y0275374D03*
X0208679Y0275497D03*
X0208771Y0275620D03*
X0208956Y0275866D03*
X0209048Y0275989D03*
X0209140Y0276112D03*
X0209232Y0276235D03*
X0209324Y0276358D03*
X0209417Y0276481D03*
X0209448Y0276481D03*
X0209509Y0276604D03*
X0209540Y0276604D03*
X0209632Y0276727D03*
X0209817Y0276727D03*
X0210063Y0276604D03*
X0210217Y0276727D03*
X0210401Y0276481D03*
X0210432Y0276481D03*
X0211508Y0276481D03*
X0211539Y0276481D03*
X0211754Y0276604D03*
X0211785Y0276604D03*
X0211939Y0276727D03*
X0211970Y0276727D03*
X0212093Y0276850D03*
X0212154Y0276973D03*
X0212185Y0276973D03*
X0212246Y0277096D03*
X0212431Y0278327D03*
X0212370Y0278696D03*
X0212246Y0279065D03*
X0212185Y0279188D03*
X0212093Y0279434D03*
X0212031Y0279557D03*
X0211939Y0279680D03*
X0211878Y0279803D03*
X0211785Y0279926D03*
X0211724Y0280049D03*
X0211693Y0280049D03*
X0211601Y0280172D03*
X0211508Y0280295D03*
X0211478Y0280295D03*
X0211416Y0280418D03*
X0211385Y0280418D03*
X0211293Y0280541D03*
X0211262Y0280541D03*
X0211139Y0280664D03*
X0211109Y0280664D03*
X0211047Y0280541D03*
X0211016Y0280787D03*
X0210985Y0280787D03*
X0210801Y0280910D03*
X0210647Y0281033D03*
X0210617Y0281033D03*
X0210432Y0281156D03*
X0210401Y0281156D03*
X0210247Y0281033D03*
X0210186Y0281280D03*
X0210155Y0281280D03*
X0209786Y0281403D03*
X0209755Y0281403D03*
X0208956Y0281403D03*
X0208925Y0281403D03*
X0208648Y0281280D03*
X0208433Y0281156D03*
X0208402Y0281156D03*
X0208309Y0281033D03*
X0208279Y0281033D03*
X0208217Y0280910D03*
X0208187Y0280910D03*
X0208217Y0280664D03*
X0208063Y0280664D03*
X0208002Y0280541D03*
X0207910Y0280172D03*
X0207941Y0279311D03*
X0207971Y0279188D03*
X0208002Y0279065D03*
X0208033Y0278942D03*
X0208187Y0278573D03*
X0208217Y0278450D03*
X0208248Y0278450D03*
X0208309Y0278327D03*
X0208433Y0278081D03*
X0208279Y0277835D03*
X0208248Y0277835D03*
X0208156Y0277712D03*
X0208063Y0277589D03*
X0208033Y0277589D03*
X0207971Y0277466D03*
X0207941Y0277466D03*
X0207848Y0277343D03*
X0207756Y0277219D03*
X0207664Y0277096D03*
X0207694Y0276973D03*
X0207571Y0276973D03*
X0207541Y0276973D03*
X0207448Y0276850D03*
X0207356Y0276727D03*
X0207325Y0276727D03*
X0207264Y0276604D03*
X0207233Y0276604D03*
X0207048Y0276358D03*
X0207018Y0276358D03*
X0206956Y0276235D03*
X0206926Y0276235D03*
X0206833Y0276112D03*
X0206741Y0275989D03*
X0206710Y0275989D03*
X0206618Y0275866D03*
X0206526Y0275743D03*
X0206433Y0275620D03*
X0206341Y0275497D03*
X0206310Y0275497D03*
X0206218Y0275374D03*
X0206126Y0275251D03*
X0206095Y0275251D03*
X0206033Y0275128D03*
X0206003Y0275128D03*
X0205849Y0275005D03*
X0205818Y0275005D03*
X0205633Y0275128D03*
X0205387Y0275251D03*
X0205111Y0275374D03*
X0205080Y0275374D03*
X0204649Y0275497D03*
X0204619Y0275497D03*
X0203819Y0275497D03*
X0203788Y0275497D03*
X0203388Y0275374D03*
X0203357Y0275374D03*
X0203142Y0275251D03*
X0203111Y0275251D03*
X0202927Y0275128D03*
X0202804Y0275005D03*
X0202773Y0275005D03*
X0202650Y0274882D03*
X0202619Y0274882D03*
X0202558Y0274759D03*
X0202527Y0274759D03*
X0202435Y0274636D03*
X0202373Y0274513D03*
X0202343Y0274513D03*
X0202281Y0274390D03*
X0202158Y0274144D03*
X0202096Y0274021D03*
X0202066Y0273898D03*
X0202066Y0273529D03*
X0201912Y0273282D03*
X0202127Y0271437D03*
X0202158Y0271314D03*
X0202281Y0271068D03*
X0202343Y0270945D03*
X0202404Y0270822D03*
X0202527Y0270576D03*
X0202619Y0270453D03*
X0202681Y0270330D03*
X0202773Y0270207D03*
X0202804Y0270207D03*
X0202865Y0270084D03*
X0202896Y0270084D03*
X0202989Y0269961D03*
X0203081Y0269838D03*
X0203111Y0269838D03*
X0203235Y0269715D03*
X0203357Y0269592D03*
X0203388Y0269592D03*
X0203511Y0269469D03*
X0203542Y0269469D03*
X0203665Y0269345D03*
X0203880Y0269222D03*
X0203911Y0269222D03*
X0204096Y0269099D03*
X0204126Y0269099D03*
X0204372Y0268976D03*
X0204403Y0268976D03*
X0204803Y0268853D03*
X0204834Y0268853D03*
X0205295Y0270945D03*
X0205203Y0271068D03*
X0205480Y0271191D03*
X0205511Y0271191D03*
X0205633Y0271314D03*
X0205726Y0271437D03*
X0205757Y0271437D03*
X0205818Y0271560D03*
X0205849Y0271683D03*
X0205787Y0272667D03*
X0205726Y0272790D03*
X0205633Y0272913D03*
X0205572Y0273036D03*
X0205541Y0273036D03*
X0205480Y0273159D03*
X0205449Y0273159D03*
X0205326Y0273282D03*
X0205295Y0273282D03*
X0205141Y0273406D03*
X0205111Y0273406D03*
X0204834Y0273529D03*
X0204803Y0273529D03*
X0204465Y0273529D03*
X0204157Y0273406D03*
X0204126Y0273529D03*
X0204034Y0273282D03*
X0203880Y0273036D03*
X0203819Y0272913D03*
X0203788Y0272790D03*
X0203788Y0272298D03*
X0203819Y0272175D03*
X0203850Y0272052D03*
X0203911Y0271929D03*
X0203973Y0271806D03*
X0204034Y0271683D03*
X0204126Y0271560D03*
X0204219Y0271437D03*
X0204250Y0271437D03*
X0204342Y0271314D03*
X0204372Y0271314D03*
X0204526Y0271191D03*
X0204557Y0271191D03*
X0204895Y0271068D03*
X0204157Y0271191D03*
X0204034Y0277589D03*
X0204004Y0277589D03*
X0204096Y0277712D03*
X0204526Y0277712D03*
X0204557Y0277712D03*
X0204803Y0277835D03*
X0204834Y0277835D03*
X0204988Y0277958D03*
X0205019Y0277958D03*
X0205141Y0278081D03*
X0205265Y0278204D03*
X0205295Y0278204D03*
X0205387Y0278327D03*
X0205480Y0278450D03*
X0205541Y0278573D03*
X0205572Y0278573D03*
X0205603Y0278696D03*
X0205787Y0280172D03*
X0205757Y0280295D03*
X0205726Y0280418D03*
X0205695Y0280541D03*
X0205603Y0280787D03*
X0205572Y0280910D03*
X0205511Y0281033D03*
X0205449Y0281156D03*
X0205387Y0281280D03*
X0205326Y0281403D03*
X0205234Y0281526D03*
X0205141Y0281649D03*
X0205080Y0281772D03*
X0205049Y0281772D03*
X0204988Y0281895D03*
X0204957Y0281895D03*
X0204865Y0282018D03*
X0204834Y0282018D03*
X0204742Y0282141D03*
X0204711Y0282141D03*
X0204649Y0282018D03*
X0204619Y0282264D03*
X0204588Y0282264D03*
X0204496Y0282387D03*
X0204465Y0282387D03*
X0204342Y0282510D03*
X0204311Y0282510D03*
X0204157Y0282633D03*
X0204126Y0282633D03*
X0203973Y0282756D03*
X0203757Y0282879D03*
X0203727Y0282879D03*
X0203604Y0282756D03*
X0203665Y0283125D03*
X0203604Y0283740D03*
X0203573Y0283986D03*
X0203511Y0284601D03*
X0203481Y0284847D03*
X0203173Y0285217D03*
X0203142Y0285217D03*
X0202589Y0285340D03*
X0202558Y0285340D03*
X0202035Y0285463D03*
X0202004Y0285463D03*
X0201881Y0284724D03*
X0201943Y0283863D03*
X0201604Y0283125D03*
X0201574Y0283125D03*
X0201328Y0283002D03*
X0201297Y0283002D03*
X0201297Y0282879D03*
X0201112Y0282879D03*
X0201081Y0282879D03*
X0200958Y0282756D03*
X0200928Y0282756D03*
X0200835Y0282633D03*
X0200805Y0282633D03*
X0200712Y0282510D03*
X0200774Y0282387D03*
X0200620Y0282387D03*
X0200559Y0282264D03*
X0200435Y0282018D03*
X0200374Y0281895D03*
X0200343Y0281772D03*
X0200313Y0281649D03*
X0200343Y0280418D03*
X0200374Y0280295D03*
X0200466Y0280049D03*
X0200559Y0279803D03*
X0200620Y0279680D03*
X0200681Y0279557D03*
X0200774Y0279434D03*
X0200835Y0279311D03*
X0200897Y0279188D03*
X0200928Y0279188D03*
X0201020Y0279065D03*
X0201081Y0278942D03*
X0201112Y0278942D03*
X0201204Y0278819D03*
X0201266Y0278942D03*
X0201297Y0278696D03*
X0201328Y0278696D03*
X0201420Y0278573D03*
X0201450Y0278573D03*
X0201574Y0278450D03*
X0201604Y0278450D03*
X0201758Y0278327D03*
X0201881Y0278204D03*
X0201912Y0278204D03*
X0202066Y0278081D03*
X0202096Y0278081D03*
X0202281Y0277958D03*
X0202312Y0277958D03*
X0202527Y0277958D03*
X0202558Y0277958D03*
X0202558Y0277835D03*
X0202589Y0277835D03*
X0202865Y0277712D03*
X0202896Y0277712D03*
X0203327Y0277712D03*
X0203481Y0277589D03*
X0203788Y0279557D03*
X0203819Y0279557D03*
X0203973Y0279680D03*
X0204034Y0279803D03*
X0204096Y0279926D03*
X0204126Y0280049D03*
X0204250Y0280541D03*
X0204065Y0280664D03*
X0204004Y0280787D03*
X0203850Y0281033D03*
X0203757Y0281156D03*
X0203727Y0281156D03*
X0203604Y0281280D03*
X0203573Y0281280D03*
X0203419Y0281403D03*
X0203142Y0281526D03*
X0203111Y0281526D03*
X0202589Y0281526D03*
X0202558Y0281526D03*
X0202343Y0281403D03*
X0202312Y0281403D03*
X0202158Y0281156D03*
X0202096Y0281033D03*
X0202066Y0280664D03*
X0202127Y0280418D03*
X0202158Y0280295D03*
X0202250Y0280172D03*
X0202312Y0280049D03*
X0202404Y0279926D03*
X0202527Y0279803D03*
X0202558Y0279803D03*
X0202650Y0279680D03*
X0202681Y0279680D03*
X0202865Y0279557D03*
X0202896Y0279557D03*
X0205203Y0281280D03*
X0209386Y0279557D03*
X0209448Y0279680D03*
X0209509Y0279803D03*
X0209540Y0279803D03*
X0209755Y0279926D03*
X0209786Y0279926D03*
X0210001Y0279926D03*
X0210032Y0279926D03*
X0210370Y0279803D03*
X0210493Y0279680D03*
X0210524Y0279680D03*
X0210647Y0279557D03*
X0210678Y0279557D03*
X0210739Y0279434D03*
X0210770Y0279434D03*
X0210924Y0279434D03*
X0210924Y0279188D03*
X0210955Y0279065D03*
X0211047Y0278696D03*
X0211016Y0278450D03*
X0210985Y0278327D03*
X0210955Y0278327D03*
X0210893Y0278204D03*
X0210863Y0278204D03*
X0210647Y0278081D03*
X0210617Y0278081D03*
X0210401Y0278081D03*
X0210370Y0278081D03*
X0210063Y0278204D03*
X0210032Y0278204D03*
X0209878Y0278327D03*
X0209755Y0278450D03*
X0209724Y0278450D03*
X0209663Y0278573D03*
X0209632Y0278573D03*
X0209570Y0278696D03*
X0209540Y0278696D03*
X0209478Y0278819D03*
X0209386Y0279065D03*
X0207664Y0276850D03*
X0203111Y0286939D03*
X0203081Y0286939D03*
X0203081Y0287062D03*
X0203173Y0287554D03*
X0203111Y0288169D03*
X0203081Y0288415D03*
X0203019Y0289031D03*
X0202927Y0289892D03*
X0202865Y0290507D03*
X0202835Y0290753D03*
X0202773Y0291368D03*
X0202773Y0291860D03*
X0202835Y0291983D03*
X0202865Y0291983D03*
X0202989Y0292106D03*
X0203757Y0292106D03*
X0203788Y0292106D03*
X0204157Y0291983D03*
X0204588Y0291983D03*
X0204588Y0291860D03*
X0204619Y0291860D03*
X0204988Y0291737D03*
X0205019Y0291737D03*
X0205449Y0291614D03*
X0205818Y0291491D03*
X0205849Y0291491D03*
X0206249Y0291368D03*
X0206280Y0291368D03*
X0206680Y0291245D03*
X0207079Y0291122D03*
X0207110Y0291122D03*
X0207479Y0290999D03*
X0207510Y0290999D03*
X0207910Y0290876D03*
X0207941Y0290876D03*
X0208309Y0290753D03*
X0208340Y0290753D03*
X0208740Y0290630D03*
X0208771Y0290630D03*
X0209140Y0290507D03*
X0209171Y0290507D03*
X0209570Y0290384D03*
X0209970Y0290261D03*
X0210001Y0290261D03*
X0210401Y0290138D03*
X0210432Y0290138D03*
X0210801Y0290015D03*
X0211231Y0289892D03*
X0211262Y0289892D03*
X0211631Y0289769D03*
X0211662Y0289769D03*
X0212093Y0289646D03*
X0212493Y0289523D03*
X0212523Y0289523D03*
X0212893Y0289400D03*
X0212923Y0289400D03*
X0213323Y0289277D03*
X0213723Y0289154D03*
X0213754Y0289154D03*
X0214123Y0289031D03*
X0214154Y0289031D03*
X0214554Y0288907D03*
X0214584Y0288907D03*
X0214922Y0288784D03*
X0214953Y0288784D03*
X0215107Y0288784D03*
X0215138Y0288661D03*
X0215169Y0288661D03*
X0215292Y0288538D03*
X0215322Y0288538D03*
X0215415Y0288415D03*
X0215445Y0288415D03*
X0215538Y0288292D03*
X0215569Y0288292D03*
X0215630Y0288169D03*
X0215661Y0288169D03*
X0215722Y0288046D03*
X0215784Y0287923D03*
X0215815Y0287800D03*
X0215876Y0287677D03*
X0215907Y0287554D03*
X0216030Y0287185D03*
X0216122Y0286939D03*
X0216214Y0286693D03*
X0216337Y0286324D03*
X0216430Y0286078D03*
X0216460Y0285955D03*
X0216553Y0285709D03*
X0216583Y0285586D03*
X0216645Y0285463D03*
X0216676Y0285340D03*
X0216768Y0285094D03*
X0216799Y0284970D03*
X0216860Y0284847D03*
X0216891Y0284724D03*
X0217014Y0284355D03*
X0217076Y0284232D03*
X0217106Y0284109D03*
X0217198Y0283863D03*
X0217322Y0283494D03*
X0217414Y0283248D03*
X0217444Y0283125D03*
X0217568Y0283248D03*
X0217537Y0282879D03*
X0217629Y0282633D03*
X0217660Y0282510D03*
X0217752Y0282264D03*
X0217783Y0282141D03*
X0217844Y0282018D03*
X0217875Y0281895D03*
X0217998Y0281526D03*
X0218060Y0281403D03*
X0218091Y0281280D03*
X0218183Y0281033D03*
X0218275Y0280787D03*
X0218306Y0280664D03*
X0218398Y0280418D03*
X0218429Y0280295D03*
X0218521Y0280049D03*
X0218613Y0279803D03*
X0218644Y0279680D03*
X0218737Y0279434D03*
X0218829Y0279188D03*
X0218859Y0279065D03*
X0218983Y0278696D03*
X0219044Y0278573D03*
X0219075Y0278450D03*
X0219167Y0278204D03*
X0219259Y0277958D03*
X0219290Y0277835D03*
X0219382Y0277589D03*
X0219413Y0277466D03*
X0219475Y0277343D03*
X0219506Y0277219D03*
X0219598Y0276973D03*
X0219628Y0276850D03*
X0219721Y0276604D03*
X0219813Y0276358D03*
X0219844Y0276235D03*
X0220028Y0275743D03*
X0220059Y0275620D03*
X0220151Y0274882D03*
X0220120Y0274759D03*
X0220059Y0274636D03*
X0220028Y0274636D03*
X0219874Y0274513D03*
X0219844Y0274513D03*
X0219321Y0274513D03*
X0219290Y0274513D03*
X0218337Y0274636D03*
X0218306Y0274636D03*
X0218275Y0274636D03*
X0218306Y0274390D03*
X0218337Y0274267D03*
X0218367Y0274021D03*
X0218275Y0273159D03*
X0218244Y0273036D03*
X0218398Y0272913D03*
X0218429Y0272913D03*
X0219628Y0272790D03*
X0219659Y0272790D03*
X0220705Y0272790D03*
X0220736Y0272790D03*
X0220951Y0272913D03*
X0220982Y0272913D03*
X0221105Y0273036D03*
X0221135Y0273036D03*
X0221228Y0273159D03*
X0221320Y0273282D03*
X0221381Y0273406D03*
X0221443Y0273652D03*
X0221474Y0273775D03*
X0221505Y0274021D03*
X0221474Y0274636D03*
X0221443Y0274759D03*
X0221351Y0275128D03*
X0221320Y0275251D03*
X0221228Y0275497D03*
X0221197Y0275620D03*
X0221135Y0275743D03*
X0221105Y0275866D03*
X0221043Y0275989D03*
X0221013Y0276112D03*
X0220889Y0276112D03*
X0220828Y0276604D03*
X0220736Y0276850D03*
X0220643Y0277096D03*
X0220613Y0277219D03*
X0220551Y0277343D03*
X0220520Y0277466D03*
X0220459Y0277589D03*
X0220367Y0277835D03*
X0220336Y0277958D03*
X0220244Y0278204D03*
X0220151Y0278450D03*
X0220059Y0278696D03*
X0220028Y0278819D03*
X0219967Y0278942D03*
X0219874Y0279188D03*
X0219844Y0279311D03*
X0219752Y0279557D03*
X0219659Y0279803D03*
X0219567Y0280049D03*
X0219475Y0280295D03*
X0219382Y0280541D03*
X0219352Y0280664D03*
X0219290Y0280787D03*
X0219259Y0280910D03*
X0219167Y0281156D03*
X0219075Y0281403D03*
X0218983Y0281649D03*
X0218890Y0281895D03*
X0218798Y0282141D03*
X0218767Y0282264D03*
X0218675Y0282510D03*
X0218583Y0282756D03*
X0218491Y0283002D03*
X0218398Y0283248D03*
X0218306Y0283494D03*
X0218183Y0283494D03*
X0218275Y0283617D03*
X0218183Y0283863D03*
X0218121Y0283986D03*
X0218091Y0284109D03*
X0218029Y0284232D03*
X0217998Y0284355D03*
X0217906Y0284601D03*
X0217814Y0284847D03*
X0217691Y0285217D03*
X0217629Y0285340D03*
X0217598Y0285463D03*
X0217537Y0285586D03*
X0217506Y0285709D03*
X0217444Y0285832D03*
X0217414Y0285955D03*
X0217322Y0286201D03*
X0217137Y0286693D03*
X0217106Y0286816D03*
X0217045Y0286939D03*
X0217014Y0287062D03*
X0216952Y0287185D03*
X0216922Y0287308D03*
X0216860Y0287431D03*
X0216830Y0287554D03*
X0216768Y0287677D03*
X0216706Y0287800D03*
X0216676Y0287923D03*
X0216645Y0287923D03*
X0216583Y0288046D03*
X0216522Y0288169D03*
X0216430Y0288292D03*
X0216368Y0288415D03*
X0216337Y0288415D03*
X0216276Y0288538D03*
X0216153Y0288661D03*
X0216061Y0288784D03*
X0216030Y0288784D03*
X0215937Y0288907D03*
X0215907Y0288907D03*
X0215815Y0289031D03*
X0215784Y0289031D03*
X0215661Y0289154D03*
X0215630Y0289154D03*
X0215476Y0289277D03*
X0215353Y0289400D03*
X0215322Y0289400D03*
X0215230Y0289277D03*
X0215169Y0289523D03*
X0215138Y0289523D03*
X0214953Y0289646D03*
X0214922Y0289646D03*
X0214707Y0289769D03*
X0214676Y0289769D03*
X0214338Y0289892D03*
X0214307Y0289892D03*
X0213938Y0290015D03*
X0213907Y0290015D03*
X0213507Y0290138D03*
X0213139Y0290261D03*
X0213108Y0290261D03*
X0212739Y0290384D03*
X0212708Y0290384D03*
X0212339Y0290507D03*
X0211939Y0290630D03*
X0211908Y0290630D03*
X0211539Y0290753D03*
X0211508Y0290753D03*
X0211139Y0290876D03*
X0211109Y0290876D03*
X0210739Y0290999D03*
X0210709Y0290999D03*
X0210309Y0291122D03*
X0209940Y0291245D03*
X0209909Y0291245D03*
X0209540Y0291368D03*
X0209509Y0291368D03*
X0209140Y0291491D03*
X0208740Y0291614D03*
X0208709Y0291614D03*
X0208340Y0291737D03*
X0208309Y0291737D03*
X0207941Y0291860D03*
X0207910Y0291860D03*
X0207541Y0291983D03*
X0207510Y0291983D03*
X0207110Y0292106D03*
X0206741Y0292229D03*
X0206710Y0292229D03*
X0206341Y0292352D03*
X0206310Y0292352D03*
X0205941Y0292475D03*
X0205541Y0292598D03*
X0205511Y0292598D03*
X0205141Y0292721D03*
X0205111Y0292721D03*
X0204742Y0292844D03*
X0204711Y0292844D03*
X0204342Y0292968D03*
X0204311Y0292968D03*
X0203911Y0293091D03*
X0203542Y0293214D03*
X0203511Y0293214D03*
X0202927Y0293337D03*
X0202435Y0293337D03*
X0202004Y0293214D03*
X0201789Y0293091D03*
X0201758Y0293091D03*
X0201635Y0292968D03*
X0201543Y0292844D03*
X0201512Y0292844D03*
X0201450Y0292721D03*
X0201389Y0292598D03*
X0201358Y0292475D03*
X0201820Y0292844D03*
X0201358Y0291491D03*
X0201420Y0290630D03*
X0201543Y0288907D03*
X0201635Y0287554D03*
X0202004Y0287185D03*
X0202035Y0287185D03*
X0202527Y0287062D03*
X0202558Y0287062D03*
X0215538Y0288538D03*
X0221135Y0273282D03*
D20*
X0220859Y0274728D03*
X0220766Y0275036D03*
X0208894Y0278358D03*
X0205326Y0268884D03*
D21*
X0205311Y0268915D03*
X0211708Y0278388D03*
X0202173Y0290199D03*
X0202143Y0290568D03*
X0202112Y0290814D03*
X0202112Y0290938D03*
X0202081Y0291184D03*
X0202081Y0291307D03*
X0202050Y0291553D03*
X0202050Y0291799D03*
D22*
X0201328Y0291922D03*
X0201328Y0292291D03*
X0201420Y0292660D03*
X0201543Y0292660D03*
X0201574Y0292906D03*
X0201604Y0292906D03*
X0201696Y0293029D03*
X0201850Y0293152D03*
X0201881Y0293152D03*
X0202158Y0293275D03*
X0202189Y0293275D03*
X0203296Y0293275D03*
X0203327Y0293275D03*
X0203727Y0293152D03*
X0203757Y0293152D03*
X0204126Y0293029D03*
X0204157Y0293029D03*
X0204526Y0292906D03*
X0204557Y0292906D03*
X0204957Y0292783D03*
X0205326Y0292660D03*
X0205357Y0292660D03*
X0205726Y0292537D03*
X0205757Y0292537D03*
X0206126Y0292414D03*
X0206526Y0292291D03*
X0206556Y0292291D03*
X0206926Y0292168D03*
X0206956Y0292168D03*
X0207325Y0292045D03*
X0207356Y0292045D03*
X0207725Y0291922D03*
X0207756Y0291922D03*
X0208156Y0291799D03*
X0208525Y0291676D03*
X0208556Y0291676D03*
X0208925Y0291553D03*
X0208956Y0291553D03*
X0209324Y0291430D03*
X0209724Y0291307D03*
X0209755Y0291307D03*
X0209724Y0291184D03*
X0210124Y0291184D03*
X0210155Y0291184D03*
X0210524Y0291061D03*
X0210555Y0291061D03*
X0210924Y0290938D03*
X0210955Y0290938D03*
X0211355Y0290814D03*
X0211724Y0290691D03*
X0211754Y0290691D03*
X0212124Y0290568D03*
X0212154Y0290568D03*
X0212523Y0290445D03*
X0212923Y0290322D03*
X0212954Y0290322D03*
X0212923Y0290199D03*
X0213323Y0290199D03*
X0213354Y0290199D03*
X0213723Y0290076D03*
X0213754Y0290076D03*
X0214123Y0289953D03*
X0214154Y0289953D03*
X0214492Y0289830D03*
X0214800Y0289707D03*
X0214830Y0289707D03*
X0215046Y0289584D03*
X0215076Y0289584D03*
X0215230Y0289461D03*
X0215415Y0289338D03*
X0215445Y0289338D03*
X0215569Y0289215D03*
X0215599Y0289215D03*
X0215722Y0289092D03*
X0215845Y0288969D03*
X0215876Y0288969D03*
X0215968Y0288846D03*
X0216091Y0288723D03*
X0216122Y0288723D03*
X0216183Y0288600D03*
X0216214Y0288600D03*
X0216307Y0288477D03*
X0216399Y0288354D03*
X0216460Y0288231D03*
X0216553Y0288108D03*
X0216614Y0287985D03*
X0216799Y0287616D03*
X0216891Y0287370D03*
X0217076Y0286877D03*
X0217168Y0286631D03*
X0217198Y0286508D03*
X0217260Y0286385D03*
X0217291Y0286262D03*
X0217352Y0286139D03*
X0217383Y0286016D03*
X0217568Y0285524D03*
X0217660Y0285278D03*
X0217752Y0285032D03*
X0217783Y0284909D03*
X0217844Y0284786D03*
X0217875Y0284663D03*
X0217937Y0284540D03*
X0218060Y0284171D03*
X0218152Y0283925D03*
X0218244Y0283679D03*
X0218337Y0283433D03*
X0218367Y0283310D03*
X0218429Y0283187D03*
X0218521Y0282940D03*
X0218552Y0282817D03*
X0218613Y0282694D03*
X0218644Y0282571D03*
X0218737Y0282325D03*
X0218829Y0282079D03*
X0218859Y0281956D03*
X0218921Y0281833D03*
X0219013Y0281587D03*
X0219044Y0281464D03*
X0219106Y0281341D03*
X0219136Y0281218D03*
X0219229Y0280972D03*
X0219321Y0280726D03*
X0219413Y0280480D03*
X0219506Y0280234D03*
X0219536Y0280111D03*
X0219598Y0279988D03*
X0219628Y0279865D03*
X0219721Y0279619D03*
X0219782Y0279496D03*
X0219813Y0279373D03*
X0219905Y0279126D03*
X0219998Y0278880D03*
X0220090Y0278634D03*
X0220120Y0278511D03*
X0220213Y0278265D03*
X0220274Y0278142D03*
X0220305Y0278019D03*
X0220120Y0278142D03*
X0220397Y0277773D03*
X0220490Y0277527D03*
X0220582Y0277281D03*
X0220705Y0276912D03*
X0220767Y0276789D03*
X0220797Y0276666D03*
X0220859Y0276543D03*
X0220889Y0276420D03*
X0220951Y0276297D03*
X0220982Y0276174D03*
X0221074Y0275928D03*
X0221259Y0275436D03*
X0221289Y0275313D03*
X0221228Y0275189D03*
X0221135Y0275189D03*
X0221381Y0275066D03*
X0221505Y0274328D03*
X0221351Y0273344D03*
X0221289Y0273221D03*
X0221259Y0273221D03*
X0221197Y0273098D03*
X0221105Y0273221D03*
X0221074Y0272975D03*
X0221043Y0272975D03*
X0220889Y0272852D03*
X0220859Y0272852D03*
X0219044Y0272852D03*
X0219013Y0272852D03*
X0218306Y0273221D03*
X0218337Y0273344D03*
X0218367Y0273590D03*
X0218275Y0274574D03*
X0218798Y0274574D03*
X0218829Y0274574D03*
X0219967Y0274574D03*
X0219998Y0274574D03*
X0220090Y0274697D03*
X0220151Y0275313D03*
X0220120Y0275436D03*
X0220090Y0275559D03*
X0219998Y0275805D03*
X0219967Y0275928D03*
X0219905Y0276051D03*
X0219874Y0276174D03*
X0219782Y0276420D03*
X0219752Y0276543D03*
X0219659Y0276789D03*
X0219567Y0277035D03*
X0219536Y0277158D03*
X0219352Y0277650D03*
X0219321Y0277773D03*
X0219229Y0278019D03*
X0219136Y0278265D03*
X0219106Y0278388D03*
X0219013Y0278634D03*
X0218921Y0278880D03*
X0218890Y0279003D03*
X0218798Y0279250D03*
X0218767Y0279373D03*
X0218675Y0279619D03*
X0218583Y0279865D03*
X0218552Y0279988D03*
X0218491Y0280111D03*
X0218521Y0280357D03*
X0218367Y0280480D03*
X0218337Y0280603D03*
X0218244Y0280849D03*
X0218306Y0280972D03*
X0218152Y0281095D03*
X0218121Y0281218D03*
X0218029Y0281464D03*
X0217937Y0281710D03*
X0217906Y0281833D03*
X0217814Y0282079D03*
X0217691Y0282448D03*
X0217598Y0282694D03*
X0217568Y0282817D03*
X0217506Y0282940D03*
X0217383Y0283310D03*
X0217352Y0283433D03*
X0217291Y0283556D03*
X0217260Y0283679D03*
X0217168Y0283925D03*
X0217137Y0284048D03*
X0217045Y0284294D03*
X0216952Y0284540D03*
X0216922Y0284663D03*
X0216830Y0284909D03*
X0216706Y0285278D03*
X0216614Y0285524D03*
X0216522Y0285770D03*
X0216399Y0286139D03*
X0216368Y0286262D03*
X0216307Y0286385D03*
X0216276Y0286508D03*
X0216183Y0286754D03*
X0216153Y0286877D03*
X0216091Y0287000D03*
X0216061Y0287124D03*
X0215968Y0287370D03*
X0215937Y0287493D03*
X0215845Y0287739D03*
X0215691Y0288108D03*
X0215599Y0288231D03*
X0215476Y0288354D03*
X0215384Y0288477D03*
X0215353Y0288477D03*
X0215230Y0288600D03*
X0215076Y0288723D03*
X0215046Y0288723D03*
X0215107Y0288846D03*
X0214800Y0288846D03*
X0214369Y0288969D03*
X0214338Y0288969D03*
X0213938Y0289092D03*
X0213907Y0289092D03*
X0213507Y0289215D03*
X0213139Y0289338D03*
X0213108Y0289338D03*
X0212923Y0289584D03*
X0212708Y0289461D03*
X0212677Y0289461D03*
X0212277Y0289584D03*
X0211878Y0289707D03*
X0211847Y0289707D03*
X0211478Y0289830D03*
X0211447Y0289830D03*
X0211047Y0289953D03*
X0211016Y0289953D03*
X0210647Y0290076D03*
X0210617Y0290076D03*
X0210217Y0290199D03*
X0210186Y0290199D03*
X0209817Y0290322D03*
X0209786Y0290322D03*
X0209386Y0290445D03*
X0208956Y0290568D03*
X0208925Y0290568D03*
X0208556Y0290691D03*
X0208525Y0290691D03*
X0208094Y0290814D03*
X0207725Y0290938D03*
X0207694Y0290938D03*
X0207325Y0291061D03*
X0207294Y0291061D03*
X0206864Y0291184D03*
X0206464Y0291307D03*
X0206433Y0291307D03*
X0206064Y0291430D03*
X0206033Y0291430D03*
X0206126Y0291553D03*
X0205633Y0291553D03*
X0205603Y0291553D03*
X0205234Y0291676D03*
X0205203Y0291676D03*
X0204834Y0291799D03*
X0204803Y0291799D03*
X0204403Y0291922D03*
X0204372Y0291922D03*
X0203973Y0292045D03*
X0203542Y0292168D03*
X0203511Y0292168D03*
X0203173Y0292168D03*
X0203142Y0292168D03*
X0202927Y0292045D03*
X0202896Y0292045D03*
X0202804Y0291922D03*
X0202804Y0291061D03*
X0202896Y0290199D03*
X0202989Y0289338D03*
X0203050Y0288723D03*
X0203142Y0287862D03*
X0203081Y0287124D03*
X0203235Y0287000D03*
X0202835Y0287000D03*
X0202804Y0287000D03*
X0202312Y0287124D03*
X0202281Y0287124D03*
X0201789Y0287247D03*
X0201758Y0287247D03*
X0201604Y0287985D03*
X0201574Y0288477D03*
X0201512Y0289338D03*
X0201450Y0290199D03*
X0201389Y0291061D03*
X0202281Y0285401D03*
X0202312Y0285401D03*
X0201850Y0285155D03*
X0201912Y0284294D03*
X0201850Y0283187D03*
X0201820Y0283187D03*
X0201450Y0283063D03*
X0201420Y0283063D03*
X0201204Y0282940D03*
X0201174Y0282940D03*
X0201051Y0282817D03*
X0201020Y0282817D03*
X0200897Y0282694D03*
X0200866Y0282694D03*
X0200774Y0282571D03*
X0200681Y0282448D03*
X0200651Y0282448D03*
X0200589Y0282325D03*
X0200528Y0282202D03*
X0200466Y0282079D03*
X0200405Y0281956D03*
X0200282Y0281464D03*
X0200282Y0280849D03*
X0200313Y0280603D03*
X0200405Y0280234D03*
X0200435Y0280111D03*
X0200528Y0279865D03*
X0200589Y0279742D03*
X0200651Y0279619D03*
X0200712Y0279496D03*
X0200805Y0279373D03*
X0200866Y0279250D03*
X0200958Y0279126D03*
X0201051Y0279003D03*
X0201143Y0278880D03*
X0201174Y0278880D03*
X0201266Y0278757D03*
X0201358Y0278634D03*
X0201389Y0278634D03*
X0201512Y0278511D03*
X0201543Y0278511D03*
X0201666Y0278511D03*
X0201666Y0278388D03*
X0201635Y0278388D03*
X0201789Y0278265D03*
X0201820Y0278265D03*
X0202004Y0278142D03*
X0202158Y0278019D03*
X0202189Y0278019D03*
X0202404Y0277896D03*
X0202435Y0277896D03*
X0202681Y0277773D03*
X0203111Y0277650D03*
X0203142Y0277650D03*
X0204096Y0277773D03*
X0204342Y0277650D03*
X0204372Y0277650D03*
X0204711Y0277773D03*
X0204895Y0277896D03*
X0205080Y0278019D03*
X0205111Y0278019D03*
X0205203Y0278142D03*
X0205234Y0278142D03*
X0205326Y0278265D03*
X0205357Y0278265D03*
X0205449Y0278388D03*
X0205511Y0278511D03*
X0205633Y0278757D03*
X0205695Y0278880D03*
X0205726Y0279003D03*
X0205757Y0279126D03*
X0205787Y0279250D03*
X0205818Y0279496D03*
X0205818Y0279865D03*
X0205633Y0280726D03*
X0205541Y0280972D03*
X0205480Y0281095D03*
X0205357Y0281341D03*
X0205295Y0281464D03*
X0205265Y0281464D03*
X0205141Y0281464D03*
X0205203Y0281587D03*
X0205111Y0281710D03*
X0205019Y0281833D03*
X0204895Y0281956D03*
X0204803Y0282079D03*
X0204772Y0282079D03*
X0204649Y0282079D03*
X0204649Y0282202D03*
X0204557Y0282325D03*
X0204526Y0282325D03*
X0204403Y0282448D03*
X0204250Y0282571D03*
X0204219Y0282571D03*
X0204065Y0282694D03*
X0204034Y0282694D03*
X0203880Y0282571D03*
X0203880Y0282817D03*
X0203850Y0282817D03*
X0203634Y0283433D03*
X0203542Y0284294D03*
X0203419Y0285155D03*
X0202865Y0285278D03*
X0202835Y0285278D03*
X0202435Y0281464D03*
X0202404Y0281464D03*
X0202281Y0281341D03*
X0202250Y0281341D03*
X0202189Y0281218D03*
X0202127Y0281095D03*
X0202066Y0280849D03*
X0202096Y0280480D03*
X0202189Y0280234D03*
X0202281Y0280111D03*
X0202343Y0279988D03*
X0202373Y0279988D03*
X0202435Y0279865D03*
X0202589Y0279742D03*
X0202619Y0279742D03*
X0202773Y0279619D03*
X0202804Y0279619D03*
X0203050Y0279496D03*
X0203081Y0279496D03*
X0203665Y0279496D03*
X0203880Y0279619D03*
X0203911Y0279619D03*
X0204004Y0279742D03*
X0204065Y0279865D03*
X0204126Y0280480D03*
X0204096Y0280603D03*
X0204034Y0280726D03*
X0203973Y0280849D03*
X0203911Y0280972D03*
X0203880Y0280972D03*
X0203819Y0281095D03*
X0203788Y0281095D03*
X0203665Y0281218D03*
X0203542Y0281341D03*
X0203511Y0281341D03*
X0203327Y0281464D03*
X0203296Y0281464D03*
X0207941Y0280357D03*
X0207971Y0280480D03*
X0208033Y0280603D03*
X0208094Y0280726D03*
X0208156Y0280849D03*
X0208248Y0280972D03*
X0208340Y0281095D03*
X0208494Y0281218D03*
X0208525Y0281218D03*
X0208740Y0281341D03*
X0208771Y0281341D03*
X0209970Y0281341D03*
X0210001Y0281341D03*
X0210278Y0281218D03*
X0210309Y0281218D03*
X0210524Y0281095D03*
X0210555Y0281095D03*
X0210709Y0280972D03*
X0210739Y0280972D03*
X0210893Y0280849D03*
X0210924Y0280849D03*
X0211047Y0280726D03*
X0211201Y0280603D03*
X0211231Y0280603D03*
X0211355Y0280480D03*
X0211447Y0280357D03*
X0211539Y0280234D03*
X0211631Y0280111D03*
X0211662Y0280111D03*
X0211754Y0279988D03*
X0211847Y0279865D03*
X0211908Y0279742D03*
X0211970Y0279619D03*
X0212000Y0279619D03*
X0212124Y0279373D03*
X0212216Y0279126D03*
X0212277Y0279003D03*
X0212339Y0278757D03*
X0212400Y0278511D03*
X0212431Y0277650D03*
X0212400Y0277527D03*
X0212370Y0277404D03*
X0212339Y0277281D03*
X0212277Y0277158D03*
X0212216Y0277035D03*
X0212124Y0276912D03*
X0212031Y0276789D03*
X0212000Y0276789D03*
X0211878Y0276666D03*
X0211847Y0276666D03*
X0211693Y0276543D03*
X0211662Y0276543D03*
X0211293Y0276420D03*
X0211262Y0276420D03*
X0210739Y0276420D03*
X0210709Y0276420D03*
X0210247Y0276543D03*
X0210217Y0276543D03*
X0209970Y0276666D03*
X0209940Y0276666D03*
X0210001Y0276789D03*
X0209755Y0276789D03*
X0209724Y0276789D03*
X0209663Y0276789D03*
X0209570Y0276666D03*
X0209478Y0276543D03*
X0209386Y0276420D03*
X0209294Y0276297D03*
X0209263Y0276297D03*
X0209202Y0276174D03*
X0209171Y0276174D03*
X0209078Y0276051D03*
X0209017Y0275928D03*
X0208986Y0275928D03*
X0208925Y0275805D03*
X0208894Y0275805D03*
X0208832Y0275682D03*
X0208802Y0275682D03*
X0208740Y0275559D03*
X0208709Y0275559D03*
X0208648Y0275436D03*
X0208556Y0275313D03*
X0208525Y0275313D03*
X0208433Y0275189D03*
X0208340Y0275066D03*
X0208248Y0274943D03*
X0208187Y0275066D03*
X0208156Y0274820D03*
X0208063Y0274697D03*
X0207971Y0274574D03*
X0207787Y0274328D03*
X0207694Y0274205D03*
X0207664Y0274205D03*
X0207602Y0274082D03*
X0207571Y0274082D03*
X0207510Y0273959D03*
X0207479Y0273959D03*
X0207418Y0273836D03*
X0207325Y0273713D03*
X0207294Y0273713D03*
X0207233Y0273590D03*
X0207202Y0273590D03*
X0207172Y0273467D03*
X0207233Y0273344D03*
X0207294Y0273221D03*
X0207356Y0273098D03*
X0207448Y0272852D03*
X0207479Y0272729D03*
X0207510Y0272606D03*
X0207541Y0272483D03*
X0207571Y0272360D03*
X0207602Y0272237D03*
X0207664Y0271499D03*
X0207602Y0270883D03*
X0207510Y0270514D03*
X0207479Y0270391D03*
X0207325Y0270022D03*
X0207264Y0269899D03*
X0207233Y0269899D03*
X0207172Y0269776D03*
X0207079Y0269653D03*
X0206987Y0269530D03*
X0206956Y0269530D03*
X0206833Y0269530D03*
X0206833Y0269407D03*
X0206864Y0269407D03*
X0206741Y0269284D03*
X0206710Y0269284D03*
X0206556Y0269407D03*
X0206556Y0269161D03*
X0206526Y0269161D03*
X0206372Y0269038D03*
X0206341Y0269038D03*
X0206064Y0268915D03*
X0206033Y0268915D03*
X0207048Y0269899D03*
X0205449Y0271006D03*
X0205387Y0271129D03*
X0205357Y0271129D03*
X0205572Y0271252D03*
X0205603Y0271252D03*
X0205695Y0271375D03*
X0205787Y0271499D03*
X0205880Y0271745D03*
X0205880Y0272360D03*
X0205849Y0272483D03*
X0205818Y0272606D03*
X0205757Y0272729D03*
X0205695Y0272852D03*
X0205603Y0272975D03*
X0205511Y0273098D03*
X0205387Y0273221D03*
X0205265Y0273344D03*
X0205234Y0273344D03*
X0205019Y0273467D03*
X0204988Y0273467D03*
X0205111Y0273590D03*
X0204280Y0273467D03*
X0204250Y0273467D03*
X0204250Y0273590D03*
X0204096Y0273344D03*
X0204065Y0273344D03*
X0204004Y0273221D03*
X0203973Y0273221D03*
X0203911Y0273098D03*
X0203850Y0272975D03*
X0203880Y0271991D03*
X0204004Y0271745D03*
X0204065Y0271622D03*
X0204096Y0271622D03*
X0204157Y0271499D03*
X0204280Y0271375D03*
X0204311Y0271375D03*
X0204465Y0271252D03*
X0204711Y0271129D03*
X0203235Y0269899D03*
X0203173Y0269899D03*
X0203173Y0269776D03*
X0203142Y0269776D03*
X0203050Y0269899D03*
X0203019Y0269899D03*
X0202927Y0270022D03*
X0202835Y0270145D03*
X0202743Y0270268D03*
X0202804Y0270391D03*
X0202650Y0270391D03*
X0202589Y0270514D03*
X0202558Y0270514D03*
X0202496Y0270637D03*
X0202435Y0270760D03*
X0202373Y0270883D03*
X0202312Y0271006D03*
X0202250Y0271129D03*
X0202189Y0271252D03*
X0202281Y0271375D03*
X0202096Y0271499D03*
X0202066Y0271622D03*
X0202035Y0271745D03*
X0202004Y0271868D03*
X0201943Y0272114D03*
X0201912Y0272360D03*
X0201943Y0273467D03*
X0202004Y0273713D03*
X0202035Y0273836D03*
X0202127Y0274082D03*
X0202189Y0274205D03*
X0202250Y0274328D03*
X0202312Y0274451D03*
X0202404Y0274574D03*
X0202496Y0274697D03*
X0202589Y0274820D03*
X0202743Y0274943D03*
X0202835Y0275066D03*
X0202865Y0275066D03*
X0203019Y0275189D03*
X0203050Y0275189D03*
X0203235Y0275313D03*
X0203265Y0275313D03*
X0203542Y0275436D03*
X0203573Y0275436D03*
X0204895Y0275436D03*
X0205265Y0275313D03*
X0205295Y0275313D03*
X0205511Y0275189D03*
X0205541Y0275189D03*
X0205726Y0275066D03*
X0205757Y0275066D03*
X0205941Y0275066D03*
X0205972Y0275066D03*
X0206064Y0275189D03*
X0206187Y0275313D03*
X0206249Y0275436D03*
X0206280Y0275436D03*
X0206372Y0275559D03*
X0206464Y0275682D03*
X0206495Y0275682D03*
X0206556Y0275805D03*
X0206587Y0275805D03*
X0206680Y0275928D03*
X0206772Y0276051D03*
X0206802Y0276051D03*
X0206864Y0276174D03*
X0206987Y0276297D03*
X0207079Y0276420D03*
X0207110Y0276420D03*
X0207172Y0276543D03*
X0207202Y0276543D03*
X0207294Y0276666D03*
X0207418Y0276789D03*
X0207479Y0276912D03*
X0207510Y0276912D03*
X0207602Y0277035D03*
X0207694Y0277158D03*
X0207725Y0277158D03*
X0207787Y0277281D03*
X0207817Y0277281D03*
X0207910Y0277404D03*
X0208002Y0277527D03*
X0208094Y0277650D03*
X0208187Y0277773D03*
X0208217Y0277773D03*
X0208309Y0277896D03*
X0208340Y0277896D03*
X0208402Y0278019D03*
X0208433Y0278019D03*
X0208402Y0278142D03*
X0208340Y0278265D03*
X0208279Y0278388D03*
X0208156Y0278634D03*
X0208094Y0278757D03*
X0208063Y0278880D03*
X0207910Y0279496D03*
X0209417Y0279619D03*
X0209478Y0279742D03*
X0209632Y0279865D03*
X0209509Y0279988D03*
X0210217Y0279865D03*
X0210247Y0279865D03*
X0210432Y0279742D03*
X0210463Y0279742D03*
X0210617Y0279619D03*
X0210709Y0279496D03*
X0210801Y0279373D03*
X0210863Y0279250D03*
X0210893Y0279250D03*
X0210985Y0279003D03*
X0211016Y0278880D03*
X0211047Y0278634D03*
X0210924Y0278265D03*
X0210801Y0278142D03*
X0210770Y0278142D03*
X0210186Y0278142D03*
X0210155Y0278142D03*
X0209970Y0278265D03*
X0209940Y0278265D03*
X0209817Y0278388D03*
X0209786Y0278388D03*
X0209694Y0278511D03*
X0209509Y0278757D03*
X0209448Y0278880D03*
X0209417Y0279003D03*
X0206710Y0275682D03*
X0203296Y0269776D03*
X0203296Y0269653D03*
X0203265Y0269653D03*
X0203419Y0269530D03*
X0203573Y0269407D03*
X0203604Y0269407D03*
X0203757Y0269284D03*
X0203788Y0269284D03*
X0203973Y0269161D03*
X0204004Y0269161D03*
X0204219Y0269038D03*
X0204250Y0269038D03*
X0204557Y0268915D03*
X0204588Y0268915D03*
D23*
X0205311Y0268946D03*
X0206541Y0273067D03*
X0208694Y0279957D03*
X0201128Y0280511D03*
X0202112Y0292076D03*
D24*
X0206772Y0271929D03*
X0205295Y0268976D03*
D25*
X0205295Y0269007D03*
X0205265Y0269130D03*
X0206710Y0271468D03*
X0202896Y0272083D03*
X0202865Y0272206D03*
X0202865Y0272267D03*
X0202835Y0272390D03*
X0202835Y0272575D03*
X0202835Y0272637D03*
X0202835Y0272698D03*
X0202835Y0272760D03*
D26*
X0205295Y0269038D03*
X0207233Y0275313D03*
X0207756Y0275682D03*
X0208033Y0276297D03*
X0208525Y0276666D03*
D27*
X0204249Y0275343D03*
X0205449Y0269069D03*
X0204403Y0281372D03*
X0201174Y0280941D03*
X0209325Y0281126D03*
X0214769Y0289123D03*
D28*
X0205926Y0291522D03*
X0201989Y0285432D03*
X0201989Y0285309D03*
X0209894Y0281310D03*
X0202635Y0274667D03*
X0204357Y0269069D03*
X0218414Y0273006D03*
X0218444Y0274482D03*
D29*
X0205249Y0275251D03*
X0204295Y0273529D03*
X0202573Y0274636D03*
X0204265Y0269099D03*
X0206295Y0269099D03*
X0203588Y0281403D03*
X0201927Y0293091D03*
D30*
X0204957Y0279926D03*
X0206679Y0272544D03*
X0206741Y0272298D03*
X0205264Y0269099D03*
D31*
X0206356Y0269130D03*
X0206725Y0269438D03*
X0203988Y0273375D03*
X0203188Y0279342D03*
X0203803Y0281249D03*
X0203373Y0281495D03*
X0203096Y0286970D03*
X0209955Y0278173D03*
X0218936Y0279280D03*
D32*
X0218921Y0279219D03*
X0219259Y0280572D03*
X0217199Y0284202D03*
X0215322Y0288631D03*
X0215076Y0289492D03*
X0208617Y0281187D03*
X0209694Y0278358D03*
X0207295Y0273867D03*
X0204219Y0275528D03*
X0201912Y0278296D03*
X0201420Y0278727D03*
X0200682Y0282295D03*
X0203757Y0282787D03*
X0201758Y0287339D03*
X0203696Y0292260D03*
X0220951Y0273006D03*
X0204188Y0269130D03*
X0203973Y0271591D03*
D33*
X0206295Y0269161D03*
X0202050Y0285401D03*
X0206695Y0292168D03*
D34*
X0203096Y0273590D03*
X0205034Y0269161D03*
D35*
X0205265Y0269192D03*
D36*
X0205264Y0269222D03*
X0203696Y0270945D03*
D37*
X0202712Y0270330D03*
X0202466Y0270699D03*
X0202219Y0271191D03*
X0203204Y0269715D03*
X0203696Y0269345D03*
X0204926Y0271068D03*
X0205172Y0271068D03*
X0205664Y0271314D03*
X0205664Y0272913D03*
X0204434Y0273529D03*
X0204188Y0273406D03*
X0203942Y0273159D03*
X0202219Y0274267D03*
X0202958Y0275128D03*
X0205418Y0275251D03*
X0205664Y0275128D03*
X0205910Y0275005D03*
X0206403Y0275620D03*
X0206649Y0275866D03*
X0207141Y0276481D03*
X0207633Y0277096D03*
X0207879Y0277343D03*
X0208371Y0277958D03*
X0208371Y0278204D03*
X0208125Y0278696D03*
X0209355Y0279434D03*
X0210340Y0279803D03*
X0210832Y0279311D03*
X0209847Y0278327D03*
X0209847Y0276727D03*
X0209601Y0276727D03*
X0210094Y0276604D03*
X0208863Y0275743D03*
X0208371Y0275128D03*
X0208125Y0274759D03*
X0207633Y0274144D03*
X0207633Y0271068D03*
X0207141Y0269715D03*
X0206895Y0269469D03*
X0206649Y0269222D03*
X0203450Y0277589D03*
X0205172Y0278081D03*
X0205664Y0278819D03*
X0205664Y0280664D03*
X0205172Y0281649D03*
X0203942Y0280910D03*
X0203450Y0281403D03*
X0202219Y0281280D03*
X0202219Y0280172D03*
X0200743Y0279434D03*
X0200989Y0279065D03*
X0201235Y0278819D03*
X0201727Y0278327D03*
X0203942Y0279680D03*
X0203942Y0282756D03*
X0200497Y0282141D03*
X0208125Y0280787D03*
X0208617Y0281280D03*
X0210832Y0280910D03*
X0212308Y0277219D03*
X0212062Y0276850D03*
X0218952Y0278819D03*
X0219198Y0278081D03*
X0219936Y0279065D03*
X0219444Y0280418D03*
X0219198Y0281033D03*
X0218214Y0280910D03*
X0217968Y0281649D03*
X0218706Y0282387D03*
X0218214Y0283740D03*
X0217229Y0283740D03*
X0216983Y0284478D03*
X0217721Y0285094D03*
X0217229Y0286447D03*
X0216245Y0286570D03*
X0215999Y0287308D03*
X0216245Y0288538D03*
X0215507Y0289277D03*
X0213538Y0290138D03*
X0213292Y0289277D03*
X0212062Y0289646D03*
X0212308Y0290507D03*
X0210832Y0290015D03*
X0210340Y0291122D03*
X0209601Y0290384D03*
X0209109Y0291491D03*
X0207141Y0292106D03*
X0206649Y0291245D03*
X0205418Y0291614D03*
X0205910Y0292475D03*
X0204188Y0291983D03*
X0203942Y0293091D03*
X0202958Y0293337D03*
X0202466Y0293337D03*
X0201973Y0293214D03*
X0202958Y0292106D03*
X0201481Y0289769D03*
X0219936Y0275989D03*
X0220920Y0276358D03*
X0220428Y0277712D03*
X0221412Y0273529D03*
D38*
X0205372Y0269253D03*
D39*
X0203942Y0269253D03*
X0203450Y0269622D03*
X0202958Y0270114D03*
X0205634Y0273067D03*
X0207202Y0273252D03*
X0207418Y0273990D03*
X0208371Y0275220D03*
X0208648Y0275589D03*
X0207633Y0276943D03*
X0207879Y0277250D03*
X0205418Y0278481D03*
X0204127Y0280757D03*
X0203481Y0281433D03*
X0204003Y0282664D03*
X0202466Y0279772D03*
X0201174Y0278973D03*
X0201973Y0278234D03*
X0202250Y0278050D03*
X0200528Y0282048D03*
X0200712Y0282356D03*
X0211139Y0280572D03*
X0210832Y0278111D03*
X0218183Y0281249D03*
X0218736Y0282110D03*
X0217475Y0285555D03*
X0216768Y0287462D03*
X0216553Y0287954D03*
X0216030Y0288692D03*
X0219721Y0276820D03*
X0221228Y0273313D03*
X0206956Y0269622D03*
D40*
X0205249Y0269284D03*
X0213339Y0289707D03*
X0206695Y0291676D03*
X0205864Y0292045D03*
X0205003Y0292168D03*
X0203065Y0292906D03*
D41*
X0211647Y0290169D03*
X0212477Y0290046D03*
X0209525Y0280880D03*
X0205403Y0269315D03*
D42*
X0204019Y0269315D03*
X0205495Y0271037D03*
X0205495Y0273313D03*
X0201066Y0279219D03*
X0201927Y0287339D03*
X0204511Y0292014D03*
X0217030Y0284878D03*
X0211954Y0279588D03*
X0211862Y0279588D03*
D43*
X0210786Y0279526D03*
X0210662Y0280941D03*
X0210355Y0281126D03*
X0208110Y0280572D03*
X0208294Y0278542D03*
X0208048Y0277435D03*
X0207371Y0276635D03*
X0206572Y0275651D03*
X0207464Y0274051D03*
X0209894Y0276758D03*
X0210017Y0276697D03*
X0205710Y0280080D03*
X0202942Y0275036D03*
X0202881Y0274974D03*
X0202635Y0274728D03*
X0205434Y0270976D03*
X0203896Y0269438D03*
X0203865Y0269315D03*
X0203681Y0269438D03*
X0214999Y0288815D03*
D44*
X0211155Y0280541D03*
X0205710Y0280049D03*
X0205710Y0275005D03*
X0207464Y0272421D03*
X0206664Y0269345D03*
X0201066Y0282756D03*
D45*
X0208110Y0291245D03*
X0205126Y0269345D03*
D46*
X0206726Y0269376D03*
X0204050Y0271529D03*
X0203804Y0273067D03*
X0202389Y0274421D03*
X0201589Y0278542D03*
X0203804Y0281187D03*
X0205280Y0278296D03*
X0207556Y0276881D03*
X0207310Y0273805D03*
X0211954Y0276820D03*
X0220013Y0278665D03*
X0216906Y0284878D03*
X0215430Y0288508D03*
X0203096Y0269930D03*
D47*
X0205111Y0269376D03*
X0219782Y0273375D03*
X0208248Y0291214D03*
X0207571Y0291522D03*
X0206587Y0291706D03*
D48*
X0215445Y0289215D03*
X0209878Y0276789D03*
X0208402Y0275313D03*
X0205388Y0275189D03*
X0204219Y0277773D03*
X0204957Y0278019D03*
X0203696Y0279373D03*
X0201174Y0282817D03*
X0206710Y0269407D03*
D49*
X0205080Y0269407D03*
X0209570Y0280726D03*
D50*
X0204280Y0275159D03*
X0205295Y0269438D03*
X0202865Y0292875D03*
D51*
X0205218Y0269469D03*
D52*
X0205203Y0269499D03*
D53*
X0206895Y0269530D03*
X0207418Y0270391D03*
X0207602Y0271868D03*
X0207387Y0272852D03*
X0207171Y0273344D03*
X0205941Y0272360D03*
X0204188Y0273590D03*
X0203727Y0272483D03*
X0202004Y0272114D03*
X0201943Y0272729D03*
X0201943Y0273098D03*
X0202004Y0273467D03*
X0203234Y0269776D03*
X0206925Y0275928D03*
X0209355Y0279003D03*
X0209325Y0279126D03*
X0209355Y0279619D03*
X0211078Y0278880D03*
X0211847Y0279742D03*
X0205203Y0281464D03*
X0204711Y0282079D03*
X0203973Y0282571D03*
X0202004Y0283679D03*
X0201943Y0284540D03*
X0203419Y0285032D03*
X0203173Y0287124D03*
X0201697Y0287370D03*
X0202988Y0288723D03*
X0202927Y0289461D03*
X0201512Y0289953D03*
X0201481Y0292660D03*
X0212800Y0289584D03*
X0216030Y0287370D03*
X0217199Y0286385D03*
X0217475Y0285647D03*
X0216768Y0285278D03*
X0218952Y0281587D03*
X0218244Y0280972D03*
X0218460Y0280357D03*
X0219167Y0278388D03*
X0220213Y0278142D03*
X0221197Y0273221D03*
X0201020Y0279126D03*
X0200466Y0280234D03*
D54*
X0209647Y0280480D03*
X0205126Y0269530D03*
D55*
X0204680Y0271129D03*
X0204434Y0271252D03*
X0204188Y0271499D03*
X0203942Y0271868D03*
X0201973Y0271991D03*
X0201973Y0273590D03*
X0202466Y0274697D03*
X0202712Y0274943D03*
X0204926Y0275436D03*
X0206156Y0275313D03*
X0206895Y0276174D03*
X0207387Y0276789D03*
X0207879Y0277158D03*
X0208125Y0277650D03*
X0209355Y0276420D03*
X0209109Y0276051D03*
X0208617Y0275436D03*
X0207879Y0274451D03*
X0207387Y0273836D03*
X0207387Y0272975D03*
X0207633Y0271991D03*
X0207387Y0270145D03*
X0207141Y0269899D03*
X0203450Y0269530D03*
X0202958Y0270022D03*
X0205418Y0273221D03*
X0205418Y0273344D03*
X0204680Y0277773D03*
X0204926Y0277896D03*
X0205418Y0278388D03*
X0203696Y0279496D03*
X0202466Y0279865D03*
X0200989Y0279250D03*
X0200497Y0279988D03*
X0201973Y0278142D03*
X0202712Y0277773D03*
X0203696Y0281218D03*
X0204680Y0282202D03*
X0204926Y0281956D03*
X0204434Y0282448D03*
X0205418Y0281218D03*
X0208371Y0281095D03*
X0209601Y0279865D03*
X0209355Y0279250D03*
X0209601Y0278634D03*
X0210586Y0279619D03*
X0211324Y0280480D03*
X0211570Y0280234D03*
X0211816Y0279865D03*
X0212062Y0279496D03*
X0212308Y0278880D03*
X0211078Y0280726D03*
X0215753Y0287985D03*
X0215507Y0288354D03*
X0215261Y0288600D03*
X0214769Y0288846D03*
X0215261Y0289461D03*
X0215753Y0289092D03*
X0215999Y0288846D03*
X0216491Y0288231D03*
X0216737Y0287739D03*
X0216983Y0287124D03*
X0216491Y0285893D03*
X0216737Y0285155D03*
X0217475Y0285770D03*
X0217968Y0284417D03*
X0218460Y0283063D03*
X0217475Y0283063D03*
X0217721Y0282325D03*
X0218952Y0281710D03*
X0218460Y0280234D03*
X0218706Y0279496D03*
X0219690Y0279742D03*
X0220182Y0278388D03*
X0219444Y0277404D03*
X0219690Y0276666D03*
X0220674Y0277035D03*
X0221166Y0275682D03*
X0221166Y0275189D03*
X0221412Y0274943D03*
X0221166Y0273098D03*
X0218214Y0272975D03*
X0213538Y0289215D03*
X0214523Y0289830D03*
X0212554Y0290445D03*
X0212308Y0289584D03*
X0211324Y0290814D03*
X0209355Y0290445D03*
X0209355Y0291430D03*
X0208125Y0291799D03*
X0208125Y0290814D03*
X0206895Y0291184D03*
X0206156Y0292414D03*
X0204926Y0292783D03*
X0203942Y0292045D03*
X0201727Y0293029D03*
X0201481Y0292783D03*
X0202958Y0289584D03*
X0203204Y0287247D03*
X0203450Y0285155D03*
X0201973Y0283433D03*
X0200743Y0282571D03*
D56*
X0202019Y0280511D03*
X0200512Y0280141D03*
X0203957Y0281003D03*
X0203988Y0280941D03*
X0204173Y0280511D03*
X0205218Y0281433D03*
X0204942Y0281802D03*
X0204726Y0282048D03*
X0205649Y0280511D03*
X0205680Y0279034D03*
X0208386Y0278296D03*
X0208417Y0277927D03*
X0208386Y0277865D03*
X0209371Y0278911D03*
X0209401Y0279772D03*
X0210816Y0279465D03*
X0210847Y0279403D03*
X0212108Y0279219D03*
X0209647Y0281310D03*
X0207156Y0276389D03*
X0206418Y0275528D03*
X0207894Y0274605D03*
X0208140Y0274913D03*
X0205464Y0273252D03*
X0202173Y0274051D03*
X0202266Y0271222D03*
X0202481Y0270791D03*
X0202912Y0270176D03*
X0203219Y0269807D03*
X0206910Y0269561D03*
X0207156Y0269868D03*
X0219644Y0277004D03*
X0218906Y0279157D03*
X0219675Y0279588D03*
X0219182Y0280941D03*
X0218444Y0280511D03*
X0217675Y0282664D03*
X0217429Y0283402D03*
X0218260Y0283463D03*
X0218014Y0284140D03*
X0217029Y0284509D03*
X0216968Y0284694D03*
X0216968Y0284755D03*
X0214999Y0289553D03*
X0208171Y0291645D03*
X0204972Y0292629D03*
X0220167Y0274728D03*
X0221428Y0273805D03*
D57*
X0209663Y0280449D03*
X0205111Y0269561D03*
D58*
X0205203Y0269592D03*
X0202527Y0282264D03*
D59*
X0203604Y0278173D03*
X0205172Y0269622D03*
D60*
X0205188Y0269653D03*
X0202481Y0282325D03*
D61*
X0200897Y0282602D03*
X0202343Y0279895D03*
X0201328Y0278788D03*
X0205757Y0274974D03*
X0208463Y0275343D03*
X0207787Y0277127D03*
X0207479Y0270668D03*
X0207018Y0269684D03*
X0215353Y0289307D03*
D62*
X0202512Y0282479D03*
X0205095Y0269684D03*
D63*
X0205172Y0269715D03*
D64*
X0205172Y0269745D03*
D65*
X0205249Y0269776D03*
D66*
X0205249Y0269807D03*
X0203619Y0278542D03*
D67*
X0203496Y0278573D03*
X0205157Y0269838D03*
D68*
X0205142Y0269868D03*
D69*
X0203142Y0269868D03*
X0202158Y0271468D03*
X0202127Y0273928D03*
X0205357Y0273313D03*
X0205572Y0273129D03*
X0208248Y0275036D03*
X0207448Y0276758D03*
X0205726Y0280203D03*
X0205541Y0280818D03*
X0205295Y0281310D03*
X0203542Y0283894D03*
X0202035Y0283217D03*
X0201912Y0284940D03*
X0201881Y0285370D03*
X0201666Y0287769D03*
X0203050Y0288323D03*
X0200405Y0281802D03*
X0200313Y0281003D03*
X0202035Y0281003D03*
X0200928Y0279280D03*
X0210186Y0281064D03*
X0211416Y0280326D03*
X0210893Y0279342D03*
X0212400Y0278234D03*
X0218767Y0279526D03*
X0219136Y0278481D03*
X0219874Y0276327D03*
X0221259Y0275220D03*
X0221289Y0275159D03*
X0221289Y0273375D03*
X0219259Y0280757D03*
X0218767Y0282048D03*
X0218029Y0281987D03*
X0217906Y0281987D03*
X0217168Y0284140D03*
X0207202Y0269930D03*
D70*
X0207187Y0269899D03*
X0206541Y0275682D03*
X0203281Y0275189D03*
X0202020Y0273590D03*
X0210170Y0276789D03*
D71*
X0205142Y0269899D03*
D72*
X0203111Y0269899D03*
X0203019Y0270022D03*
X0204004Y0273344D03*
X0207479Y0272483D03*
X0210739Y0276543D03*
X0210893Y0276543D03*
X0212154Y0279126D03*
X0218767Y0282079D03*
X0218306Y0283310D03*
X0215815Y0287985D03*
X0219752Y0276666D03*
X0221289Y0275189D03*
X0203511Y0284048D03*
X0201912Y0284909D03*
X0200313Y0280972D03*
X0200559Y0279988D03*
X0200928Y0279250D03*
X0201604Y0278511D03*
X0201543Y0289461D03*
X0201543Y0289707D03*
X0201420Y0292537D03*
D73*
X0205157Y0269930D03*
D74*
X0205142Y0269961D03*
X0210309Y0277712D03*
D75*
X0205203Y0270114D03*
X0205142Y0269991D03*
D76*
X0205203Y0270022D03*
X0203604Y0292537D03*
D77*
X0210232Y0277558D03*
X0210201Y0277496D03*
X0209924Y0276943D03*
X0209894Y0276881D03*
X0205126Y0270053D03*
D78*
X0205126Y0270084D03*
D79*
X0205218Y0270145D03*
D80*
X0202942Y0270145D03*
X0207464Y0274082D03*
X0210047Y0278142D03*
X0209678Y0278388D03*
X0210355Y0279865D03*
X0210416Y0281095D03*
X0205495Y0280849D03*
X0205249Y0281341D03*
X0202973Y0287124D03*
X0216506Y0287985D03*
D81*
X0205188Y0270176D03*
D82*
X0205111Y0270207D03*
D83*
X0205095Y0270237D03*
X0205157Y0270360D03*
D84*
X0205095Y0270268D03*
D85*
X0205080Y0270299D03*
X0203450Y0279280D03*
X0202712Y0281741D03*
D86*
X0202004Y0280787D03*
X0200497Y0282018D03*
X0201943Y0284478D03*
X0202958Y0289154D03*
X0201481Y0290384D03*
X0202712Y0291491D03*
X0205449Y0281033D03*
X0205634Y0280541D03*
X0204188Y0280049D03*
X0208125Y0280664D03*
X0209325Y0279557D03*
X0211078Y0278450D03*
X0211047Y0278327D03*
X0212308Y0278696D03*
X0210124Y0276727D03*
X0208402Y0275251D03*
X0207633Y0276973D03*
X0203727Y0272667D03*
X0203727Y0272421D03*
X0202004Y0273529D03*
X0205941Y0271806D03*
X0205910Y0271683D03*
X0207602Y0271191D03*
X0207387Y0270330D03*
X0218460Y0274513D03*
X0220213Y0275128D03*
X0220951Y0276112D03*
X0221412Y0274636D03*
X0221443Y0274390D03*
X0221412Y0273775D03*
X0220397Y0277589D03*
X0219413Y0280295D03*
X0217752Y0282387D03*
X0217475Y0283248D03*
X0218244Y0283494D03*
X0218214Y0283617D03*
X0218429Y0283002D03*
X0217968Y0284232D03*
X0217721Y0284970D03*
X0216737Y0285340D03*
X0216276Y0286693D03*
D87*
X0205019Y0270330D03*
D88*
X0205880Y0271591D03*
X0205941Y0271775D03*
X0205941Y0272329D03*
X0207110Y0273498D03*
X0207602Y0271898D03*
X0207602Y0271837D03*
X0208094Y0275036D03*
X0208586Y0275466D03*
X0207633Y0277004D03*
X0206618Y0275774D03*
X0203727Y0272514D03*
X0203727Y0272452D03*
X0202004Y0272144D03*
X0202189Y0271406D03*
X0202742Y0270360D03*
X0201943Y0273129D03*
X0202004Y0273436D03*
X0202004Y0273559D03*
X0200958Y0279219D03*
X0200774Y0279526D03*
X0202004Y0280757D03*
X0202004Y0283709D03*
X0201973Y0283955D03*
X0201943Y0284509D03*
X0203419Y0285063D03*
X0203173Y0287093D03*
X0201697Y0287400D03*
X0202958Y0289184D03*
X0202927Y0289492D03*
X0201481Y0290415D03*
X0201481Y0292629D03*
X0202958Y0292260D03*
X0204926Y0281864D03*
X0208125Y0280695D03*
X0211078Y0278542D03*
X0211078Y0278419D03*
X0212308Y0278665D03*
X0211785Y0279834D03*
X0218183Y0281187D03*
X0218244Y0281003D03*
X0218460Y0280388D03*
X0218921Y0281679D03*
X0217475Y0283217D03*
X0217014Y0284571D03*
X0216706Y0285432D03*
X0216491Y0286047D03*
X0217199Y0286355D03*
X0217014Y0286847D03*
X0218952Y0278973D03*
X0220151Y0278296D03*
X0220213Y0278173D03*
X0220951Y0276081D03*
X0221197Y0275466D03*
X0221382Y0274851D03*
X0221412Y0274667D03*
X0221443Y0273867D03*
X0221412Y0273744D03*
X0221197Y0273190D03*
X0220213Y0275097D03*
X0220213Y0275282D03*
D89*
X0205095Y0270391D03*
X0202604Y0281833D03*
D90*
X0202019Y0280603D03*
X0202512Y0279742D03*
X0204173Y0279988D03*
X0204203Y0280111D03*
X0204942Y0281833D03*
X0204449Y0282325D03*
X0209371Y0278880D03*
X0211555Y0280111D03*
X0206879Y0276051D03*
X0203927Y0271745D03*
X0202204Y0271375D03*
X0202727Y0270391D03*
X0219644Y0277035D03*
X0219429Y0277650D03*
X0220228Y0275189D03*
X0221212Y0275313D03*
X0217675Y0282694D03*
X0217275Y0283802D03*
X0216291Y0286631D03*
X0215768Y0288108D03*
X0216014Y0288723D03*
X0202696Y0291676D03*
D91*
X0205080Y0270422D03*
D92*
X0205065Y0270453D03*
D93*
X0205049Y0270484D03*
D94*
X0205049Y0270514D03*
X0202743Y0281587D03*
D95*
X0205049Y0270545D03*
D96*
X0205034Y0270576D03*
D97*
X0205034Y0270607D03*
D98*
X0205034Y0270637D03*
D99*
X0204926Y0270668D03*
D100*
X0205019Y0270699D03*
D101*
X0205003Y0270730D03*
X0204603Y0273867D03*
D102*
X0205018Y0270760D03*
D103*
X0205080Y0270791D03*
X0204834Y0274051D03*
D104*
X0204849Y0273898D03*
X0205003Y0270822D03*
D105*
X0204988Y0270853D03*
X0204711Y0273990D03*
X0205418Y0274667D03*
D106*
X0204742Y0274082D03*
X0204988Y0270883D03*
D107*
X0204988Y0270914D03*
X0204619Y0273682D03*
D108*
X0206479Y0270945D03*
D109*
X0205218Y0270945D03*
X0205403Y0273282D03*
X0203957Y0273282D03*
X0206418Y0275497D03*
X0207341Y0276604D03*
X0207433Y0272667D03*
X0210847Y0279434D03*
X0211616Y0280049D03*
X0204972Y0281772D03*
X0204173Y0280541D03*
X0201189Y0278942D03*
X0200451Y0281895D03*
X0201189Y0282879D03*
X0203188Y0286939D03*
X0203158Y0287062D03*
X0201527Y0292721D03*
X0215030Y0288784D03*
X0216506Y0288046D03*
X0216230Y0286816D03*
X0216783Y0285217D03*
X0217460Y0285586D03*
X0218014Y0284109D03*
X0219459Y0277589D03*
X0221212Y0275374D03*
D110*
X0205741Y0271191D03*
X0205095Y0270945D03*
X0203250Y0275128D03*
X0204388Y0282264D03*
D111*
X0204803Y0279526D03*
X0201328Y0281433D03*
X0206987Y0275036D03*
X0206003Y0273498D03*
X0206587Y0271037D03*
X0206587Y0270976D03*
D112*
X0204926Y0270976D03*
D113*
X0203450Y0270976D03*
X0203112Y0273621D03*
X0208064Y0276204D03*
X0208156Y0276327D03*
X0208310Y0276512D03*
D114*
X0206541Y0271006D03*
D115*
X0203865Y0271006D03*
D116*
X0205018Y0271037D03*
X0218736Y0280572D03*
X0217445Y0284755D03*
X0216553Y0286847D03*
D117*
X0213815Y0289615D03*
X0209386Y0280941D03*
X0207818Y0275897D03*
X0207664Y0275712D03*
X0207418Y0275405D03*
X0207325Y0275282D03*
X0206895Y0274913D03*
X0203450Y0271037D03*
D118*
X0206418Y0271068D03*
D119*
X0203588Y0271068D03*
D120*
X0206495Y0271099D03*
X0214184Y0289369D03*
D121*
X0212400Y0289922D03*
X0202558Y0292199D03*
X0202435Y0282910D03*
X0203511Y0271099D03*
D122*
X0206526Y0271129D03*
D123*
X0203465Y0271129D03*
D124*
X0206556Y0271160D03*
X0207418Y0275466D03*
X0210647Y0279957D03*
D125*
X0207187Y0275097D03*
X0207095Y0274974D03*
X0203681Y0277865D03*
X0203404Y0271160D03*
D126*
X0206664Y0271191D03*
X0206756Y0272175D03*
X0206603Y0272790D03*
X0206541Y0272913D03*
X0210908Y0279926D03*
D127*
X0211847Y0276727D03*
X0208156Y0277589D03*
X0206925Y0276112D03*
X0206833Y0275989D03*
X0202742Y0274882D03*
X0202158Y0273898D03*
X0202250Y0271314D03*
X0205603Y0271191D03*
X0202404Y0277958D03*
X0202219Y0280049D03*
X0204127Y0279803D03*
X0204742Y0282018D03*
X0201912Y0285463D03*
X0215814Y0288907D03*
X0217199Y0284109D03*
X0221228Y0273282D03*
D128*
X0209970Y0281280D03*
X0202343Y0279803D03*
X0204342Y0271191D03*
X0209724Y0291245D03*
X0206526Y0292229D03*
X0212923Y0290261D03*
D129*
X0201205Y0281156D03*
X0201451Y0279926D03*
X0201697Y0279680D03*
X0203173Y0271191D03*
D130*
X0202973Y0273313D03*
X0206603Y0271222D03*
X0208571Y0276758D03*
X0201743Y0279588D03*
D131*
X0202558Y0279649D03*
X0202404Y0277988D03*
X0205357Y0273375D03*
X0204342Y0271222D03*
X0208863Y0281310D03*
X0210432Y0281064D03*
X0210770Y0280818D03*
X0213077Y0290230D03*
X0211662Y0290661D03*
X0209878Y0291214D03*
X0208463Y0291645D03*
X0206679Y0292199D03*
X0205264Y0292629D03*
X0218398Y0274605D03*
D132*
X0210924Y0276635D03*
X0208771Y0279895D03*
X0204957Y0279834D03*
X0201481Y0279772D03*
X0201266Y0280326D03*
X0201235Y0280388D03*
X0201235Y0280449D03*
X0201205Y0280572D03*
X0201174Y0280695D03*
X0201174Y0280818D03*
X0202773Y0272514D03*
X0202773Y0272452D03*
X0202958Y0271591D03*
X0203234Y0271222D03*
X0206556Y0272883D03*
X0206495Y0273006D03*
D133*
X0206633Y0271252D03*
D134*
X0204326Y0271252D03*
D135*
X0203188Y0271252D03*
X0203065Y0271622D03*
X0204265Y0275313D03*
X0207987Y0275928D03*
X0204819Y0279373D03*
X0201251Y0281341D03*
X0202327Y0292291D03*
D136*
X0206649Y0271283D03*
D137*
X0204296Y0271283D03*
X0216353Y0288262D03*
X0206510Y0292137D03*
D138*
X0214615Y0289184D03*
X0202865Y0273006D03*
X0202865Y0272944D03*
X0202989Y0271775D03*
X0203019Y0271714D03*
X0203173Y0271283D03*
X0206680Y0271345D03*
D139*
X0206664Y0271314D03*
X0203035Y0271683D03*
X0202881Y0273036D03*
X0203096Y0273529D03*
X0204819Y0279434D03*
D140*
X0205265Y0281403D03*
X0208063Y0280541D03*
X0209417Y0278819D03*
X0212400Y0278204D03*
X0219013Y0278819D03*
X0219998Y0278696D03*
X0219013Y0281403D03*
X0216922Y0284847D03*
X0216583Y0287923D03*
X0218337Y0274513D03*
X0218306Y0273036D03*
X0221043Y0273036D03*
X0204280Y0271314D03*
X0203757Y0272175D03*
X0203757Y0272913D03*
X0200681Y0279680D03*
X0200681Y0282387D03*
X0201881Y0285340D03*
X0203542Y0283863D03*
X0203050Y0288292D03*
D141*
X0214692Y0289154D03*
X0202850Y0272298D03*
X0203281Y0271314D03*
D142*
X0203234Y0271345D03*
D143*
X0203296Y0271375D03*
X0202865Y0272975D03*
X0206680Y0271375D03*
D144*
X0206695Y0271406D03*
X0206203Y0273559D03*
X0202881Y0273375D03*
X0202850Y0272883D03*
X0202850Y0272821D03*
X0202911Y0272021D03*
X0203281Y0271406D03*
X0211001Y0276758D03*
D145*
X0206710Y0271437D03*
X0202896Y0272052D03*
X0202835Y0272544D03*
X0202835Y0272790D03*
D146*
X0203173Y0271437D03*
X0204188Y0281526D03*
D147*
X0202343Y0279834D03*
X0204065Y0271468D03*
D148*
X0203081Y0271468D03*
X0206772Y0272021D03*
X0206772Y0272083D03*
D149*
X0206726Y0271499D03*
X0202850Y0272360D03*
X0210909Y0276666D03*
D150*
X0211108Y0276543D03*
X0207233Y0273836D03*
X0204003Y0271499D03*
X0214953Y0288846D03*
D151*
X0214415Y0289215D03*
X0209401Y0281218D03*
X0204942Y0279865D03*
X0201527Y0279619D03*
X0202973Y0271499D03*
X0206756Y0271991D03*
X0206756Y0272114D03*
D152*
X0206726Y0271529D03*
X0203035Y0271529D03*
X0202850Y0272329D03*
X0201404Y0280018D03*
D153*
X0206741Y0271560D03*
D154*
X0203096Y0271560D03*
X0202911Y0273159D03*
X0201281Y0281403D03*
D155*
X0204957Y0279957D03*
X0204957Y0279895D03*
X0206372Y0273375D03*
X0206403Y0273313D03*
X0206649Y0272637D03*
X0206679Y0272575D03*
X0206679Y0272514D03*
X0206710Y0272452D03*
X0206710Y0272390D03*
X0206741Y0272267D03*
X0206741Y0272206D03*
X0206803Y0271591D03*
X0220644Y0274482D03*
D156*
X0206741Y0271622D03*
X0201358Y0280111D03*
D157*
X0206756Y0271714D03*
X0206756Y0271652D03*
D158*
X0203035Y0271652D03*
X0204849Y0279588D03*
X0201620Y0279711D03*
X0213923Y0289553D03*
X0214230Y0289307D03*
D159*
X0204603Y0281156D03*
X0202788Y0283494D03*
X0202788Y0283617D03*
X0206326Y0273159D03*
X0206818Y0271683D03*
D160*
X0206772Y0271745D03*
D161*
X0202942Y0271745D03*
X0201251Y0280357D03*
X0202758Y0283187D03*
D162*
X0202773Y0283771D03*
X0202773Y0283832D03*
X0202742Y0284017D03*
X0202742Y0284078D03*
X0202742Y0284140D03*
X0202742Y0284202D03*
X0202742Y0284263D03*
X0202712Y0284325D03*
X0202712Y0284386D03*
X0202712Y0284448D03*
X0202681Y0284755D03*
X0202681Y0284817D03*
X0204680Y0281064D03*
X0204957Y0280265D03*
X0204957Y0280141D03*
X0201420Y0280141D03*
X0209171Y0278234D03*
X0206710Y0271898D03*
X0206710Y0271837D03*
X0206833Y0271775D03*
D163*
X0206833Y0271806D03*
X0204957Y0280172D03*
X0201297Y0280049D03*
X0202773Y0283740D03*
X0202742Y0283986D03*
X0202742Y0284109D03*
X0202742Y0284232D03*
X0202712Y0284355D03*
D164*
X0209417Y0281156D03*
X0204126Y0275251D03*
X0202896Y0273282D03*
X0202989Y0271806D03*
D165*
X0202973Y0271837D03*
X0202942Y0271898D03*
X0201220Y0281249D03*
X0202696Y0283156D03*
D166*
X0202773Y0283802D03*
X0202742Y0284171D03*
X0202712Y0284417D03*
X0202681Y0284786D03*
X0204649Y0281095D03*
X0204957Y0280234D03*
X0211631Y0278142D03*
X0206710Y0271868D03*
D167*
X0202973Y0271868D03*
X0201220Y0281218D03*
X0209340Y0281095D03*
D168*
X0202942Y0271929D03*
D169*
X0206526Y0272944D03*
X0206772Y0271960D03*
D170*
X0202927Y0271960D03*
X0202958Y0273129D03*
X0204895Y0279649D03*
X0201205Y0281187D03*
D171*
X0201481Y0279865D03*
X0202927Y0271991D03*
D172*
X0206772Y0272052D03*
D173*
X0206495Y0272975D03*
X0202896Y0272729D03*
X0202773Y0272483D03*
X0202958Y0272114D03*
X0201205Y0280480D03*
X0201174Y0280726D03*
X0201174Y0280849D03*
X0202804Y0283063D03*
X0204219Y0281464D03*
X0214830Y0289092D03*
D174*
X0204388Y0281495D03*
X0201527Y0279649D03*
X0206572Y0272821D03*
X0206603Y0272760D03*
X0206633Y0272698D03*
X0206756Y0272144D03*
X0202942Y0272144D03*
X0202173Y0292137D03*
D175*
X0201174Y0280664D03*
X0201205Y0280541D03*
X0201235Y0280418D03*
X0201266Y0280295D03*
X0202773Y0272667D03*
X0202773Y0272421D03*
X0202804Y0272175D03*
X0206372Y0273282D03*
D176*
X0206618Y0272729D03*
X0206741Y0272237D03*
X0202866Y0273098D03*
X0201481Y0279988D03*
X0201235Y0280972D03*
X0214369Y0289338D03*
D177*
X0202835Y0272606D03*
X0202865Y0272237D03*
D178*
X0206802Y0272329D03*
X0211662Y0278173D03*
X0209540Y0281187D03*
X0204865Y0280695D03*
X0204865Y0280634D03*
X0204772Y0280880D03*
X0201174Y0281003D03*
X0202650Y0285124D03*
X0202096Y0292260D03*
D179*
X0202358Y0288108D03*
X0202389Y0287739D03*
X0202389Y0287616D03*
X0202419Y0287493D03*
X0202635Y0285155D03*
X0202850Y0283679D03*
X0205034Y0279988D03*
X0206787Y0272360D03*
D180*
X0206602Y0272421D03*
X0210970Y0276727D03*
X0209125Y0278204D03*
X0211124Y0279803D03*
X0202327Y0288415D03*
X0202296Y0288784D03*
X0202296Y0288907D03*
X0202266Y0289031D03*
X0202266Y0289277D03*
X0202235Y0289400D03*
X0202235Y0289523D03*
X0202758Y0293214D03*
D181*
X0206633Y0272483D03*
D182*
X0206664Y0272606D03*
X0202788Y0283556D03*
X0202758Y0283925D03*
D183*
X0202881Y0283125D03*
X0202419Y0287431D03*
X0202389Y0287677D03*
X0202389Y0287800D03*
X0202358Y0288046D03*
X0208663Y0279680D03*
X0206572Y0272667D03*
D184*
X0204603Y0273621D03*
X0220290Y0272760D03*
D185*
X0220182Y0272790D03*
D186*
X0220074Y0272821D03*
X0220782Y0274421D03*
X0220751Y0274605D03*
X0211708Y0278358D03*
X0211216Y0279711D03*
X0211001Y0280018D03*
X0209402Y0281064D03*
X0208663Y0279219D03*
X0209186Y0278296D03*
X0202543Y0285186D03*
X0202173Y0290169D03*
X0202143Y0290476D03*
X0202143Y0290538D03*
X0202143Y0290599D03*
X0202143Y0290661D03*
X0202112Y0290784D03*
X0202112Y0290845D03*
X0202112Y0290907D03*
X0202112Y0290968D03*
X0202112Y0291030D03*
X0202081Y0291091D03*
X0202081Y0291153D03*
X0202081Y0291214D03*
X0202081Y0291276D03*
X0202050Y0291583D03*
X0202050Y0291645D03*
X0202050Y0291706D03*
X0202050Y0291768D03*
X0202050Y0291829D03*
D187*
X0220536Y0272852D03*
D188*
X0219613Y0272852D03*
X0220597Y0275682D03*
X0220567Y0275805D03*
D189*
X0208694Y0279988D03*
X0206510Y0272852D03*
X0201128Y0280603D03*
D190*
X0204880Y0279619D03*
X0204296Y0275189D03*
X0202850Y0272852D03*
D191*
X0211539Y0276574D03*
X0200928Y0282541D03*
X0205111Y0291768D03*
X0205357Y0291829D03*
X0220736Y0272883D03*
D192*
X0220182Y0272883D03*
X0218675Y0274421D03*
X0217691Y0284202D03*
X0217445Y0284878D03*
X0216306Y0287462D03*
X0215907Y0288508D03*
D193*
X0219059Y0280018D03*
X0219121Y0279834D03*
X0219152Y0279772D03*
X0219244Y0279465D03*
X0219275Y0279403D03*
X0219306Y0279342D03*
X0219398Y0279096D03*
X0219398Y0279034D03*
X0219490Y0278788D03*
X0219521Y0278727D03*
X0219552Y0278604D03*
X0219582Y0278542D03*
X0219644Y0278358D03*
X0219736Y0278111D03*
X0219767Y0278050D03*
X0219798Y0277927D03*
X0219828Y0277865D03*
X0219890Y0277681D03*
X0220044Y0277250D03*
X0219275Y0272883D03*
X0204234Y0275466D03*
D194*
X0219690Y0272913D03*
D195*
X0211555Y0278081D03*
X0206479Y0273036D03*
X0202788Y0272913D03*
X0201312Y0280172D03*
D196*
X0206003Y0292014D03*
X0219598Y0272944D03*
D197*
X0219629Y0272975D03*
X0202466Y0282571D03*
D198*
X0201927Y0279342D03*
X0204695Y0279465D03*
X0208448Y0276697D03*
X0208356Y0276574D03*
X0206110Y0273621D03*
X0219705Y0273006D03*
X0202881Y0293060D03*
D199*
X0219675Y0273036D03*
D200*
X0219690Y0273067D03*
D201*
X0202804Y0273067D03*
X0201358Y0280080D03*
D202*
X0203819Y0273098D03*
X0221074Y0273098D03*
D203*
X0219613Y0273098D03*
D204*
X0206433Y0273098D03*
X0204926Y0279742D03*
X0201205Y0281464D03*
X0202219Y0292168D03*
D205*
X0206756Y0291768D03*
X0209555Y0280757D03*
X0219736Y0273129D03*
D206*
X0211062Y0276697D03*
X0206479Y0273129D03*
X0204972Y0280018D03*
X0204634Y0281126D03*
X0202788Y0283463D03*
X0202788Y0283525D03*
X0202788Y0283586D03*
X0202788Y0283648D03*
D207*
X0204342Y0279311D03*
X0219752Y0273159D03*
D208*
X0209955Y0278204D03*
X0209709Y0281280D03*
X0205311Y0281280D03*
X0204511Y0282264D03*
X0200912Y0282633D03*
X0200635Y0282264D03*
X0207248Y0273159D03*
X0216076Y0288661D03*
D209*
X0207571Y0291399D03*
X0207418Y0291583D03*
X0219690Y0273190D03*
D210*
X0206387Y0273190D03*
X0204911Y0279711D03*
X0201435Y0279957D03*
X0201189Y0281064D03*
X0201189Y0281126D03*
D211*
X0204788Y0279403D03*
X0208509Y0276635D03*
X0207741Y0275651D03*
X0202911Y0273190D03*
D212*
X0219705Y0273221D03*
X0209924Y0290814D03*
D213*
X0201189Y0281095D03*
X0206356Y0273221D03*
D214*
X0206156Y0273590D03*
X0202927Y0273221D03*
D215*
X0203588Y0273559D03*
X0202266Y0279403D03*
X0219859Y0273805D03*
X0219859Y0273744D03*
X0219798Y0273252D03*
D216*
X0220720Y0274544D03*
X0208663Y0279711D03*
X0206326Y0273252D03*
X0202881Y0283217D03*
X0202819Y0283955D03*
X0202419Y0287462D03*
X0202419Y0287523D03*
X0202389Y0287646D03*
X0202389Y0287708D03*
X0202358Y0288077D03*
X0202081Y0292014D03*
D217*
X0214492Y0289246D03*
X0203696Y0277804D03*
X0202958Y0273252D03*
X0206156Y0273436D03*
D218*
X0219705Y0273282D03*
X0210570Y0290507D03*
D219*
X0210047Y0290661D03*
X0205218Y0292260D03*
X0209617Y0280572D03*
X0219705Y0273313D03*
D220*
X0219844Y0273344D03*
D221*
X0206280Y0273344D03*
X0201604Y0279742D03*
X0201358Y0280234D03*
X0202804Y0283433D03*
D222*
X0207802Y0277158D03*
X0208263Y0278511D03*
X0206756Y0275928D03*
X0208263Y0275066D03*
X0205341Y0273344D03*
X0202573Y0274697D03*
X0212139Y0277035D03*
X0212385Y0277773D03*
X0211893Y0279619D03*
X0218352Y0274451D03*
X0220290Y0277896D03*
D223*
X0202927Y0273344D03*
D224*
X0203619Y0278081D03*
X0202296Y0279434D03*
X0219859Y0273406D03*
D225*
X0206172Y0273406D03*
D226*
X0203034Y0273406D03*
X0208479Y0276727D03*
D227*
X0202389Y0282664D03*
X0219859Y0273436D03*
D228*
X0208294Y0276389D03*
X0204265Y0275282D03*
X0203127Y0273436D03*
X0201896Y0279526D03*
D229*
X0212185Y0290076D03*
X0219874Y0273467D03*
D230*
X0206095Y0273467D03*
D231*
X0207064Y0275066D03*
X0203158Y0273467D03*
X0201897Y0279373D03*
D232*
X0219874Y0273498D03*
D233*
X0209478Y0281003D03*
X0204619Y0279342D03*
X0203142Y0273498D03*
D234*
X0219844Y0274390D03*
X0219874Y0273529D03*
X0211970Y0290138D03*
D235*
X0206003Y0273529D03*
D236*
X0202466Y0282725D03*
X0212062Y0290107D03*
X0219905Y0273621D03*
X0219905Y0273559D03*
D237*
X0212077Y0279342D03*
X0205188Y0273559D03*
X0201466Y0278788D03*
D238*
X0219905Y0273590D03*
D239*
X0217491Y0284663D03*
X0204665Y0273590D03*
X0203681Y0277773D03*
D240*
X0219905Y0273652D03*
D241*
X0205357Y0274636D03*
X0204619Y0273652D03*
D242*
X0219921Y0273682D03*
D243*
X0219921Y0273713D03*
D244*
X0204649Y0273713D03*
D245*
X0204665Y0273744D03*
X0205403Y0274728D03*
D246*
X0219859Y0273775D03*
X0205280Y0292106D03*
D247*
X0204680Y0273775D03*
D248*
X0204634Y0273805D03*
D249*
X0202466Y0282694D03*
X0219936Y0273959D03*
X0219936Y0273836D03*
D250*
X0204557Y0273836D03*
D251*
X0219874Y0273867D03*
D252*
X0219936Y0273898D03*
X0219936Y0274021D03*
X0204403Y0274882D03*
X0210340Y0290630D03*
D253*
X0210647Y0290538D03*
X0211047Y0290415D03*
X0209601Y0280634D03*
X0219936Y0273990D03*
X0219936Y0273928D03*
D254*
X0204834Y0273928D03*
D255*
X0204772Y0273959D03*
X0205357Y0274697D03*
D256*
X0204819Y0274021D03*
D257*
X0219905Y0274297D03*
X0219905Y0274359D03*
X0219936Y0274236D03*
X0219936Y0274174D03*
X0219936Y0274113D03*
X0219936Y0274051D03*
X0209017Y0291030D03*
X0208802Y0291091D03*
D258*
X0208925Y0291061D03*
X0203604Y0278142D03*
X0219905Y0274328D03*
X0219936Y0274205D03*
X0219936Y0274082D03*
D259*
X0204865Y0274113D03*
D260*
X0219936Y0274144D03*
X0219936Y0274267D03*
X0208709Y0291122D03*
D261*
X0204895Y0274144D03*
D262*
X0204911Y0274174D03*
X0204942Y0274236D03*
D263*
X0204926Y0274205D03*
D264*
X0204972Y0274267D03*
D265*
X0204988Y0274297D03*
X0205019Y0274359D03*
X0205111Y0274482D03*
X0205357Y0274790D03*
D266*
X0205019Y0274328D03*
D267*
X0205049Y0274390D03*
X0205326Y0274759D03*
D268*
X0203742Y0277619D03*
X0217306Y0284940D03*
X0217276Y0285001D03*
X0217183Y0285247D03*
X0217152Y0285370D03*
X0217091Y0285493D03*
X0217060Y0285616D03*
X0217030Y0285678D03*
X0216937Y0285924D03*
X0216937Y0285985D03*
X0216876Y0286109D03*
X0216845Y0286232D03*
X0216814Y0286293D03*
X0216783Y0286416D03*
X0216691Y0286662D03*
X0216660Y0286724D03*
X0216599Y0286908D03*
X0216537Y0287093D03*
X0216445Y0287339D03*
X0219490Y0278973D03*
X0219613Y0278296D03*
X0219644Y0278173D03*
X0220290Y0276820D03*
X0220382Y0276081D03*
X0219582Y0274421D03*
D269*
X0205157Y0274421D03*
D270*
X0210970Y0276789D03*
X0202727Y0284909D03*
X0202604Y0285032D03*
X0202327Y0288477D03*
X0202296Y0288846D03*
X0202266Y0289092D03*
X0202266Y0289215D03*
X0202204Y0289830D03*
X0220751Y0274574D03*
X0220751Y0274451D03*
D271*
X0220690Y0275436D03*
X0220659Y0275559D03*
X0220474Y0276051D03*
X0220382Y0276297D03*
X0219429Y0274451D03*
D272*
X0218629Y0274451D03*
X0210447Y0276543D03*
X0203035Y0287000D03*
X0203527Y0292291D03*
X0209924Y0291184D03*
X0213123Y0290199D03*
D273*
X0205095Y0274451D03*
D274*
X0219075Y0274482D03*
X0219290Y0279526D03*
X0219136Y0279588D03*
X0218398Y0281679D03*
X0216860Y0286170D03*
X0216645Y0286785D03*
X0216583Y0286970D03*
X0216553Y0287031D03*
X0216430Y0287400D03*
X0216368Y0287523D03*
X0216368Y0287585D03*
X0216337Y0287646D03*
X0216307Y0287708D03*
D275*
X0204942Y0280295D03*
X0202696Y0284601D03*
X0202696Y0284724D03*
X0202666Y0284847D03*
X0202666Y0284970D03*
X0220690Y0274513D03*
D276*
X0218921Y0274513D03*
X0216153Y0287923D03*
D277*
X0205142Y0274513D03*
D278*
X0210724Y0276512D03*
X0218660Y0274544D03*
X0219459Y0279280D03*
X0218475Y0281987D03*
X0216999Y0285555D03*
X0210078Y0290353D03*
D279*
X0205403Y0274851D03*
X0205157Y0274544D03*
D280*
X0211001Y0276420D03*
X0218537Y0274574D03*
X0216137Y0287985D03*
X0209217Y0290568D03*
D281*
X0205372Y0274820D03*
X0205188Y0274574D03*
D282*
X0205126Y0274605D03*
D283*
X0208709Y0278819D03*
X0211785Y0278450D03*
X0204926Y0280541D03*
X0202004Y0291491D03*
X0220705Y0274636D03*
D284*
X0220705Y0274667D03*
X0211785Y0278419D03*
X0211662Y0278911D03*
X0211631Y0278973D03*
X0211601Y0279096D03*
X0211570Y0279157D03*
X0211508Y0279280D03*
X0204926Y0280511D03*
X0203450Y0277742D03*
D285*
X0211708Y0278511D03*
X0220782Y0274697D03*
D286*
X0220782Y0274759D03*
X0211678Y0278819D03*
D287*
X0211678Y0278850D03*
X0211678Y0278788D03*
X0211708Y0278727D03*
X0202573Y0287216D03*
X0220782Y0274790D03*
D288*
X0220782Y0274820D03*
X0211678Y0278757D03*
X0211462Y0279373D03*
D289*
X0210770Y0276574D03*
X0220705Y0275343D03*
X0220736Y0274851D03*
D290*
X0220797Y0274882D03*
D291*
X0207233Y0275251D03*
X0207079Y0274882D03*
X0203696Y0277835D03*
D292*
X0208663Y0278911D03*
X0209032Y0278542D03*
X0211616Y0279034D03*
X0211770Y0278542D03*
X0220782Y0274974D03*
X0220782Y0274913D03*
D293*
X0204203Y0274913D03*
D294*
X0202235Y0289461D03*
X0220782Y0274943D03*
D295*
X0208540Y0276789D03*
X0208232Y0276420D03*
X0207125Y0274943D03*
D296*
X0204373Y0274943D03*
X0208094Y0291307D03*
D297*
X0212693Y0289984D03*
X0204326Y0274974D03*
D298*
X0204019Y0275374D03*
X0211555Y0279188D03*
X0220782Y0275005D03*
D299*
X0207095Y0275005D03*
X0202512Y0283002D03*
D300*
X0204188Y0275005D03*
D301*
X0204403Y0275036D03*
X0202435Y0282848D03*
X0205172Y0292199D03*
X0210063Y0290784D03*
X0211078Y0290476D03*
D302*
X0202496Y0293152D03*
X0208679Y0278880D03*
X0220766Y0275066D03*
D303*
X0204296Y0275066D03*
D304*
X0219628Y0278419D03*
X0219782Y0277988D03*
X0219844Y0277804D03*
X0219874Y0277742D03*
X0219998Y0277373D03*
X0220028Y0277312D03*
X0220059Y0277189D03*
X0220090Y0277127D03*
X0220120Y0277066D03*
X0220244Y0276697D03*
X0220274Y0276635D03*
X0220305Y0276512D03*
X0220336Y0276451D03*
X0220551Y0275835D03*
X0220613Y0275651D03*
X0220828Y0275097D03*
D305*
X0204280Y0275097D03*
X0203727Y0278050D03*
X0202496Y0282541D03*
X0211508Y0290230D03*
D306*
X0218998Y0280172D03*
X0219090Y0279926D03*
X0219275Y0279434D03*
X0219306Y0279311D03*
X0219398Y0279065D03*
X0219582Y0278573D03*
X0219613Y0278450D03*
X0219798Y0277958D03*
X0219828Y0277835D03*
X0220013Y0277343D03*
X0220813Y0275128D03*
X0210970Y0276481D03*
D307*
X0207694Y0275743D03*
X0207602Y0275620D03*
X0207202Y0275128D03*
X0204465Y0275128D03*
D308*
X0203065Y0275128D03*
X0209955Y0276727D03*
X0215369Y0289277D03*
D309*
X0218952Y0280326D03*
X0220674Y0275159D03*
D310*
X0207218Y0275159D03*
X0204265Y0275220D03*
X0211647Y0290353D03*
X0202789Y0292937D03*
D311*
X0216491Y0287370D03*
X0216768Y0286631D03*
X0220705Y0275189D03*
D312*
X0207248Y0275189D03*
D313*
X0206372Y0275436D03*
X0207387Y0276666D03*
X0209171Y0276297D03*
X0203142Y0275189D03*
X0201758Y0278388D03*
X0200682Y0279742D03*
X0204127Y0282571D03*
X0215322Y0289338D03*
X0217014Y0284663D03*
D314*
X0217675Y0283894D03*
X0217737Y0283709D03*
X0217891Y0283279D03*
X0217952Y0283094D03*
X0217983Y0283033D03*
X0218014Y0282910D03*
X0218044Y0282848D03*
X0218075Y0282787D03*
X0218137Y0282602D03*
X0218167Y0282541D03*
X0218167Y0282479D03*
X0218198Y0282418D03*
X0218229Y0282356D03*
X0218260Y0282233D03*
X0218291Y0282172D03*
X0218383Y0281925D03*
X0218413Y0281802D03*
X0218444Y0281741D03*
X0218506Y0281556D03*
X0218537Y0281495D03*
X0218567Y0281372D03*
X0218598Y0281310D03*
X0218659Y0281126D03*
X0218813Y0280695D03*
X0220628Y0275466D03*
X0220659Y0275220D03*
X0211462Y0279342D03*
X0209371Y0281372D03*
D315*
X0204111Y0281556D03*
X0207587Y0275528D03*
X0207187Y0275220D03*
D316*
X0220736Y0275251D03*
D317*
X0220797Y0275282D03*
X0219167Y0279711D03*
X0219106Y0279895D03*
X0219075Y0279957D03*
X0219044Y0280080D03*
X0219013Y0280141D03*
X0218983Y0280203D03*
X0218890Y0280449D03*
X0218829Y0280634D03*
X0218767Y0280818D03*
X0218737Y0280880D03*
X0218675Y0281064D03*
X0218552Y0281433D03*
X0218491Y0281618D03*
X0218398Y0281864D03*
X0218244Y0282295D03*
X0215538Y0288754D03*
D318*
X0217137Y0285401D03*
X0217260Y0285032D03*
X0217352Y0284786D03*
X0217444Y0284540D03*
X0217537Y0284294D03*
X0217568Y0284171D03*
X0217629Y0284048D03*
X0217660Y0283925D03*
X0217752Y0283679D03*
X0217844Y0283433D03*
X0218060Y0282817D03*
X0220305Y0276666D03*
X0220643Y0275313D03*
D319*
X0207771Y0275774D03*
X0207279Y0275343D03*
X0201374Y0281495D03*
D320*
X0217860Y0283371D03*
X0217952Y0283125D03*
X0218044Y0282879D03*
X0218075Y0282756D03*
X0218137Y0282633D03*
X0218167Y0282510D03*
X0218260Y0282264D03*
X0218291Y0282141D03*
X0218352Y0282018D03*
X0218383Y0281895D03*
X0218475Y0281649D03*
X0218690Y0281033D03*
X0218783Y0280787D03*
X0220628Y0275374D03*
D321*
X0207494Y0275374D03*
D322*
X0206310Y0275374D03*
X0207541Y0276850D03*
X0205511Y0280787D03*
X0215415Y0288538D03*
X0219290Y0280541D03*
D323*
X0209309Y0291368D03*
X0204880Y0275374D03*
D324*
X0211524Y0279403D03*
X0220413Y0276204D03*
X0220444Y0276143D03*
X0220474Y0276020D03*
X0220628Y0275589D03*
X0220659Y0275528D03*
X0220690Y0275405D03*
D325*
X0204757Y0275405D03*
X0208479Y0290784D03*
X0205772Y0291583D03*
X0204388Y0292875D03*
X0203404Y0293183D03*
X0212416Y0289615D03*
D326*
X0202742Y0287093D03*
X0204219Y0275405D03*
D327*
X0203696Y0275405D03*
X0209325Y0281433D03*
X0204219Y0292937D03*
D328*
X0207541Y0275436D03*
D329*
X0204234Y0275436D03*
X0211124Y0279742D03*
D330*
X0211524Y0279434D03*
X0220228Y0276727D03*
X0220413Y0276235D03*
X0220628Y0275620D03*
X0220659Y0275497D03*
X0215215Y0289031D03*
D331*
X0201773Y0279557D03*
X0207587Y0275497D03*
D332*
X0204219Y0275497D03*
X0209355Y0281403D03*
X0202219Y0285217D03*
X0216706Y0286816D03*
X0216737Y0286693D03*
X0216983Y0285586D03*
X0219936Y0277589D03*
D333*
X0207541Y0275559D03*
X0201881Y0279496D03*
D334*
X0202619Y0283094D03*
X0207479Y0275589D03*
X0213877Y0289430D03*
D335*
X0220167Y0277896D03*
X0210078Y0276789D03*
X0206633Y0275682D03*
X0203219Y0277773D03*
X0202450Y0279619D03*
D336*
X0211462Y0279526D03*
X0211462Y0279219D03*
X0220290Y0276574D03*
X0220351Y0276389D03*
X0220505Y0275958D03*
X0220536Y0275897D03*
X0220567Y0275774D03*
X0220597Y0275712D03*
D337*
X0220582Y0275743D03*
X0220490Y0275989D03*
X0220367Y0276358D03*
X0220274Y0276604D03*
X0220090Y0277096D03*
X0220059Y0277219D03*
X0219874Y0277712D03*
X0219752Y0278081D03*
D338*
X0207741Y0275805D03*
D339*
X0207771Y0275835D03*
X0208017Y0276143D03*
D340*
X0220320Y0276481D03*
X0220536Y0275866D03*
X0215153Y0288907D03*
D341*
X0209278Y0281033D03*
X0209402Y0278081D03*
X0207987Y0275866D03*
D342*
X0206833Y0275866D03*
X0204373Y0291983D03*
D343*
X0219506Y0278757D03*
X0219998Y0277404D03*
X0220028Y0277281D03*
X0220090Y0277158D03*
X0220305Y0276543D03*
X0220336Y0276420D03*
X0220520Y0275928D03*
D344*
X0208110Y0276266D03*
X0207956Y0276081D03*
X0207925Y0276020D03*
X0207864Y0275958D03*
X0202542Y0283033D03*
X0213769Y0289492D03*
D345*
X0207987Y0275989D03*
D346*
X0208017Y0276051D03*
X0204757Y0279496D03*
D347*
X0208079Y0276112D03*
D348*
X0219936Y0277527D03*
X0220151Y0276912D03*
X0220213Y0276789D03*
X0220428Y0276174D03*
X0202742Y0293275D03*
D349*
X0208340Y0276543D03*
X0208033Y0276174D03*
D350*
X0208094Y0276235D03*
X0208186Y0276358D03*
X0208279Y0276481D03*
X0209355Y0280910D03*
X0201420Y0281526D03*
X0214000Y0289523D03*
D351*
X0219690Y0278234D03*
X0219905Y0277619D03*
X0219936Y0277558D03*
X0219967Y0277496D03*
X0219967Y0277435D03*
X0220151Y0276943D03*
X0220182Y0276881D03*
X0220213Y0276758D03*
X0220397Y0276266D03*
D352*
X0220428Y0276327D03*
X0217721Y0283771D03*
X0217475Y0284448D03*
X0217229Y0285124D03*
D353*
X0216091Y0288139D03*
X0210985Y0276451D03*
D354*
X0208248Y0276451D03*
D355*
X0211355Y0276512D03*
X0202189Y0285370D03*
X0202435Y0287154D03*
X0212646Y0289553D03*
D356*
X0210709Y0280849D03*
X0211478Y0276543D03*
D357*
X0210924Y0276604D03*
X0201112Y0280787D03*
X0202127Y0292106D03*
D358*
X0208463Y0276604D03*
D359*
X0211862Y0276789D03*
X0202635Y0279619D03*
X0202266Y0281464D03*
X0200912Y0282571D03*
D360*
X0202635Y0281987D03*
X0202604Y0281864D03*
X0209648Y0276820D03*
X0209955Y0277004D03*
X0203588Y0292506D03*
D361*
X0219659Y0278327D03*
X0219967Y0277466D03*
X0220151Y0276973D03*
X0220182Y0276850D03*
D362*
X0209878Y0276850D03*
D363*
X0209817Y0276912D03*
D364*
X0209940Y0276973D03*
X0210186Y0277466D03*
X0203511Y0278942D03*
X0202743Y0281895D03*
D365*
X0216722Y0286539D03*
X0216753Y0286478D03*
X0216968Y0285862D03*
X0216999Y0285801D03*
X0217214Y0285186D03*
X0216506Y0287154D03*
X0219675Y0278481D03*
X0220197Y0277004D03*
D366*
X0220197Y0277035D03*
X0219705Y0278388D03*
X0216999Y0285770D03*
X0216968Y0285893D03*
X0216476Y0287247D03*
D367*
X0210140Y0277404D03*
X0209832Y0277035D03*
D368*
X0209924Y0277066D03*
D369*
X0209955Y0277096D03*
D370*
X0210078Y0277127D03*
X0210140Y0277250D03*
D371*
X0210094Y0277158D03*
X0203450Y0278757D03*
D372*
X0203327Y0279034D03*
X0202650Y0281925D03*
X0210001Y0277189D03*
D373*
X0210032Y0277219D03*
X0202619Y0281772D03*
D374*
X0203434Y0278880D03*
X0210078Y0277281D03*
D375*
X0210094Y0277312D03*
X0203450Y0278850D03*
D376*
X0210124Y0277343D03*
D377*
X0210124Y0277373D03*
D378*
X0210278Y0277435D03*
X0203481Y0278665D03*
X0203511Y0292568D03*
D379*
X0210201Y0277527D03*
D380*
X0210340Y0277589D03*
X0210370Y0277835D03*
D381*
X0203742Y0277589D03*
X0202881Y0285217D03*
X0211924Y0289769D03*
D382*
X0210263Y0277619D03*
D383*
X0219644Y0278142D03*
X0219982Y0277650D03*
X0217306Y0284909D03*
X0217091Y0285524D03*
X0216906Y0286016D03*
X0216876Y0286139D03*
X0216660Y0286754D03*
X0216568Y0287000D03*
D384*
X0210278Y0277650D03*
D385*
X0203742Y0277650D03*
D386*
X0210294Y0277681D03*
X0210324Y0277742D03*
D387*
X0204142Y0277681D03*
D388*
X0203434Y0277681D03*
X0215522Y0288692D03*
X0216722Y0286355D03*
X0216968Y0286047D03*
X0217183Y0285432D03*
X0217460Y0284694D03*
X0217491Y0284571D03*
X0217521Y0284509D03*
X0217737Y0283463D03*
X0217921Y0283402D03*
X0218229Y0282110D03*
X0219459Y0279219D03*
X0202758Y0293183D03*
D389*
X0204311Y0277712D03*
D390*
X0203711Y0277712D03*
D391*
X0203096Y0277712D03*
X0201835Y0287308D03*
X0210509Y0290999D03*
X0213707Y0290015D03*
D392*
X0203311Y0292260D03*
X0202973Y0287031D03*
X0202727Y0285247D03*
X0202081Y0285247D03*
X0204357Y0277742D03*
D393*
X0219152Y0279742D03*
X0219244Y0279496D03*
X0219336Y0279250D03*
X0219367Y0279126D03*
X0219552Y0278634D03*
X0219582Y0278511D03*
X0219767Y0278019D03*
X0219859Y0277773D03*
D394*
X0210263Y0277773D03*
D395*
X0204511Y0277773D03*
X0203865Y0281218D03*
X0205157Y0292660D03*
D396*
X0202942Y0277773D03*
D397*
X0210355Y0277804D03*
D398*
X0210463Y0277865D03*
D399*
X0218183Y0282694D03*
X0217783Y0283802D03*
X0216983Y0285647D03*
X0216030Y0288231D03*
X0215507Y0288723D03*
X0219690Y0277896D03*
D400*
X0210401Y0277896D03*
D401*
X0209478Y0280972D03*
X0203665Y0277896D03*
D402*
X0210478Y0277927D03*
D403*
X0203665Y0277927D03*
D404*
X0210417Y0277958D03*
D405*
X0203788Y0277958D03*
X0202527Y0282879D03*
X0214123Y0289400D03*
D406*
X0210432Y0277988D03*
D407*
X0203819Y0277988D03*
X0213354Y0289799D03*
D408*
X0210447Y0278019D03*
D409*
X0203665Y0278019D03*
D410*
X0202343Y0278019D03*
D411*
X0202635Y0282048D03*
X0210447Y0278050D03*
D412*
X0211693Y0278111D03*
X0208648Y0279649D03*
X0204895Y0280203D03*
X0204342Y0281433D03*
X0202835Y0283709D03*
X0202773Y0284509D03*
X0202435Y0287277D03*
X0202404Y0287585D03*
X0202373Y0287831D03*
X0202373Y0287892D03*
X0202373Y0287954D03*
X0202373Y0288015D03*
X0202343Y0288139D03*
X0202343Y0288200D03*
X0202343Y0288262D03*
X0202343Y0288385D03*
X0202312Y0288508D03*
X0202312Y0288569D03*
X0202312Y0288631D03*
X0202312Y0288692D03*
X0202281Y0288938D03*
X0215046Y0289000D03*
D413*
X0210032Y0278111D03*
D414*
X0209125Y0278111D03*
X0202204Y0289184D03*
X0202173Y0289492D03*
D415*
X0211462Y0290292D03*
X0203588Y0278296D03*
X0203619Y0278111D03*
D416*
X0205049Y0280111D03*
X0209171Y0278142D03*
X0211693Y0278265D03*
X0202681Y0284048D03*
X0202773Y0284540D03*
X0202373Y0287862D03*
X0202373Y0287985D03*
X0202343Y0288231D03*
X0202343Y0288354D03*
X0202312Y0288600D03*
X0202281Y0288969D03*
D417*
X0204926Y0280757D03*
X0208648Y0279342D03*
X0208648Y0279280D03*
X0208832Y0278727D03*
X0209109Y0278173D03*
D418*
X0219182Y0279680D03*
X0219213Y0279557D03*
X0219429Y0278942D03*
X0219705Y0278204D03*
D419*
X0211616Y0278204D03*
X0208909Y0278573D03*
X0202143Y0290507D03*
X0202143Y0290630D03*
X0202112Y0290753D03*
X0202112Y0290876D03*
X0202112Y0290999D03*
X0202081Y0291122D03*
X0202081Y0291245D03*
X0202050Y0291614D03*
X0202050Y0291737D03*
X0202050Y0291860D03*
D420*
X0203588Y0278204D03*
D421*
X0208679Y0279096D03*
X0208679Y0279157D03*
X0208709Y0279034D03*
X0208771Y0278850D03*
X0208802Y0278788D03*
X0211016Y0279834D03*
X0211262Y0279649D03*
X0211724Y0278481D03*
X0211631Y0278234D03*
X0202281Y0288323D03*
X0202066Y0291337D03*
X0202066Y0291399D03*
X0202066Y0291460D03*
X0202066Y0291522D03*
D422*
X0207587Y0291460D03*
X0208202Y0291276D03*
X0208602Y0291153D03*
X0203681Y0278234D03*
D423*
X0219429Y0279003D03*
X0219459Y0278880D03*
X0219675Y0278265D03*
D424*
X0209140Y0278265D03*
X0204926Y0280480D03*
X0204895Y0280603D03*
D425*
X0203573Y0278265D03*
X0209694Y0280357D03*
D426*
X0208633Y0279588D03*
X0209002Y0278419D03*
X0211708Y0278296D03*
X0204788Y0281003D03*
X0202727Y0284940D03*
X0202604Y0285063D03*
X0202327Y0288446D03*
X0202296Y0288754D03*
X0202296Y0288815D03*
X0202296Y0288877D03*
X0202266Y0289000D03*
X0202266Y0289061D03*
X0202266Y0289123D03*
X0202266Y0289246D03*
X0202235Y0289369D03*
X0202235Y0289430D03*
X0202235Y0289553D03*
X0202204Y0289799D03*
D427*
X0202512Y0285094D03*
X0211493Y0279311D03*
X0211647Y0278942D03*
X0211770Y0278327D03*
D428*
X0209078Y0278327D03*
X0204619Y0281033D03*
X0202773Y0284478D03*
X0202404Y0287554D03*
X0202373Y0287923D03*
X0202343Y0288169D03*
X0202312Y0288538D03*
X0202312Y0288661D03*
X0202066Y0291983D03*
D429*
X0203573Y0278327D03*
D430*
X0203557Y0278358D03*
X0209771Y0280141D03*
D431*
X0208617Y0279126D03*
X0208648Y0279003D03*
X0208925Y0278388D03*
X0211539Y0279250D03*
X0211631Y0279003D03*
X0201973Y0291676D03*
D432*
X0203634Y0278388D03*
D433*
X0203542Y0278419D03*
D434*
X0209109Y0278450D03*
D435*
X0208371Y0278450D03*
X0212123Y0279065D03*
X0201666Y0292844D03*
D436*
X0203542Y0278450D03*
D437*
X0204865Y0280080D03*
X0204742Y0280818D03*
X0204803Y0280941D03*
X0208648Y0279526D03*
X0208648Y0279465D03*
X0208956Y0278481D03*
X0211139Y0279772D03*
X0202250Y0289307D03*
X0202189Y0289861D03*
X0202189Y0289922D03*
X0202189Y0289984D03*
X0202189Y0290046D03*
X0202189Y0290107D03*
X0202158Y0290230D03*
X0202158Y0290292D03*
X0202158Y0290353D03*
X0202127Y0290722D03*
X0202066Y0291891D03*
X0202066Y0291952D03*
D438*
X0202681Y0282295D03*
X0203450Y0278481D03*
D439*
X0209017Y0278511D03*
X0211724Y0278634D03*
D440*
X0203604Y0278511D03*
D441*
X0208694Y0279065D03*
X0211708Y0278573D03*
D442*
X0211724Y0278604D03*
D443*
X0208879Y0278604D03*
X0208848Y0278665D03*
X0208632Y0279403D03*
X0208602Y0279772D03*
X0204665Y0281249D03*
X0202481Y0287400D03*
X0202450Y0287769D03*
D444*
X0203496Y0278604D03*
D445*
X0208632Y0279373D03*
X0208879Y0278634D03*
X0202481Y0287370D03*
D446*
X0203496Y0278634D03*
D447*
X0215753Y0288569D03*
X0216276Y0287769D03*
X0216460Y0287277D03*
X0216491Y0287216D03*
X0216706Y0286601D03*
X0218706Y0281187D03*
X0218736Y0280757D03*
X0219444Y0279157D03*
X0219475Y0278665D03*
D448*
X0211647Y0278665D03*
D449*
X0219459Y0278696D03*
X0217245Y0285094D03*
X0216968Y0285832D03*
X0216753Y0286447D03*
X0216722Y0286570D03*
D450*
X0211647Y0278696D03*
X0202635Y0287185D03*
D451*
X0204711Y0280787D03*
X0208648Y0279311D03*
X0208832Y0278696D03*
D452*
X0203465Y0278696D03*
D453*
X0203588Y0278727D03*
X0202573Y0282233D03*
D454*
X0208802Y0278757D03*
X0202096Y0291061D03*
X0202066Y0291430D03*
D455*
X0203588Y0278788D03*
D456*
X0217122Y0285463D03*
X0217030Y0285709D03*
X0216937Y0285955D03*
X0216906Y0286078D03*
X0216845Y0286201D03*
X0216814Y0286324D03*
X0216537Y0287062D03*
X0219552Y0278819D03*
D457*
X0203450Y0278819D03*
D458*
X0218967Y0280265D03*
X0219182Y0279649D03*
X0219459Y0278911D03*
X0219459Y0278850D03*
D459*
X0211724Y0278880D03*
D460*
X0203419Y0278911D03*
D461*
X0208679Y0279188D03*
X0208740Y0278942D03*
X0211231Y0279680D03*
X0202281Y0288292D03*
X0202066Y0291368D03*
D462*
X0215184Y0288938D03*
X0208725Y0278973D03*
D463*
X0203511Y0278973D03*
D464*
X0203388Y0279003D03*
X0203419Y0279126D03*
D465*
X0211478Y0279065D03*
X0218429Y0281772D03*
X0218521Y0281526D03*
X0218613Y0281280D03*
X0218644Y0281156D03*
X0218737Y0280910D03*
X0218829Y0280664D03*
X0218921Y0280418D03*
X0219044Y0280049D03*
X0219136Y0279803D03*
X0219352Y0279188D03*
D466*
X0203388Y0279065D03*
D467*
X0203373Y0279096D03*
D468*
X0211508Y0279126D03*
D469*
X0203373Y0279157D03*
D470*
X0203357Y0279188D03*
D471*
X0203450Y0279219D03*
X0203665Y0292445D03*
D472*
X0202496Y0287247D03*
X0204680Y0280849D03*
X0208586Y0279619D03*
X0208648Y0279250D03*
D473*
X0203404Y0279250D03*
D474*
X0204834Y0279557D03*
X0201850Y0279311D03*
D475*
X0218275Y0282202D03*
X0218583Y0281341D03*
X0218675Y0281095D03*
X0218767Y0280849D03*
X0218798Y0280726D03*
X0218859Y0280603D03*
X0218890Y0280480D03*
X0218983Y0280234D03*
X0219013Y0280111D03*
X0219075Y0279988D03*
X0219106Y0279865D03*
X0219290Y0279373D03*
D476*
X0203281Y0279373D03*
D477*
X0208632Y0279434D03*
X0214507Y0289277D03*
D478*
X0211231Y0279588D03*
X0211478Y0279465D03*
D479*
X0209079Y0280018D03*
X0201943Y0279465D03*
X0201481Y0281556D03*
D480*
X0202281Y0289707D03*
X0202250Y0289953D03*
X0211139Y0279865D03*
X0211385Y0279496D03*
D481*
X0208648Y0279496D03*
X0215107Y0288969D03*
X0202250Y0289338D03*
X0202189Y0290076D03*
X0202158Y0290322D03*
X0202158Y0290445D03*
X0202127Y0290691D03*
X0202066Y0291922D03*
D482*
X0202219Y0290384D03*
X0204926Y0280049D03*
X0211355Y0279557D03*
D483*
X0208571Y0279557D03*
X0202204Y0289154D03*
D484*
X0219198Y0279619D03*
D485*
X0211216Y0279619D03*
D486*
X0208817Y0279926D03*
X0204911Y0279680D03*
D487*
X0204834Y0280726D03*
X0204342Y0281341D03*
X0208679Y0279742D03*
X0202096Y0292045D03*
D488*
X0201158Y0280880D03*
X0201189Y0280634D03*
X0201281Y0280265D03*
X0201312Y0280203D03*
X0204942Y0279772D03*
D489*
X0205034Y0279803D03*
X0204757Y0280910D03*
X0208694Y0279803D03*
D490*
X0204865Y0280664D03*
X0201358Y0279803D03*
D491*
X0201389Y0279834D03*
X0201358Y0279895D03*
X0201112Y0280757D03*
X0202804Y0283402D03*
X0208709Y0279834D03*
X0210985Y0279895D03*
D492*
X0208740Y0279865D03*
D493*
X0211062Y0279988D03*
X0204726Y0281218D03*
X0202235Y0288723D03*
D494*
X0209970Y0279988D03*
D495*
X0209709Y0280049D03*
D496*
X0209771Y0280080D03*
X0202542Y0282418D03*
D497*
X0209678Y0280111D03*
D498*
X0209755Y0280172D03*
D499*
X0209740Y0280203D03*
D500*
X0209724Y0280234D03*
D501*
X0209709Y0280265D03*
D502*
X0218890Y0280295D03*
X0216583Y0286939D03*
X0216399Y0287431D03*
X0216368Y0287554D03*
D503*
X0209694Y0280295D03*
D504*
X0209648Y0280326D03*
X0203157Y0292691D03*
D505*
X0202666Y0285001D03*
X0202666Y0284878D03*
X0202696Y0284694D03*
X0202696Y0284632D03*
X0202696Y0284571D03*
X0204388Y0281310D03*
X0204942Y0280388D03*
X0204942Y0280326D03*
X0209401Y0281249D03*
D506*
X0216830Y0286262D03*
X0216614Y0286877D03*
X0216399Y0287493D03*
X0216337Y0287616D03*
X0215845Y0288477D03*
X0219013Y0280357D03*
D507*
X0204942Y0280357D03*
X0204726Y0280972D03*
X0202727Y0284294D03*
X0202696Y0284663D03*
D508*
X0215492Y0288877D03*
X0215553Y0288815D03*
X0216230Y0287892D03*
X0216260Y0287831D03*
X0218260Y0282048D03*
X0218660Y0280941D03*
X0218967Y0280511D03*
X0218998Y0280388D03*
D509*
X0209678Y0280388D03*
D510*
X0209663Y0280418D03*
D511*
X0204926Y0280418D03*
X0204403Y0281280D03*
D512*
X0204895Y0280572D03*
X0204926Y0280449D03*
D513*
X0209632Y0280511D03*
X0206156Y0291891D03*
X0205972Y0291952D03*
D514*
X0215999Y0288292D03*
X0217229Y0284970D03*
X0218767Y0280541D03*
D515*
X0209571Y0280541D03*
D516*
X0209617Y0280603D03*
X0210140Y0290691D03*
D517*
X0209663Y0280664D03*
D518*
X0209647Y0280695D03*
D519*
X0210647Y0280910D03*
X0210832Y0280787D03*
X0208802Y0281280D03*
X0204157Y0282510D03*
X0203788Y0282756D03*
D520*
X0209402Y0280787D03*
D521*
X0209371Y0280818D03*
X0206787Y0291829D03*
D522*
X0209340Y0280849D03*
D523*
X0201174Y0280910D03*
X0201174Y0281033D03*
X0202988Y0293091D03*
D524*
X0218783Y0280972D03*
D525*
X0218783Y0281003D03*
X0216168Y0288015D03*
X0216137Y0288077D03*
X0215922Y0288385D03*
X0215861Y0288446D03*
D526*
X0212693Y0289523D03*
X0210447Y0281033D03*
D527*
X0208509Y0281064D03*
X0215122Y0289430D03*
D528*
X0204665Y0281187D03*
X0202696Y0283894D03*
D529*
X0202327Y0285278D03*
X0217798Y0283556D03*
X0217921Y0283187D03*
X0218014Y0282940D03*
X0218137Y0282571D03*
X0218198Y0282448D03*
X0218229Y0282325D03*
X0218352Y0281956D03*
X0218413Y0281833D03*
X0218444Y0281710D03*
X0218537Y0281464D03*
X0218629Y0281218D03*
D530*
X0218706Y0281249D03*
X0218183Y0282664D03*
X0217998Y0283217D03*
X0216060Y0288200D03*
X0215968Y0288323D03*
X0202712Y0293306D03*
D531*
X0209294Y0281280D03*
D532*
X0201235Y0281280D03*
D533*
X0209294Y0281310D03*
X0211847Y0289799D03*
X0210739Y0290907D03*
X0213938Y0289922D03*
D534*
X0201235Y0281310D03*
D535*
X0209617Y0281341D03*
X0216199Y0288108D03*
D536*
X0209017Y0281341D03*
D537*
X0201266Y0281372D03*
D538*
X0216260Y0287800D03*
X0217706Y0283617D03*
X0217921Y0283002D03*
X0218260Y0282387D03*
X0218506Y0281403D03*
D539*
X0204465Y0281403D03*
X0202189Y0289892D03*
X0202189Y0290015D03*
X0202189Y0290138D03*
X0202158Y0290261D03*
D540*
X0215722Y0288600D03*
X0216245Y0287862D03*
X0216522Y0287124D03*
X0216737Y0286508D03*
X0218429Y0281587D03*
D541*
X0202742Y0281618D03*
D542*
X0202727Y0281649D03*
D543*
X0202712Y0281679D03*
D544*
X0202712Y0281710D03*
D545*
X0202650Y0281802D03*
D546*
X0202650Y0281956D03*
D547*
X0202589Y0282018D03*
D548*
X0215953Y0288354D03*
X0216291Y0287739D03*
X0218260Y0282079D03*
D549*
X0202542Y0282079D03*
D550*
X0202604Y0282110D03*
D551*
X0202604Y0282141D03*
X0203465Y0292475D03*
D552*
X0202589Y0282172D03*
D553*
X0202589Y0282202D03*
D554*
X0202650Y0282356D03*
D555*
X0202635Y0282387D03*
D556*
X0202542Y0282448D03*
D557*
X0202358Y0282510D03*
X0206264Y0291860D03*
D558*
X0205049Y0292691D03*
X0204280Y0292014D03*
X0202127Y0293183D03*
X0208248Y0291706D03*
X0210924Y0290046D03*
X0214861Y0288877D03*
X0204096Y0282541D03*
D559*
X0202589Y0282602D03*
X0209232Y0290968D03*
D560*
X0202558Y0282633D03*
D561*
X0217014Y0285739D03*
X0217168Y0285309D03*
X0217260Y0285063D03*
X0217352Y0284817D03*
X0217414Y0284632D03*
X0217506Y0284386D03*
X0217506Y0284325D03*
X0217537Y0284263D03*
X0217598Y0284078D03*
X0217629Y0284017D03*
X0217660Y0283955D03*
X0217691Y0283832D03*
X0217752Y0283648D03*
X0217783Y0283586D03*
X0217814Y0283525D03*
X0217875Y0283340D03*
X0217937Y0283156D03*
X0217998Y0282971D03*
X0218091Y0282725D03*
D562*
X0202389Y0282756D03*
X0202512Y0292229D03*
D563*
X0202296Y0282787D03*
X0213123Y0289861D03*
D564*
X0202573Y0282817D03*
D565*
X0202450Y0282940D03*
D566*
X0202481Y0282971D03*
D567*
X0217229Y0285155D03*
X0217475Y0284417D03*
X0217968Y0283063D03*
D568*
X0211693Y0289830D03*
X0205849Y0291553D03*
X0201666Y0283063D03*
D569*
X0201850Y0283125D03*
X0202804Y0287062D03*
X0214400Y0289031D03*
D570*
X0215584Y0288661D03*
X0217214Y0285340D03*
X0217275Y0285217D03*
X0217399Y0284847D03*
X0217491Y0284232D03*
X0217737Y0283494D03*
X0217983Y0283248D03*
D571*
X0202819Y0283248D03*
X0202819Y0283371D03*
D572*
X0202819Y0283340D03*
X0202819Y0283279D03*
X0214907Y0289061D03*
D573*
X0217814Y0283310D03*
D574*
X0202819Y0283310D03*
D575*
X0217475Y0284478D03*
X0217721Y0283740D03*
D576*
X0202712Y0283863D03*
D577*
X0217614Y0284109D03*
D578*
X0217583Y0284140D03*
X0216107Y0287954D03*
D579*
X0203327Y0285094D03*
D580*
X0215553Y0288846D03*
X0216722Y0286385D03*
X0217245Y0285278D03*
D581*
X0202466Y0285309D03*
D582*
X0202250Y0285340D03*
D583*
X0202589Y0287124D03*
D584*
X0202958Y0287154D03*
D585*
X0216460Y0287308D03*
X0216491Y0287185D03*
D586*
X0202619Y0287308D03*
D587*
X0202589Y0287339D03*
D588*
X0215584Y0288784D03*
X0215891Y0288415D03*
X0216322Y0287677D03*
D589*
X0216076Y0288046D03*
D590*
X0216091Y0288169D03*
D591*
X0215907Y0288262D03*
D592*
X0215891Y0288538D03*
D593*
X0215799Y0288631D03*
D594*
X0213538Y0289277D03*
D595*
X0213323Y0289338D03*
X0208340Y0291676D03*
D596*
X0208986Y0290938D03*
X0213969Y0289461D03*
D597*
X0213984Y0289584D03*
D598*
X0212523Y0289584D03*
X0209109Y0291430D03*
X0205910Y0292414D03*
D599*
X0202219Y0289584D03*
D600*
X0202219Y0289615D03*
X0202219Y0289676D03*
X0202219Y0289738D03*
D601*
X0207694Y0291368D03*
X0213508Y0289646D03*
D602*
X0202219Y0289646D03*
X0202219Y0289769D03*
D603*
X0213431Y0289676D03*
D604*
X0213261Y0289738D03*
D605*
X0213431Y0289769D03*
D606*
X0213200Y0289830D03*
D607*
X0211585Y0289861D03*
X0204942Y0291829D03*
D608*
X0212785Y0289892D03*
D609*
X0213784Y0289953D03*
X0210586Y0290938D03*
D610*
X0212246Y0289953D03*
D611*
X0213215Y0290169D03*
X0211155Y0289984D03*
X0209494Y0290476D03*
X0209217Y0291399D03*
X0206818Y0292137D03*
D612*
X0212154Y0290015D03*
D613*
X0211539Y0290199D03*
X0210801Y0290568D03*
D614*
X0211370Y0290261D03*
D615*
X0211539Y0290322D03*
X0208279Y0291184D03*
X0205142Y0292291D03*
D616*
X0209986Y0290322D03*
D617*
X0211155Y0290384D03*
D618*
X0202219Y0290415D03*
X0202527Y0293121D03*
D619*
X0210955Y0290445D03*
D620*
X0212139Y0290507D03*
X0208940Y0291491D03*
X0207679Y0290999D03*
X0206941Y0292106D03*
X0205741Y0292475D03*
D621*
X0210447Y0290599D03*
D622*
X0210047Y0290722D03*
X0209617Y0290845D03*
D623*
X0209525Y0290876D03*
X0209924Y0290753D03*
D624*
X0208325Y0290814D03*
X0204173Y0292045D03*
D625*
X0209140Y0290907D03*
D626*
X0209079Y0290999D03*
D627*
X0208002Y0291337D03*
D628*
X0207479Y0291430D03*
D629*
X0207310Y0291491D03*
X0206049Y0291983D03*
D630*
X0207525Y0291553D03*
D631*
X0207079Y0291614D03*
D632*
X0206695Y0291645D03*
X0205034Y0292137D03*
D633*
X0206664Y0291737D03*
D634*
X0206802Y0291799D03*
D635*
X0205157Y0291799D03*
D636*
X0206064Y0291922D03*
D637*
X0205557Y0292076D03*
D638*
X0205049Y0292229D03*
D639*
X0203865Y0292322D03*
D640*
X0203819Y0292352D03*
D641*
X0203773Y0292383D03*
D642*
X0203511Y0292414D03*
D643*
X0203450Y0292598D03*
D644*
X0203219Y0292629D03*
X0203158Y0292814D03*
D645*
X0203265Y0292660D03*
D646*
X0203357Y0292721D03*
D647*
X0203250Y0292752D03*
D648*
X0203204Y0292783D03*
D649*
X0203281Y0292844D03*
D650*
X0202973Y0292968D03*
D651*
X0202942Y0292998D03*
D652*
X0202927Y0293029D03*
D653*
X0203419Y0293152D03*
D654*
X0202758Y0293244D03*
D655*
X0202696Y0293337D03*
M02*
