G75*
%MOIN*%
%OFA0B0*%
%FSLAX25Y25*%
%IPPOS*%
%LPD*%
%AMOC8*
5,1,8,0,0,1.08239X$1,22.5*
%
%ADD10C,0.04737*%
%ADD11R,0.07493X0.05918*%
%ADD12R,0.05918X0.07493*%
%ADD13C,0.11725*%
D10*
X0198248Y0049055D03*
X0206240Y0049055D03*
X0202244Y0079055D03*
X0214843Y0372717D03*
D11*
X0206969Y0362874D03*
X0206969Y0356181D03*
X0206969Y0349488D03*
X0226654Y0349488D03*
X0226654Y0356181D03*
X0226654Y0362874D03*
X0216811Y0295945D03*
X0216811Y0289252D03*
X0216811Y0282559D03*
X0197126Y0282559D03*
X0197126Y0289252D03*
X0197126Y0295945D03*
X0211299Y0255394D03*
X0211299Y0248701D03*
X0211299Y0242008D03*
X0230984Y0242008D03*
X0230984Y0248701D03*
X0230984Y0255394D03*
X0246339Y0218780D03*
X0246339Y0212087D03*
X0246339Y0205394D03*
X0266024Y0205394D03*
X0266024Y0212087D03*
X0266024Y0218780D03*
X0268386Y0154213D03*
X0268386Y0147520D03*
X0268386Y0140827D03*
X0288071Y0140827D03*
X0288071Y0147520D03*
X0288071Y0154213D03*
X0264055Y0094764D03*
X0264055Y0088071D03*
X0264055Y0081378D03*
X0244370Y0081378D03*
X0244370Y0088071D03*
X0244370Y0094764D03*
X0196339Y0103031D03*
X0196339Y0109724D03*
X0196339Y0116417D03*
X0176654Y0116417D03*
X0176654Y0109724D03*
X0176654Y0103031D03*
D12*
X0100276Y0084134D03*
X0106969Y0084134D03*
X0113661Y0084134D03*
X0113661Y0103819D03*
X0106969Y0103819D03*
X0100276Y0103819D03*
X0132165Y0144370D03*
X0138858Y0144370D03*
X0145551Y0144370D03*
X0145551Y0164055D03*
X0138858Y0164055D03*
X0132165Y0164055D03*
X0154606Y0206575D03*
X0161299Y0206575D03*
X0167992Y0206575D03*
X0167992Y0226260D03*
X0161299Y0226260D03*
X0154606Y0226260D03*
X0210118Y0184921D03*
X0216811Y0184921D03*
X0223504Y0184921D03*
X0223504Y0165236D03*
X0216811Y0165236D03*
X0210118Y0165236D03*
D13*
X0191614Y0151850D03*
X0191614Y0251850D03*
M02*
